<?xml version="1.0" standalone="no"?>
<!DOCTYPE svg PUBLIC "-//W3C//DTD SVG 1.1//EN" "http://www.w3.org/Graphics/SVG/1.1/DTD/svg11.dtd" >
<svg xmlns="http://www.w3.org/2000/svg">
<metadata>Generated by IcoMoon</metadata>
<defs>
<font id="icomoon" horiz-adv-x="1024">
<font-face units-per-em="1024" ascent="960" descent="-64" />
<missing-glyph horiz-adv-x="1024" />
<glyph unicode="&#x20;" horiz-adv-x="512" d="" />
<glyph unicode="&#xe900;" glyph-name="Grid-view" d="M128 832v-341.333h341.333v341.333h-341.333zM384 576h-170.667v170.667h170.667v-170.667zM128 405.333v-341.333h341.333v341.333h-341.333zM384 149.333h-170.667v170.667h170.667v-170.667zM554.667 832v-341.333h341.333v341.333h-341.333zM810.667 576h-170.667v170.667h170.667v-170.667zM554.667 405.333v-341.333h341.333v341.333h-341.333zM810.667 149.333h-170.667v170.667h170.667v-170.667z" />
<glyph unicode="&#xe901;" glyph-name="Group-17" d="M511.999-63.98c-282.326 0-511.999 229.688-511.999 511.969 0 282.222 229.673 511.91 511.999 511.91 282.328 0 512.001-229.688 512.001-511.91 0-282.281-229.673-511.969-512.001-511.969zM921.185 381.558c-14.162 4.413-128.276 38.508-258.13 17.736 54.205-148.925 76.273-270.305 80.507-295.46 92.969 62.853 159.176 162.412 177.623 277.724zM673.91 65.859c-6.205 36.352-30.264 163.092-88.448 314.245-0.876-0.302-1.787-0.568-2.734-0.906-233.718-81.388-317.631-243.569-325.099-258.811 70.24-54.764 158.572-87.455 254.37-87.455 57.391 0.005 112.139 11.771 161.911 32.927zM204.114 170.26c9.372 16.087 123.128 204.385 336.855 273.475 5.407 1.756 10.854 3.374 16.317 4.893-10.388 23.585-21.699 47.091-33.597 70.356-206.947-61.945-407.771-59.382-425.933-58.979-0.119-4.214-0.184-8.446-0.184-12.661 0-106.455 40.346-203.622 106.542-277.084zM106.321 532.203c18.549-0.233 189.277-0.943 383.139 50.481-68.656 122.086-142.725 224.716-153.668 239.653-115.933-54.659-202.613-161.538-229.471-290.134zM414.885 850.173c11.464-15.326 86.727-117.805 154.643-242.586 147.389 55.299 209.741 139.080 217.175 149.669-73.17 64.978-169.411 104.415-274.706 104.415-33.446 0-65.954-3.978-97.112-11.498zM832.783 709.389c-8.714-11.838-78.198-100.859-231.409-163.36 9.646-19.795 18.883-39.891 27.515-60.059 3.021-7.183 6.001-14.298 8.904-21.379 137.902 17.333 274.908-10.436 288.62-13.37-0.932 97.808-35.881 187.624-93.629 258.167z" />
<glyph unicode="&#xe902;" glyph-name="Group-23" d="M511.854 622.882c-96.517 0-174.913-78.396-174.913-174.913 0-96.514 78.396-175.103 174.913-175.103s175.105 78.589 175.105 175.103c0 96.517-78.589 174.913-175.105 174.913zM775.915 924.824h-527.985c-117.308 0-212.871-95.563-212.871-212.871v-527.982c0-117.501 95.563-212.872 212.871-212.872h527.985c117.495 0 212.872 95.371 212.872 212.872v527.982c0 117.308-95.377 212.871-212.872 212.871zM511.922 138.957c-170.336 0-309.007 138.668-309.007 309.004s138.671 308.816 309.007 308.816c170.333 0 309.007-138.481 309.007-308.816s-138.674-309.004-309.007-309.004zM827.416 700.698c-36.051 0-65.428 29.184-65.428 65.235s29.377 65.426 65.428 65.426c36.051 0 65.422-29.375 65.422-65.426s-29.371-65.235-65.422-65.235z" />
<glyph unicode="&#xe903;" glyph-name="Group-32" d="M967.661 903.672c-37.542 37.55-82.771 56.328-135.654 56.328h-640.008c-52.884 0-98.114-18.778-135.67-56.328-37.55-37.557-56.328-82.784-56.328-135.671v-639.995c0-52.883 18.778-98.118 56.328-135.674 37.557-37.555 82.787-56.333 135.67-56.333h639.995c52.89 0 98.118 18.778 135.654 56.333 37.562 37.555 56.339 82.784 56.339 135.674v639.995c-0.006 52.886-18.784 98.121-56.326 135.671zM783.334 565.997c0.442-4 0.672-9.989 0.672-18.003 0-37.335-5.453-74.78-16.333-112.324-10.886-37.564-27.558-73.564-50.010-108.005-22.432-34.442-49.21-64.893-80.316-91.338-31.115-26.432-68.443-47.552-112.008-63.315-43.544-15.789-90.219-23.686-139.993-23.686-77.327 0-148.882 20.902-214.662 62.662 10.666-1.325 21.784-1.997 33.332-1.997 64.447 0 122.447 20 174.005 60.013-30.218 0.429-57.222 9.76-80.998 28-23.782 18.221-40.333 41.327-49.669 69.328 11.551-1.774 20.217-2.655 25.994-2.655 9.777 0 21.114 1.775 33.999 5.322-32.444 6.232-59.773 22.328-81.996 48.328-22.227 26.003-33.337 55.667-33.337 88.998v1.333c23.549-11.103 45.772-16.88 66.663-17.331-40.445 27.117-60.667 66-60.667 116.666 0 24.892 6.44 48.445 19.329 70.668 35.108-43.114 77.783-77.554 127.998-103.331 50.22-25.774 104.003-40.226 161.332-43.334-2.218 8.444-3.332 19.115-3.332 31.999 0 38.673 13.667 71.667 41.003 99.004 27.327 27.334 60.331 41.005 98.992 41.005 40.896 0 74.906-14.671 102.016-44.006 30.669 5.777 60.454 17.116 89.338 33.998-11.11-34.213-31.789-60.216-61.997-77.995 28.877 4.006 55.763 11.558 80.646 22.668-18.662-28.443-42.003-52.664-70.003-72.673z" />
<glyph unicode="&#xe904;" glyph-name="Group-4" horiz-adv-x="922" d="M28.219 423.414c4.915 88.476 17.203 122.882 27.033 136.399 11.059 13.517 15.974 30.72 18.432 49.152 12.288 125.338 34.406 240.845 47.923 301.056 4.915 24.576 27.034 41.779 54.067 41.779 267.879-3.686 432.536-38.093 484.145-50.381 11.059-2.458 22.118-9.83 29.491-18.432 130.253-157.286 190.464-294.911 190.464-294.911 36.864-115.507 15.974-223.644 1.229-275.254-4.915-18.432-17.203-34.406-34.406-45.466-124.109-76.186-180.634-195.379-203.981-264.192-11.059-33.178-41.779-55.296-76.186-55.296h-528.382c-35.635 86.016-9.83 475.546-9.83 475.546zM559.058 450.45c0-24.579 19.661-44.239 44.237-44.239h84.787c24.576 0 44.237 19.661 44.237 44.239 0 24.576-19.661 44.237-44.237 44.237h-84.787c-23.347 0-44.237-19.661-44.237-44.237zM163.386 568.414l522.238 17.203c15.974 0 28.262 13.517 28.262 29.491v66.355c0 24.576-6.144 47.923-19.661 67.584l-66.355 109.363c-3.686 6.144-11.059 11.059-18.432 13.517-47.923 11.059-234.699 49.152-416.561 30.72-13.517-1.229-24.576-12.288-25.805-25.805l-33.178-277.709c-3.686-15.974 11.059-31.949 29.491-30.72z" />
<glyph unicode="&#xe905;" glyph-name="Group-16" horiz-adv-x="1165" d="M896.932 960h-265.103c-127.891 0-234.175-103.965-234.175-231.724 0-116.542 88.777-213.267 201.036-229.365v-101.669c0-13.383 8.058-25.473 20.455-30.582 12.221-5.095 26.56-2.362 36.115 7.179l122.841 122.714h118.83c127.894 0 234.175 103.964 234.175 231.724s-106.281 231.724-234.175 231.724v0zM896.964 496.552c127.894 0 234.175 103.964 234.175 231.724s-106.281 231.724-234.175 231.724h-132.552v-477.156l13.722 13.707h118.83zM843.91 198.621v-132.414c0-57.602-47.076-99.31-98.95-99.31-190.895 0-377.129 90.151-515.646 227.971-138.516 137.823-229.314 323.312-229.314 514.010 0 54.775 44.604 98.847 99.414 98.847h132.552c14.271 0 26.93-9.115 31.415-22.621l66.276-198.157c3.247-9.71 1.811-20.349-3.844-28.845l-56.202-84.236c21.297-44.622 58.986-93.396 102.505-136.34 43.545-42.927 92.919-80.024 137.59-101.298l84.325 56.143c8.549 5.628 19.152 7.108 28.873 3.842l198.829-66.207c13.52-4.481 22.178-17.126 22.178-31.384v0zM844.115 198.614v-132.414c0-57.598-47.079-99.31-98.95-99.31-190.895 0-377.132 90.154-515.648 227.974l142.802 142.654c43.545-42.923 92.919-80.024 137.59-101.298l84.325 56.143c8.549 5.628 19.152 7.108 28.873 3.842l198.825-66.207c13.52-4.481 22.182-17.126 22.182-31.384z" />
<glyph unicode="&#xe909;" glyph-name="Group-1000002901" d="M808.225 951.214l-88.771-88.77 84.852-84.854 88.264 88.264h37.148c16.566 0 29.999 13.432 29.999 30v34.146c0 16.568-13.433 30-29.999 30h-100.282c-7.955 0-15.583-3.16-21.211-8.786zM755.2 657.657l20.945 20.946c11.715 11.716 11.715 30.71 0 42.426l-113.138 113.138c-11.715 11.716-30.711 11.716-42.426 0l-20.945-20.944 155.564-155.566zM305.818 320.866h137.86v-137.863h-137.86v137.863zM724.852 603.294l-179.409 179.41c-15.109 15.11-35.198 23.432-56.567 23.432h-378.876c-60.752 0-110-49.248-110-110v-650.15c0-60.751 49.248-110.001 110-110.001h528.283c60.756 0 110.001 49.25 110.001 110.001v500.74c0 21.37-8.322 41.458-23.431 56.568zM554.282 114.204c11.72-11.715 11.72-30.711 0-42.426-5.855-5.86-13.535-8.788-21.211-8.788s-15.355 2.928-21.211 8.783l-51.214 51.214h-173.006l-51.212-51.209c-5.858-5.86-13.536-8.788-21.212-8.788s-15.356 2.928-21.212 8.788c-11.716 11.715-11.716 30.711 0 42.426l51.212 51.209v173.009l-51.212 51.214c-11.716 11.715-11.716 30.711 0 42.426 11.714 11.715 30.71 11.715 42.426 0l51.212-51.214h173.006l51.213 51.214c11.715 11.715 30.715 11.715 42.426 0 11.715-11.715 11.715-30.711 0-42.426l-51.209-51.209v-173.009l51.205-51.214zM179.14 567.85c-32.662 0-59.14 26.478-59.14 59.14s26.478 59.14 59.14 59.14h293.166l118.281-118.282-411.447 0.002zM949.001 457.998c-41.356 0-75.003 33.648-75.003 75 0 10.616 3.016 29.326 29.1 69.072 13 19.812 25.851 35.888 26.396 36.564 4.743 5.92 11.92 9.366 19.507 9.366s14.76-3.444 19.507-9.366c0.54-0.674 13.391-16.75 26.391-36.564 26.084-39.746 29.1-58.456 29.1-69.072 0-41.352-33.643-75-74.999-75z" />
<glyph unicode="&#xe90a;" glyph-name="Group6" d="M1021.686 336.579l-85.868 150.287c-3.896 6.822-11.156 11.034-19.021 11.034h-809.59c-7.866 0-15.126-4.212-19.023-11.034l-85.867-150.287c-6.234-18.202 0.107-29.107 19.023-32.722h216.801v-88.131c1.267-8.387 6.081-11.848 14.446-10.368l59.125 19.876 59.127-19.876c6.477-2.171 14.446 2.97 14.446 10.368v88.131h21.959c7.166 0 13.881 3.502 17.977 9.375l64.876 93.071v-416.676h-360.713v244.209c0 12.083-9.807 21.883-21.904 21.883s-21.904-9.8-21.904-21.883v-266.092c0-12.078 9.807-21.878 21.904-21.878h809.047c12.099 0 21.903 9.8 21.903 21.878v270.469c0 12.083-9.805 21.883-21.903 21.883s-21.903-9.8-21.903-21.883v-248.586h-360.719v416.676l64.876-93.071c4.096-5.878 10.813-9.375 17.976-9.375h35.415v-88.131c0-7.214 7.736-12.421 14.157-10.46l59.412 18.161 59.418-18.161c8.238-1.265 12.959 2.222 14.157 10.46v88.131h203.346c18.918 3.615 25.257 14.525 19.026 32.722zM395.805 347.617h-336.741l60.862 106.522h350.13l-74.251-106.522zM628.198 347.617l-74.255 106.522h350.131l60.861-106.522h-336.737zM294.774 731.468c45.949-39.7 64.521-86.465 68.52-172.542 0.545-11.726 10.231-20.865 21.863-20.865 0.342 0 0.687 0.009 1.033 0.024 12.085 0.56 21.425 10.802 20.865 22.872-4.518 97.208-28.746 156.197-83.622 203.612-9.146 7.903-22.983 6.905-30.898-2.234-7.912-9.146-6.909-22.961 2.238-30.866zM637.788 538.089c0.348-0.015 0.691-0.024 1.034-0.024 11.628 0 21.32 9.142 21.862 20.865 3.999 86.079 22.574 132.845 68.521 172.542 9.149 7.905 10.153 21.723 2.237 30.862-7.916 9.142-21.75 10.138-30.899 2.234-54.876-47.415-79.104-106.404-83.62-203.612-0.558-12.067 8.781-22.307 20.864-22.867zM488.2 664.019v-104.113c0-12.082 9.806-21.88 21.904-21.88 12.1 0 21.904 9.798 21.904 21.88v104.113c0 12.083-9.805 21.88-21.904 21.88-12.095 0-21.904-9.796-21.904-21.88zM447.342 810.255l-11.457-65.155c0.455-10.393 5.72-14.268 15.791-11.625l60.291 30.923 60.295-30.925c7.158-3.665 17.418 2.35 15.79 11.625l-11.459 65.155 48.579 46.194c5.842 8.761 3.835 15.012-6.011 18.754l-67.343 9.549-30.075 59.445c-6.518 8.008-13.034 8.008-19.552 0l-30.072-59.44-67.345-9.549c-9.85-3.742-11.852-9.995-6.010-18.754l48.579-46.196zM819.036 619.458l-48.573 46.194c-5.842 8.761-3.84 15.012 6.011 18.754l67.343 9.548 30.075 59.44c6.518 8.008 13.036 8.008 19.553 0l30.070-59.44 67.348-9.548c9.846-3.742 11.848-9.995 6.006-18.754l-48.573-46.194 11.453-65.155c1.633-9.275-8.627-15.29-15.79-11.625l-60.293 30.925-60.293-30.925c-10.071-2.641-15.334 1.234-15.79 11.625l11.453 65.155zM64.641 643.555l-11.457-65.157c-1.63-9.275 8.629-15.29 15.791-11.625l60.295 30.925 60.294-30.925c10.072-2.641 15.336 1.234 15.791 11.625l-11.457 65.157 48.577 46.194c5.842 8.761 3.837 15.012-6.013 18.754l-67.345 9.546-30.072 59.445c-6.518 8.008-13.034 8.008-19.552 0l-30.072-59.443-67.343-9.546c-9.853-3.742-11.857-9.993-6.013-18.754l48.577-46.196z" />
<glyph unicode="&#xe90b;" glyph-name="Layer-2" d="M452.156 538.095c0-18.037 8.553-24.902 59.753-37.469 3.258-0.814 6.633-1.687 10.24-2.501 56.32-13.382 141.443-33.629 141.443-127.419 0-46.194-22.75-81.454-64-98.907-28.103-12.106-59.814-14.256-87.625-14.37h-3.956c-88.32 0-144.117 68.71-146.444 71.617-3.539 4.306-6.187 9.267-7.79 14.603s-2.129 10.934-1.547 16.475c0.583 5.541 2.261 10.911 4.937 15.798s6.299 9.188 10.655 12.663c4.356 3.47 9.359 6.042 14.719 7.562s10.968 1.96 16.498 1.293c5.531-0.668 10.874-2.429 15.718-5.18 4.844-2.753 9.092-6.44 12.497-10.849 0 0 33.513-38.457 80.757-39.97h3.898c53.527-0.933 65.98 15.593 67.664 29.673 1.923 16.754-12.1 29.090-67.664 43.344-2.967 0.815-5.818 1.571-9.193 2.327-53.585 12.277-134.575 31.244-134.575 117.877 0 26.415 10.531 111.185 143.767 114.56h7.913c88.844 0 141.267-69.818 143.474-72.96 6.639-8.95 9.444-20.169 7.811-31.189-1.638-11.021-7.583-20.939-16.538-27.575-8.949-6.635-20.167-9.443-31.186-7.806s-20.941 7.584-27.574 16.534c-0.99 1.28-31.070 34.909-75.987 38.924-2.676 0-5.295 0.407-7.913 0.465-31.127 0.931-59.753-10.822-59.753-27.52zM884.366 960h-744.73c-37.034 0-72.551-14.712-98.738-40.899s-40.899-61.704-40.899-98.738v-744.73c0-37.029 14.712-72.55 40.899-98.736s61.704-40.897 98.738-40.897h744.73c37.029 0 72.55 14.711 98.736 40.897s40.897 61.707 40.897 98.736v744.73c0 37.034-14.711 72.551-40.897 98.738s-61.707 40.899-98.736 40.899zM832 312.087c-1.883-33.189-15.775-64.563-39.077-88.274s-54.431-38.138-87.586-40.596c-15.679-1.104-31.425 0.529-46.546 4.83-16.691 4.494-34.378 3.641-50.557-2.446-42.226-15.502-87.57-20.571-132.176-14.78-44.606 5.786-87.154 22.266-124.024 48.031s-66.971 60.052-87.743 99.948c-20.772 39.896-31.6 84.22-31.563 129.2 0.262 17.339-4.95 34.318-14.895 48.523-16.621 22.958-25.684 50.519-25.929 78.861s8.336 56.056 24.556 79.299c16.22 23.243 39.273 40.859 65.959 50.406s55.682 10.549 82.964 2.868c16.687-4.518 34.372-3.684 50.56 2.385 42.211 15.462 87.531 20.506 132.109 14.703s87.096-22.282 123.943-48.035c36.847-25.754 66.93-60.022 87.694-99.892s31.602-84.164 31.585-129.118c-0.284-17.342 4.927-34.328 14.894-48.523 18.392-25.296 27.517-56.158 25.833-87.39z" />
<glyph unicode="&#xe90c;" glyph-name="My-location" d="M512.213 618.693c-94.294 0-170.666-76.375-170.666-170.669 0-94.29 76.372-170.664 170.666-170.664s170.668 76.374 170.668 170.664c0 94.294-76.374 170.669-170.668 170.669zM893.653 490.693c-19.628 177.921-160.854 319.147-338.772 338.774v87.893h-85.336v-87.893c-177.918-19.627-319.145-160.853-338.772-338.774h-87.893v-85.332h87.893c19.627-177.922 160.853-319.148 338.772-338.776v-87.892h85.336v87.892c177.918 19.628 319.144 160.854 338.772 338.776h87.892v85.332h-87.892zM512.213 149.361c-165.12 0-298.666 133.546-298.666 298.664 0 165.122 133.547 298.669 298.666 298.669 165.122 0 298.668-133.547 298.668-298.669 0-165.118-133.546-298.664-298.668-298.664z" />
<glyph unicode="&#xe90d;" glyph-name="noun-car-seat-4811528-1" horiz-adv-x="942" d="M433.811 534.34l-15.147 33.020-151.944-22.403c6.301-11.276 12.503-23.212 18.439-36.225l148.652 25.608zM330.504 283.558l177.031 90.112-64.725 141.091-149.21-25.706c17.661-44.704 31.618-102.945 35.813-190.497 0.254-5.153 0.683-10.109 1.091-15zM461.541 280.744l112.722 62.058c-23.904 7.090-42.254 12.73-50.979 15.438l-140.245-71.385c24.343 2.154 51.451 1.18 78.501-6.111zM214.232 657.736l152.876 22.383-10.11 22.041-152.998-19.073c3.384-8.471 6.799-16.944 10.232-25.351zM666.571 316.49c-22.639 6.16-44.548 12.345-64.299 18.072l-114.43-63.001c17.461-7.815 34.296-19.268 49.885-34.599l128.844 79.528zM527.405 383.734c0.086 0.045 0.184 0.033 0.274 0.074 0.082 0.041 0.131 0.119 0.217 0.16 42.177 18.833 63.324 52.822 62.89 101.024-0.233 23.716-8.688 47.419-23.88 66.735l-60.183 76.626c-12.055 15.308-17.691 34.45-15.86 53.882 2.466 25.953-1.049 48.552-9.966 67.621-30.364 65.109-86.781 63.431-107.299 60.42v-94.593l152.581-332.575 1.225 0.627zM310.515 273.31c-0.169 2.089-0.292 4.133-0.488 6.267-0.494 5.812-1.017 11.796-1.307 17.969-6.478 135.344-36.89 197.808-67.476 250.208-28.029 48.068-86.878 204.762-101.158 243.206-3.998-0.999-7.993-2.068-11.926-3.163 0.719-68.182 31.928-162.947 88.626-268.044 45.488-84.218 73.905-165.999 87.228-249.758l6.501 3.314zM222.4 637.892c12.505-29.922 24.414-56.538 33.562-73.507l153.81 22.677-33.642 73.338-153.729-22.508zM829.44 300.368c-41.292 54.845-105.087 87.47-172.339 87.47-0.61 0-1.192 0-1.774-0.012-44.655-0.385-81.981-10.232-102.367-16.892 60.207-18.211 199.606-58.982 276.48-70.566zM642.953 374.944l22.745-6.84c5.517-1.655 8.626-7.451 6.971-12.956-1.335-4.518-5.489-7.422-9.961-7.422-0.987 0-2.007 0.147-2.994 0.451l-22.741 6.84c-5.521 1.655-8.63 7.451-6.971 12.956 1.626 5.517 7.492 8.643 12.952 6.971zM265.96 273.601c-6.013 2.093-11.183 1.147-16.208-2.863l-11.352-9.388c10.537-4.162 20.761-11.62 28.867-21.807 7.362-9.208 11.815-19.583 13.992-29.774l11.715 10.924c5.432 4.387 7.030 8.176 6.071 13.562-1.045 6.058-5.286 13.754-12.577 22.905-6.681 8.352-13.942 14.189-20.507 16.441zM845.423 277.398c-36.577 3.502-94.106 16.703-151.175 31.683l-142.246-87.802c35.885-43.958 42.418-91.681 23.327-170.476 16.708 6.509 36.086 19.198 47.563 26.69l7.963 5.145 196.645 124.637c15.888 9.298 25.563 26.157 25.563 44.196 0 9.31-2.912 18.063-7.639 25.928zM177.523 913.52c-10.352-2.903-20.144-5.793-27.459-8.313-39.319-13.496-47.561-60.374-48.784-103.912 8.658 3.188 20.046 6.654 35.771 10.41 2.307 18.797 10.976 67.035 40.472 101.815zM272.77 293.274c2.024-0.692 3.998-2.314 6.013-3.338-14.324 73.363-40.254 145.641-80.344 219.943-57.482 106.516-88.508 199.857-90.886 271.522-5.886-2.095-10.53-4.060-12.754-5.612-7.407-29.12-16.876-103.219 38.545-201.732 18.009-31.98 29.744-70.048 36.89-119.79 5.926-41.304 24.981-84.906 40.927-118.28 9.352-19.472 18.948-35.156 28.628-47.194 10.010 6.656 21.515 8.409 32.981 4.481zM317.977 765.567c5.751 0.857 9.818 6.245 9.063 12.011-0.697 5.025-4.706 8.83-9.789 9.222l-28.931-2.483 2.062-23.281 27.595 4.531zM315.050 250.847c2.129-4.489 3.914-8.872 4.631-12.988 2.237-12.927-2.265-24.297-13.013-32.895l-34.479-32.17c-0.042-0.041-0.107-0.020-0.149-0.057-0.163-0.139-0.265-0.336-0.432-0.467-5.49-4.37-12.2-6.463-19.374-6.463-0.788 0-1.629 0.303-2.427 0.352-0.984-3.723-1.271-7.598 0.016-11.403 1.946-5.808 6.216-10.154 12.025-12.231 86.88-31.080 288.757-94.446 290.788-95.085 0.176-0.057 0.418-0.012 0.594-0.061 21.463 82.919 15.184 126.661-24.293 169.48-70.033 75.928-179.777 45.879-213.887 33.989zM258.508 188.518l0.091 0.082c2.892 2.372 4.195 7.234 3.531 13.365-0.871 7.901-4.938 16.863-11.096 24.572 0 0.016 0 0.016 0 0.016-6.158 7.725-14.001 13.652-21.524 16.253-2.672 0.93-5.229 1.393-7.436 1.393-2.644 0-4.851-0.639-6.449-1.917-2.992-2.38-4.299-7.274-3.602-13.447 0.871-7.901 4.909-16.863 11.067-24.588 12.263-15.352 28.8-20.955 35.417-15.729zM237.959 758.455l0.261 24.385-10.399-1.481-12.142-16.658 1.133-10.181 21.146 3.936zM195.923 703.051l156.814 19.551v95.534c-6.002 66.639-38.108 94.145-64.020 105.475-20.769 9.121-44.181 9.266-64.165 0.421-55.899-24.726-66.12-106.009-67.432-119.425 3.602-9.727 19.676-52.949 38.803-101.556zM272.277 797.91c3.515 4.154 8.453 6.695 13.884 7.131l31.051 2.527c16.354-1.133 28.466-12.577 30.441-27.202 2.236-17.022-9.702-32.881-26.665-35.379l-28.146-4.11c-0.988-0.145-1.946-0.218-2.934-0.218-4.531 0-9.033 1.54-12.635 4.386-4.386 3.471-7.145 8.642-7.639 14.19l-2.091 23.76c0 0.015 0 0.029 0 0.029-0.464 5.432 1.22 10.718 4.735 14.887zM213.573 797.169c1.743 2.367 4.386 3.892 7.291 4.227l16.615 1.815c0.029 0.014 0.087 0.014 0.116 0.014 12.345 0 21.436-9.15 21.436-20.391v-24.676c0-10.254-7.669-18.968-17.835-20.275l-31.574-5.897c-0.639-0.116-1.278-0.174-1.917-0.174-2.207 0-4.386 0.712-6.187 2.048-2.324 1.728-3.834 4.343-4.154 7.218l-2.817 25.329c-0.291 2.585 0.406 5.17 1.917 7.276l17.109 23.484z" />
<glyph unicode="&#xe90e;" glyph-name="noun-engine-piston-4234943-1" horiz-adv-x="812" d="M404.145 550.432c-10.491 10.547-13.669 29.082 0 44.385 16.779 13.49 33.803 10.247 44.046 0 12.867-12.867 11.995-32.39 0-44.385-11.649-11.649-31.832-12.214-44.046 0zM40.454 417.859c12.201 12.2 31.968 12.2 44.17 0l14.246-14.262c13.681 7.609 28.651 12.74 44.261 14.29l136.734 136.736-88.080 88.080c-12.201 12.201-12.201 31.968 0 44.17l231.372 231.373c10.494 10.493 26.906 12.11 39.29 3.996 121.559-80.256 226.918-185.586 313.153-313.062 8.39-12.417 6.804-29.009-3.782-39.595l-231.371-231.371c-6.102-6.102-14.096-9.152-22.087-9.152s-15.985 3.051-22.083 9.152l-90.857 90.857-136.765-136.736c-1.548-15.607-6.673-30.565-14.276-44.233l14.276-14.272c12.201-12.203 12.201-31.97 0-44.17-12.201-12.203-31.968-12.203-44.17 0l-14.291 14.29c-46.494-25.999-100.981-16.896-136.795 18.866-36.956 37.005-42.835 92.969-18.63 136.545l-14.314 14.329c-12.202 12.2-12.202 31.998 0 44.17zM449.084 855.803l-38.863-38.86 260.29-260.322 38.711 38.707c-73.636 103.867-160.969 191.353-260.138 260.475zM518.359 404.466l107.983 107.986-260.297 260.326-108.006-107.99c368.265-368.064-68.327 68.329 260.321-260.322zM117.568 266.985c20.305-20.243 53.191-20.932 73.942-0.184 10.219 10.219 15.618 23.732 15.191 38.068-0.244 8.605 3.081 16.931 9.151 23.001l145.398 145.366-37.216 37.217-145.367-145.369c-6.070-6.070-14.306-9.393-23-9.149-14.154 0.579-27.82-4.972-38.099-15.222-20.316-20.314-20.316-53.382 0-73.728z" />
<glyph unicode="&#xe90f;" glyph-name="Remove-circle-outline" d="M298.734 490.7v-85.334h426.668v85.334h-426.668zM512.067 874.7c-235.52 0-426.666-191.146-426.666-426.666 0-235.517 191.146-426.668 426.666-426.668s426.665 191.15 426.665 426.668c0 235.52-191.145 426.666-426.665 426.666zM512.067 106.701c-188.16 0-341.333 153.175-341.333 341.332 0 188.16 153.173 341.334 341.333 341.334s341.335-153.174 341.335-341.334c0-188.157-153.175-341.332-341.335-341.332z" />
<glyph unicode="&#xe910;" glyph-name="Vector-14" horiz-adv-x="768" d="M650.624 928h-533.332c-58.666 0-106.133-48-106.133-106.667l-0.533-853.333 373.333 160 373.334-160v853.333c0 58.667-48 106.667-106.669 106.667zM650.624 128l-266.666 116.269-266.667-116.269v693.333h533.332v-693.333z" />
<glyph unicode="&#xe911;" glyph-name="Vector-23" d="M132.704 732.37h-94.815v-663.706c0-52.144 42.667-94.811 94.815-94.811h663.701v94.811h-663.701v663.706zM891.221 922h-568.888c-52.148 0-94.815-42.667-94.815-94.815v-568.887c0-52.15 42.667-94.817 94.815-94.817h568.888c52.15 0 94.817 42.667 94.817 94.817v568.887c0 52.148-42.667 94.815-94.817 94.815zM511.963 329.409v426.664l284.442-213.333-284.442-213.331z" />
<glyph unicode="&#xe912;" glyph-name="Vector-33" d="M132.704 732.37h-94.815v-663.706c0-52.144 42.667-94.811 94.815-94.811h663.701v94.811h-663.701v663.706zM891.221 922h-568.888c-52.148 0-94.815-42.667-94.815-94.815v-568.887c0-52.15 42.667-94.817 94.815-94.817h568.888c52.15 0 94.817 42.667 94.817 94.817v568.887c0 52.148-42.667 94.815-94.817 94.815zM511.963 329.409v426.664l284.442-213.333-284.442-213.331z" />
<glyph unicode="&#xe913;" glyph-name="Vector-41" horiz-adv-x="1575" d="M787.747 927.231c-398.576 0-722.055-161.74-722.055-361.026 0-161.739 212.283-298.207 505.436-344.418v-233.224l288.819 288.822-288.819 288.821v-197.12c-227.446 40.435-361.025 137.19-361.025 197.12 0 76.538 219.503 216.615 577.645 216.615 358.132 0 577.638-140.078 577.638-216.615 0-52.71-105.417-136.468-288.823-182.679v-148.020c254.889 55.598 433.231 182.678 433.231 330.699 0 199.286-323.474 361.026-722.046 361.026z" />
<glyph unicode="&#xe914;" glyph-name="Vector-51" horiz-adv-x="1132" d="M985.465 845.499c-12.126 35.773-46.080 61.238-86.097 61.238h-666.947c-40.017 0-73.364-25.465-86.097-61.238l-126.114-363.183v-485.054c0-33.345 27.284-60.632 60.632-60.632h60.632c33.347 0 60.632 27.287 60.632 60.632v60.632h727.579v-60.632c0-33.345 27.287-60.632 60.632-60.632h60.632c33.345 0 60.632 27.287 60.632 60.632v485.054l-126.114 363.183zM232.421 239.788c-50.324 0-90.947 40.626-90.947 90.947 0 50.327 40.623 90.948 90.947 90.948s90.947-40.622 90.947-90.948c0-50.322-40.623-90.947-90.947-90.947zM899.368 239.788c-50.327 0-90.947 40.626-90.947 90.947 0 50.327 40.62 90.948 90.947 90.948s90.947-40.622 90.947-90.948c0-50.322-40.62-90.947-90.947-90.947zM141.474 542.947l90.947 272.842h666.947l90.947-272.842h-848.842z" />
<glyph unicode="&#xe915;" glyph-name="Vector-6" d="M511.997 960c-282.769 0-511.997-229.228-511.997-511.997 0-282.766 229.228-512.003 511.997-512.003 282.766 0 512.003 229.237 512.003 512.003-0.313 282.638-229.358 511.678-512.003 511.997zM511.997 857.597c168.692 0.572 320.268-102.947 381.13-260.269-119.766 53.906-249.796 81.197-381.13 80.006-131.325 1.191-261.356-26.1-381.122-80.006 60.862 157.322 212.437 260.841 381.122 260.269zM427.678 47.176c-178.246 38.063-310.087 189.048-323.775 370.799 152.897 0 323.775-203.58 323.775-370.799zM511.997 371.203c-42.413 0-76.8 34.378-76.8 76.8 0 42.413 34.387 76.8 76.8 76.8 42.422 0 76.8-34.387 76.8-76.8 0-42.422-34.378-76.8-76.8-76.8zM596.325 47.176c0 167.219 170.88 370.799 323.787 370.799-13.698-181.75-145.541-332.736-323.787-370.799z" />
<glyph unicode="&#xe916;" glyph-name="Vector-7" horiz-adv-x="1216" d="M21.25 309.376h277.333v277.332h-277.333v-277.332zM21.25-37.293h277.333v277.338h-277.333v-277.338zM21.25 656.042h277.333v277.333h-277.333v-277.333zM367.917 309.376h832v277.332h-832v-277.332zM367.917-37.293h832v277.338h-832v-277.338zM367.917 933.375v-277.333h832v277.333h-832z" />
<glyph unicode="&#xe917;" glyph-name="Vector-8" horiz-adv-x="1303" d="M849.211 196.468h252.455v-127.255h-252.455v127.255zM849.211 705.489h441.802v-127.255h-441.802v127.255zM849.211 450.979h378.686v-127.255h-378.686v127.255zM91.841 69.213c0-69.986 56.802-127.255 126.229-127.255h378.685c69.425 0 126.228 57.27 126.228 127.255v636.276h-631.142v-636.276zM786.097 896.372h-189.342l-63.115 63.628h-252.456l-63.114-63.628h-189.343v-127.255h757.37v127.255z" />
<glyph unicode="&#xe918;" glyph-name="Vector-9" d="M778.669 928h-640.002c-59.2 0-106.667-48-106.667-106.667v-746.664c0-58.669 47.467-106.669 106.667-106.669h746.664c58.669 0 106.669 48 106.669 106.669v639.998l-213.331 213.333zM512 74.669c-88.533 0-160 71.462-160 160 0 88.531 71.467 159.998 160 159.998s160-71.467 160-159.998c0-88.538-71.467-160-160-160zM672 608h-533.333v213.333h533.333v-213.333z" />
<glyph unicode="&#xe919;" glyph-name="Vector-10" d="M512 960c-282.726 0-512-229.274-512-512s229.274-512 512-512c282.726 0 512 229.274 512 512s-229.274 512-512 512zM363.219 186.002h-124.695v375.147h124.695v-375.147zM300.875 612.375h-0.812c-41.844 0-68.907 28.805-68.907 64.805 0 36.812 27.891 64.82 70.547 64.82s68.906-28.008 69.719-64.82c0-36-27.063-64.805-70.547-64.805zM812.846 186.002h-124.68v200.693c0 50.438-18.055 84.836-63.175 84.836-34.444 0-54.956-23.203-63.973-45.601-3.298-8.014-4.101-19.218-4.101-30.428v-209.5h-124.689c0 0 1.633 339.952 0 375.147h124.689v-53.117c16.567 25.563 46.215 61.922 112.371 61.922 82.044 0 143.559-53.617 143.559-168.841v-215.11z" />
<glyph unicode="&#xe91a;" glyph-name="Vector-111" d="M979.173 447.985c0 257.949-209.349 467.3-467.3 467.3s-467.302-209.351-467.302-467.3c0-226.177 160.752-414.496 373.841-457.957v317.767h-93.46v140.19h93.46v116.824c0 90.189 73.366 163.555 163.556 163.555h116.824v-140.19h-93.457c-25.702 0-46.733-21.029-46.733-46.73v-93.459h140.19v-140.19h-140.19v-324.774c235.988 23.362 420.571 222.432 420.571 464.964z" />
<glyph unicode="&#xe91b;" glyph-name="Vector-121" horiz-adv-x="1463" d="M1179.429 567.491c-41.45 210.286-226.136 368.152-448 368.152-176.152 0-329.143-99.962-405.334-246.247-183.466-19.505-326.095-174.934-326.095-363.276 0-201.754 163.962-365.711 365.714-365.711h792.379c168.229 0 304.764 136.528 304.764 304.759 0 160.914-124.95 291.352-283.429 302.324zM853.336 387.071v-243.806h-243.812v243.806h-182.857l304.762 304.762 304.764-304.762h-182.857z" />
<glyph unicode="&#xe91c;" glyph-name="Vector6" horiz-adv-x="1969" d="M25.541 427.748l229.026 114.543 76.022 228.005c32.332 96.815 98.498 154.628 177.103 154.628h399.997c144.416 0 205.17-61.779 263.948-121.575l253.306-253.486 358.888-119.591c0.244-0.12 0.544-0.18 0.78-0.3 49.948-17.669 153.852-54.508 153.852-166.587v-123.073c0-93.334-75.902-169.236-169.236-169.236h-61.535c-25.482 0-46.151 20.677-46.151 46.151 0 76.327-62.141 138.468-138.468 138.468-76.32 0-138.461-62.141-138.461-138.468 0-25.474-20.669-46.151-46.151-46.151h-738.462c-25.481 0-46.154 20.677-46.154 46.151 0 76.327-62.139 138.468-138.461 138.468s-138.462-62.141-138.462-138.468c0-25.474-20.673-46.151-46.153-46.151h-61.538c-93.329 0-169.231 75.902-169.231 169.236v246.15c0 17.488 9.856 33.474 25.541 41.286zM418.149 741.089l-61.786-185.397h320.56v276.923h-169.231c-43.51 0-74.82-47.295-89.543-91.526zM1105.77 738.625c-53.61 54.567-92.373 93.99-198.081 93.99h-138.459v-276.923h519.387l-182.847 182.933zM92.308 140.312c0-42.433 34.495-76.926 76.923-76.926h20.012c21.454 105.228 114.723 184.615 226.142 184.615s204.687-79.387 226.142-184.615h655.409c21.457 105.228 114.72 184.615 226.139 184.615s204.69-79.387 226.146-184.615h20.007c42.433 0 76.926 34.493 76.926 76.926v123.073c0 30.348-14.667 51.983-91.947 79.447l-361.779 120.552h-1089.242l-210.877-105.469v-217.604z" />
<glyph unicode="&#xe91d;" glyph-name="whatsapp-1" d="M512.128 960h-0.256c-282.304 0-511.872-229.632-511.872-512 0-112 36.096-215.808 97.472-300.096l-63.808-190.208 196.8 62.912c80.96-53.632 177.536-84.608 281.664-84.608 282.304 0 511.872 229.696 511.872 512s-229.568 512-511.872 512zM810.018 237.001c-12.352-34.88-61.376-63.808-100.48-72.256-26.752-5.696-61.696-10.24-179.328 38.528-150.462 62.336-247.358 215.232-254.91 225.152-7.232 9.92-60.8 80.96-60.8 154.433s37.312 109.248 52.352 124.608c12.352 12.608 32.768 18.368 52.352 18.368 6.336 0 12.032-0.32 17.152-0.576 15.040-0.64 22.592-1.536 32.512-25.28 12.352-29.76 42.432-103.232 46.016-110.784 3.648-7.552 7.296-17.792 2.176-27.712-4.8-10.24-9.024-14.784-16.576-23.488s-14.72-15.361-22.272-24.705c-6.912-8.128-14.72-16.832-6.016-31.872 8.704-14.72 38.784-63.808 83.070-103.232 57.152-50.88 103.488-67.136 120.064-74.048 12.352-5.12 27.072-3.904 36.096 5.696 11.456 12.352 25.6 32.832 40 52.992 10.24 14.464 23.168 16.256 36.736 11.136 13.824-4.8 86.976-40.96 102.016-48.448 15.040-7.552 24.96-11.136 28.608-17.472 3.584-6.336 3.584-36.096-8.768-71.040z" />
<glyph unicode="&#xe91f;" glyph-name="dashboard-2" d="M870.31 701.284c-13.589 13.59-34.923 15.594-50.812 4.768-59.853-40.796-360.060-245.939-392.324-278.199-46.788-46.793-46.788-122.918 0-169.707 23.394-23.394 54.127-35.093 84.855-35.093s61.457 11.699 84.851 35.093c32.265 32.26 237.402 332.47 278.199 392.322 10.825 15.886 8.823 37.222-4.77 50.816zM540.309 314.714c-15.595-15.599-40.973-15.599-56.563 0-15.599 15.595-15.599 40.964-0.009 56.559 12.535 12.39 97.771 73.178 202.637 146.074-72.892-104.87-133.679-190.101-146.065-202.633zM184.462 156.954l-49.38-24.090c-36.132 64.482-55.082 136.457-55.082 210.138 0 53.982 9.954 105.681 28.12 153.365l56.582-27.14c5.58-2.675 11.47-3.947 17.272-3.947 14.906 0 29.216 8.371 36.094 22.711 9.552 19.917 1.152 43.814-18.768 53.367l-55.864 26.796c69.434 113.24 189.568 192.19 328.564 205.010v-60.162c0-22.092 17.911-40 40-40 22.093 0 40 17.908 40 40v60.192c47.659-4.338 93.769-16.474 137.545-36.234 20.13-9.090 43.823-0.132 52.915 19.998 9.088 20.136 0.132 43.826-20.002 52.916-66.334 29.942-137.139 45.126-210.458 45.126-136.76 0-265.334-53.256-362.040-149.96-96.702-96.706-149.96-225.279-149.96-362.039 0-101.060 29.996-199.351 86.746-284.233 7.644-11.43 20.282-17.771 33.278-17.771 5.908 0 11.892 1.31 17.514 4.053l82 40c19.856 9.685 28.1 33.63 18.414 53.487-9.686 19.853-33.634 28.096-53.49 18.415zM978.884 553.446c-9.088 20.134-32.777 29.094-52.915 20-20.134-9.090-29.090-32.78-20.002-52.912 25.246-55.919 38.046-115.652 38.046-177.545 0-73.788-19.012-145.877-55.253-210.436l-51.554 24.55c-19.942 9.498-43.81 1.033-53.312-18.918-9.498-19.942-1.028-43.814 18.918-53.312l84.002-40c5.525-2.628 11.383-3.887 17.173-3.887 13.001 0 25.643 6.349 33.276 17.771 56.751 84.885 86.75 183.172 86.75 284.233 0 73.318-15.185 144.128-45.129 210.457z" />
<glyph unicode="&#xe920;" glyph-name="engine-1" d="M917.332 575.982h-21.332v21.334c0 58.794-47.869 106.666-106.668 106.666h-106.663v128h128c23.552 0 42.663 19.115 42.663 42.667s-19.111 42.667-42.663 42.667h-341.335c-23.552 0-42.666-19.115-42.666-42.667s19.114-42.667 42.666-42.667h127.998v-128h-109.353c-38.101 0-73.941-16.81-98.304-46.080l-68.309-81.92h-1.365c-58.795 0-106.667-47.872-106.667-106.666v-64.001h-128v128.001c0 23.552-19.114 42.666-42.666 42.666s-42.667-19.114-42.667-42.666v-341.332c0-23.552 19.115-42.668 42.667-42.668s42.666 19.116 42.666 42.668v128h128v-92.629c0-34.18 13.312-66.35 37.504-90.543l77.995-77.991c24.149-24.193 56.32-37.505 90.538-37.505h369.961c51.545 0 94.596 36.692 104.534 85.332h23.466c58.794 0 106.668 47.875 106.668 106.668v256.001c0 58.794-47.875 106.666-106.668 106.666zM938.668 213.315c0-11.776-9.561-21.332-21.337-21.332h-64c-23.552 0-42.663-19.116-42.663-42.668v-21.332c0-11.776-9.561-21.337-21.337-21.337h-369.961c-11.392 0-22.144 4.441-30.208 12.504l-77.994 77.996c-8.064 8.063-12.501 18.772-12.501 30.208v241.961c0 11.776 9.557 21.333 21.333 21.333h21.333c12.672 0 24.662 5.632 32.768 15.36l81.109 97.28c8.107 9.771 20.054 15.36 32.768 15.36h301.353c11.776 0 21.337-9.557 21.337-21.333v-64c0-23.552 19.111-42.667 42.663-42.667h64c11.776 0 21.337-9.557 21.337-21.333v-256.001z" />
<glyph unicode="&#xe921;" glyph-name="Format-color-fill" d="M706.56 578.56l-381.44 381.44-60.16-60.16 101.547-101.547-219.733-219.733c-25.173-25.173-25.173-65.707 0-90.453l234.667-234.667c12.373-12.373 29.013-18.773 45.227-18.773s32.853 6.4 45.227 18.773l234.667 234.667c25.173 24.747 25.173 65.28 0 90.453zM222.293 533.333l204.373 204.373 204.373-204.373h-408.747zM810.667 469.333c0 0-85.333-92.587-85.333-149.333 0-46.933 38.4-85.333 85.333-85.333s85.333 38.4 85.333 85.333c0 56.747-85.333 149.333-85.333 149.333zM85.333 106.667h853.333v-170.667h-853.333v170.667z" />
<glyph unicode="&#xe923;" glyph-name="Group-15" d="M179.2 755.2v-256h620.047l-155.791 256h-464.256zM994.499 487.15l-256 409.6c-2.289 3.69-5.489 6.734-9.283 8.843-3.799 2.109-8.074 3.213-12.416 3.207h-665.6c-3.362 0.002-6.692-0.659-9.799-1.945s-5.93-3.171-8.307-5.549c-2.378-2.378-4.263-5.2-5.549-8.307s-1.947-6.437-1.945-9.799v-742.4h972.8v332.8c0.005 4.794-1.352 9.491-3.901 13.55zM256 294.4h-102.4c-6.79 0-13.301 2.698-18.102 7.496-4.801 4.803-7.498 11.315-7.498 18.104s2.697 13.302 7.498 18.104c4.801 4.797 11.312 7.496 18.102 7.496h102.4c6.79 0 13.301-2.698 18.102-7.496 4.801-4.803 7.498-11.315 7.498-18.104s-2.697-13.302-7.498-18.104c-4.801-4.797-11.312-7.496-18.102-7.496zM867.103 461.050c-2.227-3.96-5.463-7.257-9.38-9.55-3.922-2.293-8.381-3.502-12.923-3.5h-691.2c-3.362-0.002-6.692 0.659-9.799 1.945s-5.929 3.171-8.307 5.549c-2.378 2.378-4.263 5.2-5.549 8.307s-1.947 6.437-1.945 9.799v307.2c-0.002 3.362 0.659 6.692 1.945 9.799s3.171 5.929 5.549 8.307c2.378 2.378 5.2 4.263 8.307 5.549s6.437 1.947 9.799 1.945h504.248c4.393 0.003 8.714-1.127 12.539-3.282 3.83-2.155 7.035-5.261 9.313-9.018l186.952-307.199c2.376-3.876 3.671-8.318 3.748-12.865s-1.060-9.030-3.297-12.986zM25.6 12.8c-0.002-3.364 0.659-6.692 1.945-9.8s3.171-5.929 5.549-8.305c2.378-2.381 5.2-4.265 8.307-5.55s6.437-1.946 9.799-1.946h921.6c3.364 0 6.692 0.66 9.8 1.946s5.929 3.169 8.305 5.55c2.381 2.376 4.265 5.197 5.55 8.305s1.946 6.436 1.946 9.8v76.8h-972.8v-76.8z" />
<glyph unicode="&#xe924;" glyph-name="Group-22" d="M861.091 122.182h-698.182c-18.517 0-36.275-7.354-49.369-20.447s-20.449-30.855-20.449-49.371c0-30.86 12.26-60.458 34.082-82.283 21.822-21.821 51.42-34.081 82.282-34.081h605.091c30.86 0 60.458 12.26 82.283 34.081 21.821 21.825 34.081 51.423 34.081 82.283 0 18.516-7.354 36.278-20.447 49.371s-30.855 20.447-49.371 20.447zM313.978 542.659c0.339 24.432 10.299 47.744 27.718 64.878s40.893 26.708 65.327 26.644h209.913c24.683-0.028 48.342-9.845 65.797-27.297 17.45-17.452 27.266-41.114 27.294-65.794l24.25-372.364h102.316l-22.072 418.909c-0.042 37.021-14.764 72.515-40.941 98.693s-61.673 40.903-98.695 40.943h-23.273v46.545h46.545c12.344 0.012 24.176 4.92 32.898 13.647 8.727 8.726 13.638 20.558 13.647 32.899v46.545c-0.028 24.681-9.844 48.342-27.294 65.794-17.455 17.452-41.114 27.269-65.797 27.297h-279.272c-24.681-0.028-48.343-9.845-65.794-27.297s-27.269-41.114-27.297-65.794v-46.545c0.012-12.341 4.92-24.173 13.646-32.899s20.558-13.635 32.899-13.647h46.545v-46.545h-23.273c-36.828 0.034-72.175-14.499-98.326-40.43s-40.986-61.152-41.265-97.979l-22.114-420.136h101.187l25.427 373.932zM418.887 773.818h186.181v-46.545h-186.181v46.545zM617.002 587.636h-209.913c-12.341-0.012-24.173-4.92-32.899-13.646s-13.634-20.558-13.646-32.899l-25.271-372.364h352.423l-24.106 370.864c0.14 6.225-0.963 12.415-3.235 18.211-2.276 5.796-5.679 11.082-10.012 15.553s-9.514 8.034-15.239 10.486c-5.72 2.452-11.874 3.742-18.102 3.795z" />
<glyph unicode="&#xe925;" glyph-name="Group-31" d="M614.377 768c0 17.674-15.28 32-34.133 32h-341.333c-18.852 0-34.133-14.326-34.133-32v-256c0-17.674 15.281-32 34.133-32h341.333c18.853 0 34.133 14.326 34.133 32v256zM546.111 544h-273.067v192h273.067v-192zM1005.949 733.094l-136.129 64c-16.896 7.938-37.16 1.484-45.596-14.312-8.431-15.812-1.496-35.032 15.371-42.938l51.843-24.278c-1.388-3.48-3.18-7.16-3.18-11.098 0-41.664 33.343-76.852 67.476-90.102v-389.899c0-17.641-15.314-32-34.133-32-18.813 0-34.133 14.359-34.133 32v256.002c0 77.262-68.267 141.898-136.533 156.766v195.234c0 70.578-59.62 127.532-134.901 127.532h-409.603c-75.283 0-138.163-56.954-138.163-127.532v-716.216l-49.399-23.159c-11.567-5.422-18.867-16.498-18.867-28.626v-96c0-17.67 16.913-32.466 35.763-32.466h750.936c18.847 0 32.501 14.797 32.501 32.466v96c0 12.129-7.299 23.205-18.864 28.626l-49.402 23.159v454.318c34.133-13.25 68.267-48.438 68.267-90.102v-256.002c0-52.935 45.932-96 102.4-96s102.4 43.065 102.4 96v480.002c0 12.126-6.485 23.204-18.051 28.626zM750.933 0h-682.667v44.686l49.399 23.159c11.567 5.422 18.867 16.498 18.867 28.626v735.998c0 35.296 32.245 63.53 69.897 63.53h409.603c37.649 0 66.634-28.234 66.634-63.532v-736.002c0-12.123 7.299-23.205 18.87-28.626l49.397-23.154v-44.686z" />
<glyph unicode="&#xe926;" glyph-name="Group-1000002834" d="M475.482 520.435c2.628-27.324-33.382-78.157-48.992-94.63-31.131-32.789-59.835-68.681-107.686-105.647-34.244-26.445-43.101-29.687-84.287-29.094l-1.491 0.073c-15.668 0-31.321-3.708-45.644-11.14l-21.704 22.481c-2.894 2.995-7.615 2.995-10.494 0l-34.858-36.075c-2.879-3.012-2.879-7.902 0-10.897l21.616-22.374c-6.964-14.323-10.692-30.093-10.903-46.127l-0.058-1.574c0-27.038 9.953-54.106 29.874-74.722 19.848-20.557 45.936-30.865 72.127-30.912h0.088c15.799 0 31.584 3.785 45.995 11.307l21.601-22.387c2.894-2.982 7.615-2.982 10.509 0l34.843 36.105c2.894 2.982 2.894 7.855 0 10.867l-21.704 22.481c7.176 14.835 10.757 31.049 10.757 47.275 0 44.843 2.163 54.255 29.523 91.767 35.72 49.033 69.408 76.979 100.482 108.634 15.872 16.166 64.977 50.773 91.345 50.756l-80.939 83.836zM637.431 836.728c102.822-58.811 174.831-132.64 227.652-235.805 1.476-2.831 2.189-5.995 0-8.265l-25.741-26.658-235.627 244.070 25.737 26.658c2.193 2.271 5.278 1.529 7.979 0zM654.49 618.589c18.662-19.346 18.662-50.697-0.017-70.044-18.662-19.329-48.93-19.346-67.61 0s-18.679 50.713 0 70.044c18.679 19.347 48.947 19.347 67.627 0zM822.507 548.545l-15.607-16.151-235.644 244.054 15.607 16.167 235.644-244.071zM790.046 514.94l-149.252-154.607c-2.146-2.21-5.815-2.21-7.979 0.017l-35.721 37.013 8.375 8.687c19.627 20.331 0.277 27.008-19.277 47.279l-91.247 94.505c-19.567 20.255-26.103 40.237-45.658 19.982l-8.388-8.689-35.75 37.012c-2.149 2.24-2.192 5.995 0 8.265l149.251 154.605 235.644-244.070zM272.443 185.536c0-22.225-17.392-40.252-38.862-40.252-21.455 0-38.848 18.027-38.848 40.252 0 22.238 17.392 40.252 38.848 40.252 21.47 0 38.862-18.014 38.862-40.252z" />
<glyph unicode="&#xe927;" glyph-name="Group5" d="M1019.469 692.598c-1.965 2.801-4.486 5.206-7.424 7.080s-6.24 3.177-9.715 3.837c-3.469 0.66-7.040 0.662-10.515 0.007-3.469-0.655-6.771-1.954-9.715-3.823l-161.683-102.4c-3.693-2.339-6.714-5.507-8.806-9.222s-3.187-7.863-3.187-12.076v-460.8c0-6.79-2.842-13.299-7.891-18.099-5.056-4.806-11.91-7.501-19.059-7.501-7.142 0-13.997 2.694-19.053 7.501-5.056 4.8-7.891 11.309-7.891 18.099v204.8c-0.026 20.362-8.55 39.884-23.706 54.282s-35.706 22.497-57.139 22.518h-26.944v537.6c0 3.362-0.698 6.692-2.048 9.799-1.357 3.107-3.341 5.93-5.842 8.307-2.503 2.378-5.475 4.263-8.744 5.549s-6.776 1.947-10.315 1.945h-592.843c-3.539 0.002-7.044-0.659-10.315-1.945s-6.242-3.171-8.744-5.549c-2.503-2.378-4.488-5.2-5.841-8.307s-2.049-6.437-2.047-9.799v-844.8h646.739v256h26.944c7.142-0.009 13.997-2.709 19.046-7.508s7.891-11.306 7.904-18.092v-204.8c0-20.371 8.518-39.904 23.68-54.304 15.155-14.406 35.718-22.496 57.158-22.496s42.003 8.090 57.165 22.496c15.162 14.4 23.68 33.933 23.68 54.304v384h80.845c3.539-0.002 7.040 0.659 10.31 1.944s6.246 3.172 8.749 5.549c2.502 2.378 4.486 5.2 5.837 8.307 1.357 3.107 2.048 6.436 2.048 9.799v102.4c-0.141 1.001-0.352 1.992-0.627 2.968l42.522 26.931c2.944 1.864 5.472 4.261 7.443 7.054s3.341 5.928 4.032 9.225c0.698 3.297 0.698 6.691 0.013 9.989-0.691 3.298-2.054 6.434-4.019 9.23zM323.369 192c-28.578 0.032-55.976 10.829-76.184 30.029-20.207 19.194-31.574 45.222-31.606 72.371 0 45.8 56.367 153.6 107.79 153.6s107.789-107.799 107.789-153.6c-0.032-27.149-11.399-53.178-31.606-72.371-20.207-19.2-47.606-29.997-76.183-30.029zM538.948 576c0.002-3.363-0.694-6.692-2.047-9.799s-3.338-5.93-5.841-8.307c-2.502-2.378-5.474-4.263-8.744-5.549s-6.775-1.947-10.314-1.945h-377.263c-3.54-0.002-7.044 0.659-10.315 1.945s-6.242 3.171-8.744 5.549c-2.503 2.378-4.488 5.201-5.841 8.307s-2.049 6.436-2.047 9.799v256c-0.002 3.363 0.694 6.692 2.047 9.799s3.338 5.93 5.841 8.307c2.502 2.378 5.474 4.263 8.744 5.549s6.775 1.947 10.315 1.945h377.263c3.539 0.002 7.044-0.659 10.314-1.945s6.242-3.171 8.744-5.549c2.503-2.378 4.488-5.201 5.841-8.307s2.049-6.436 2.047-9.799v-256zM916.211 550.4h-53.894v11.904l53.894 34.134v-46.038zM0-38.426c-0.002-3.36 0.694-6.694 2.047-9.798s3.338-5.926 5.841-8.307c2.503-2.374 5.474-4.262 8.744-5.549s6.775-1.946 10.315-1.946h592.843c3.539 0 7.044 0.659 10.315 1.946s6.241 3.174 8.744 5.549c2.501 2.381 4.485 5.203 5.842 8.307 1.35 3.104 2.048 6.438 2.048 9.798v76.8h-646.739v-76.8zM161.625 601.575h118.078l46.447 88.25c3.196 6.074 8.802 10.692 15.583 12.839s14.182 1.647 20.575-1.389c6.393-3.037 11.254-8.362 13.514-14.804s1.734-13.473-1.462-19.546l-34.396-65.349h145.030v204.8h-323.369v-204.8zM323.395 395c-18.476-13.8-53.894-71.7-53.894-100.6 0-13.581 5.678-26.605 15.785-36.205s23.816-14.995 38.109-14.995c14.294 0 28.003 5.395 38.109 14.995s15.786 22.624 15.786 36.205c0 28.9-35.424 86.801-53.895 100.6z" />
<glyph unicode="&#xe928;" glyph-name="steering-wheel-1" d="M512 960c-135.791 0-266.020-53.943-362.038-149.962s-149.962-226.247-149.962-362.038c25.173-678.616 999.084-677.974 1024 0 0 135.791-53.943 266.020-149.962 362.038s-226.245 149.962-362.038 149.962zM512 874.667c78.18-0.057 154.84-21.571 221.637-62.198 66.792-40.627 121.155-98.808 157.157-168.202l-300.754-60.16c-53.512-10.757-108.626-10.757-162.135 0l-295.296 58.965c35.889 69.707 90.273 128.191 157.194 169.042s143.794 62.492 222.198 62.553zM384 40.96c-78.613 24.872-148.364 71.933-200.858 135.518-52.495 63.58-85.497 140.983-95.035 222.882l166.4-33.28c18.437-3.676 35.837-11.372 50.956-22.544 15.119-11.178 27.586-25.551 36.51-42.097l26.624-49.195c10.104-18.685 15.397-39.596 15.403-60.842v-150.442zM640 40.96v150.442c0.005 21.278 5.314 42.221 15.446 60.928l26.624 49.238c8.941 16.53 21.418 30.882 36.53 42.049 15.117 11.162 32.509 18.863 50.936 22.55l166.4 33.28c-9.529-81.92-42.528-159.345-95.033-222.946s-122.271-110.667-200.903-135.54zM752.812 449.835c-30.72-6.105-59.705-18.915-84.9-37.518-25.196-18.599-45.972-42.528-60.853-70.085l-26.791-49.238c-16.831-31.216-25.627-66.129-25.6-101.592v-167.936c-28.377-2.813-56.96-2.813-85.335 0v167.936c0.027 35.463-8.77 70.376-25.6 101.592l-26.794 49.195c-14.869 27.567-35.643 51.513-60.839 70.117-25.195 18.61-54.19 31.425-84.911 37.529l-184.064 36.821c2.274 25.615 6.902 50.967 13.824 75.733l310.272-62.038c64.535-12.971 131.008-12.971 195.542 0l315.99 63.189c7.082-25.106 11.808-50.817 14.12-76.8l-184.061-36.907z" />
<glyph unicode="&#xe929;" glyph-name="Vector-13" d="M358.4 499.2h-102.4v-102.4h102.4v102.4zM563.2 499.2h-102.4v-102.4h102.4v102.4zM768 499.2h-102.4v-102.4h102.4v102.4zM870.4 857.6h-51.2v102.4h-102.4v-102.4h-409.6v102.4h-102.4v-102.4h-51.2c-56.832 0-101.888-46.080-101.888-102.4l-0.512-716.8c0-56.32 45.568-102.4 102.4-102.4h716.8c56.32 0 102.4 46.080 102.4 102.4v716.8c0 56.32-46.080 102.4-102.4 102.4zM870.4 38.4h-716.8v563.2h716.8v-563.2z" />
<glyph unicode="&#xe92a;" glyph-name="Vector-22" d="M994.743 819.566c0 64.658-51.395 116.053-116.053 116.053s-116.053-51.395-116.053-116.053c0-53.053 34.816-96.158 82.895-111.080v-203.922h-315.002v203.922c48.079 14.921 82.895 58.027 82.895 111.080 0 64.658-51.395 116.053-116.053 116.053s-116.053-51.395-116.053-116.053c0-53.053 34.816-96.158 82.895-111.080v-203.922h-315.002v203.922c48.079 14.921 82.895 58.027 82.895 111.080 0 64.658-51.395 116.053-116.053 116.053s-116.053-51.395-116.053-116.053c0-53.053 34.816-96.158 82.895-111.080v-474.161c-48.079-14.921-82.895-58.027-82.895-111.080 0-64.658 51.395-116.053 116.053-116.053s116.053 51.395 116.053 116.053c0 53.053-34.816 96.158-82.895 111.080v203.922h315.002v-203.922c-48.079-14.921-82.895-58.027-82.895-111.080 0-64.658 51.395-116.053 116.053-116.053s116.053 51.395 116.053 116.053c0 53.053-34.816 96.158-82.895 111.080v203.922h348.16c18.237 0 33.158 14.921 33.158 33.158v237.080c48.079 13.263 82.895 58.027 82.895 111.080zM447.634 819.566c0 26.526 21.553 49.737 49.737 49.737 26.526 0 49.737-21.553 49.737-49.737 0-26.526-21.553-49.737-49.737-49.737-26.526 0-49.737 21.553-49.737 49.737zM66.316 819.566c0 26.526 21.553 49.737 49.737 49.737 26.526 0 49.737-21.553 49.737-49.737 0-26.526-21.553-49.737-49.737-49.737s-49.737 21.553-49.737 49.737zM165.79 123.246c0-26.526-21.553-49.737-49.737-49.737-26.526 0-49.737 21.553-49.737 49.737s21.553 49.737 49.737 49.737c26.526 0 49.737-21.553 49.737-49.737zM547.109 123.246c0-26.526-21.553-49.737-49.737-49.737-26.526 0-49.737 21.553-49.737 49.737s21.553 49.737 49.737 49.737c26.526 0 49.737-21.553 49.737-49.737zM878.69 769.829c-26.526 0-49.737 21.553-49.737 49.737 0 26.526 21.553 49.737 49.737 49.737s49.737-21.553 49.737-49.737c0-28.184-21.553-49.737-49.737-49.737z" />
<glyph unicode="&#xe92b;" glyph-name="Vector-32" d="M512 960c-282.306 0-512-229.694-512-512 0-282.304 229.694-512 512-512 282.304 0 512 229.696 512 512 0 282.306-229.696 512-512 512zM798.157 582.737l-327.219-324.65c-19.249-19.251-50.045-20.531-70.577-1.286l-173.233 157.837c-20.531 19.248-21.814 51.328-3.85 71.859 19.248 20.532 51.329 21.815 71.86 2.566l137.303-125.754 292.57 292.572c20.531 20.531 52.614 20.531 73.146 0s20.531-52.611 0-73.143z" />
<glyph unicode="&#xe92c;" glyph-name="Vector5" d="M895.831 827.478c-11.095 33.748-42.158 57.772-78.766 57.772h-610.131c-36.608 0-67.115-24.024-78.763-57.772l-115.37-342.628v-457.602c0-31.457 24.96-57.201 55.466-57.201h55.467c30.506 0 55.466 25.743 55.466 57.201v57.201h665.6v-57.201c0-31.457 24.96-57.201 55.465-57.201h55.47c30.505 0 55.465 25.743 55.465 57.201v457.602l-115.369 342.628zM206.934 256.051c-46.038 0-83.2 38.323-83.2 85.801 0 47.473 37.162 85.798 83.2 85.798s83.2-38.325 83.2-85.798c0-47.478-37.163-85.801-83.2-85.801zM817.065 256.051c-46.034 0-83.2 38.323-83.2 85.801 0 47.473 37.166 85.798 83.2 85.798 46.039 0 83.2-38.325 83.2-85.798 0-47.478-37.161-85.801-83.2-85.801zM123.734 542.050l83.2 257.4h610.131l83.2-257.4h-776.531z" />
<glyph unicode="&#xe92d;" glyph-name="Vector-21" d="M132.704 732.426h-94.815v-663.704c0-52.15 42.667-94.817 94.815-94.817h663.701v94.817h-663.701v663.704zM891.221 922.056h-568.888c-52.148 0-94.815-42.667-94.815-94.815v-568.891c0-52.144 42.667-94.811 94.815-94.811h568.888c52.15 0 94.817 42.667 94.817 94.811v568.891c0 52.148-42.667 94.815-94.817 94.815zM511.963 329.461v426.669l284.442-213.333-284.442-213.336z" />
<glyph unicode="&#xe92e;" glyph-name="Vector-12" horiz-adv-x="1126" d="M510.594-0.884l-488.975 352.645c-13.958 10.067-21.619 23.483-21.619 37.79 0 14.322 7.672 27.73 21.619 37.797l44.405 32.017c13.936 10.059 32.55 15.6 52.397 15.6 19.836 0 39.077-5.541 53.014-15.6l285.881-205.729v653.609c0 29.469 31.989 52.754 72.861 52.754h62.777c40.871 0 76.085-23.285 76.085-52.754v-655.943l287.478 208.054c13.958 10.059 32.066 15.601 51.913 15.601 19.83 0 38.2-5.542 52.147-15.601l44.257-32.017c13.957-10.066 21.565-23.475 21.565-37.797 0-14.306-7.7-27.723-21.668-37.789l-488.959-352.646c-14.002-10.090-32.693-15.64-52.562-15.6-19.935-0.032-38.638 5.509-52.617 15.608z" />
<glyph unicode="&#xe92f;" glyph-name="rotate-left-circular-arrow-interface-symbol-1" d="M549.852 922.176c-187.021 0-352.069-107.915-428.925-271.506l-53.462 111.011-67.464-32.495 111.030-230.471 230.471 111.036-32.501 67.451-120.062-57.827c64.857 137.376 203.658 227.921 360.914 227.921 220.172 0 399.282-179.122 399.282-399.291 0-220.171-179.11-399.299-399.282-399.299-129.641 0-251.712 63.337-326.524 169.418l-61.204-43.165c88.854-125.94 233.791-201.126 387.728-201.126 261.439 0 474.148 212.709 474.148 474.171 0 261.46-212.709 474.172-474.148 474.172z" />
<glyph unicode="&#xe930;" glyph-name="map-1-1" d="M512 928c-93.356 0-182.889-37.086-248.902-103.099s-103.098-155.545-103.098-248.901c0-185.92 313.6-579.198 327.040-596.161 2.998-3.735 6.798-6.752 11.118-8.824s9.050-3.15 13.842-3.15c4.792 0 9.522 1.078 13.842 3.15s8.12 5.090 11.118 8.824c13.44 16.962 327.043 410.241 327.043 596.161 0 93.356-37.087 182.889-103.099 248.901-66.018 66.013-155.546 103.099-248.904 103.099zM512 480c-25.316 0-50.063 7.507-71.113 21.572s-37.456 34.055-47.143 57.445c-9.688 23.389-12.223 49.125-7.284 73.955s17.13 47.636 35.031 65.538c17.901 17.901 40.708 30.092 65.538 35.031s50.566 2.404 73.955-7.284c23.389-9.688 43.381-26.094 57.446-47.143s21.57-45.797 21.57-71.113c0-33.948-13.487-66.505-37.49-90.51s-56.562-37.49-90.51-37.49z" />
<glyph unicode="&#xe931;" glyph-name="th-list" horiz-adv-x="1097" d="M319.285 506.286c0 27.856-23.571 51.428-51.428 51.428h-216.429c-30 0-51.429-23.572-51.429-51.428v-171.429c0-30 21.429-51.428 51.429-51.428h216.429c27.857 0 51.428 21.429 51.428 51.428v171.429zM0 163.43v-171.432c0-29.996 21.429-51.427 51.429-51.427h216.429c27.857 0 51.428 21.431 51.428 51.427v171.432c0 27.853-23.571 51.427-51.428 51.427h-216.429c-30 0-51.429-23.574-51.429-51.427zM267.857 900.571h-216.429c-30 0-51.429-23.572-51.429-51.428v-171.429c0-30 21.429-51.428 51.429-51.428h216.429c27.857 0 51.428 21.429 51.428 51.428v171.429c0 27.856-23.571 51.428-51.428 51.428zM439.286-59.429h606.43c27.853 0 51.427 21.431 51.427 51.427v171.432c0 27.853-23.574 51.427-51.427 51.427h-606.43c-27.857 0-51.429-23.574-51.429-51.427v-171.432c0-29.996 23.572-51.427 51.429-51.427zM387.857 849.143v-171.429c0-30 23.572-51.428 51.429-51.428h606.43c27.853 0 51.427 21.429 51.427 51.428v171.429c0 27.856-23.574 51.428-51.427 51.428h-606.43c-27.857 0-51.429-23.572-51.429-51.428zM439.286 283.429h606.43c27.853 0 51.427 21.429 51.427 51.428v171.429c0 27.856-23.574 51.428-51.427 51.428h-606.43c-27.857 0-51.429-23.572-51.429-51.428v-171.429c0-30 23.572-51.428 51.429-51.428z" />
<glyph unicode="&#xe932;" glyph-name="line-height" horiz-adv-x="1463" d="M1414.568 489.143h-764.997c-15 0-27.857-17.143-27.857-34.286v-68.571c0-19.286 12.857-34.286 27.857-34.286h764.997c15.002 0 30.003 15 30.003 34.286v68.571c0 17.142-15.002 34.286-30.003 34.286zM1414.568 146.286h-764.997c-15 0-27.857-17.145-27.857-34.289v-68.564c0-19.288 12.857-34.289 27.857-34.289h764.997c15.002 0 30.003 15.002 30.003 34.289v68.564c0 17.145-15.002 34.289-30.003 34.289zM1414.568 832h-764.997c-15 0-27.857-17.143-27.857-34.286v-68.571c0-19.286 12.857-34.286 27.857-34.286h764.997c15.002 0 30.003 15 30.003 34.286v68.571c0 17.142-15.002 34.286-30.003 34.286zM450.286 660.571c30 0 45 36.429 23.572 57.857l-171.429 171.428c-6.429 4.286-17.143 8.571-23.572 8.571-8.572 0-19.286-4.286-25.714-8.571l-171.429-171.428c-19.286-19.286-8.572-57.857 25.714-57.857h102.857v-479.996h-102.857c-32.143 0-47.143-38.576-25.714-60.006l171.429-171.425c6.429-4.286 17.142-8.572 25.714-8.572 6.429 0 17.143 4.286 23.572 8.572l171.429 171.425c19.286 21.431 8.571 60.006-23.572 60.006h-102.857v479.996h102.857z" />
<glyph unicode="&#xe933;" glyph-name="Group4" horiz-adv-x="1252" d="M1168.987 943.185h-1086.417c-45.526 0-82.57-37.043-82.57-82.57v-825.242c0-45.53 37.043-82.569 82.57-82.569h1086.417c45.526 0 82.569 37.038 82.569 82.569v825.242c0 45.527-37.038 82.57-82.569 82.57zM82.57 872.411h1086.417c6.391 0 11.795-5.403 11.795-11.796v-549.555l-189.243 242.866c-14.040 18.019-34.592 28.82-56.392 29.622-21.792 0.817-43.088-8.451-58.421-25.393l-245.532-271.36c-5.913-6.527-19.031-8.332-26.491-3.641l-201.883 127.139c-34.595 21.792-85.227 19.547-117.76-5.215l-214.285-163.081v618.618c0 6.393 5.403 11.796 11.796 11.796zM1168.987 23.579h-1086.417c-6.393 0-11.796 5.404-11.796 11.795v117.684l257.151 195.705c8.932 6.793 27.696 7.623 37.184 1.646l201.887-127.139c36.489-22.983 87.742-15.933 116.675 16.043l245.536 271.356c1.472 1.631 2.526 2.124 3.341 2.158 0.618-0.023 1.817-0.664 3.167-2.397l245.066-314.512v-160.537c0-6.398-5.404-11.803-11.795-11.803zM522.976 464.050c69.116 0 125.345 56.225 125.345 125.345 0 69.118-56.233 125.346-125.345 125.346-69.12 0-125.345-56.232-125.345-125.346 0-69.112 56.225-125.345 125.345-125.345zM522.976 643.971c30.094 0 54.572-24.478 54.572-54.571 0-30.095-24.477-54.572-54.572-54.572s-54.572 24.477-54.572 54.572c0 30.088 24.477 54.571 54.572 54.571z" />
<glyph unicode="&#xe934;" glyph-name="Group-14" d="M941.836 287.861c-62.692 0-124.251 9.805-182.585 29.082-28.585 9.749-63.723 0.806-81.169-17.112l-115.139-86.917c-133.528 71.277-215.779 153.502-286.083 286.027l84.36 112.138c21.918 21.888 29.779 53.862 20.36 83.862-19.361 58.64-29.195 120.168-29.195 182.888 0.002 45.309-36.858 82.17-82.165 82.17h-188.054c-45.307 0-82.168-36.861-82.168-82.168 0-519.333 422.502-941.832 941.836-941.832 45.308 0 82.164 36.864 82.164 82.164v187.531c0 45.304-36.864 82.166-82.164 82.166z" />
<glyph unicode="&#xe935;" glyph-name="Sedan-ar" horiz-adv-x="1843" d="M1843.2 380.445c-8.95 37.294-25.504 72.337-48.633 102.932s-52.326 56.080-85.763 74.86c-55.685 31.872-73.346 29.568-345.6 79.104-322.56 322.176-190.082 271.488-835.587 271.488-27.001 0.040-53.535-7.039-76.928-20.522s-42.819-32.895-56.319-56.278c-135.552-237.696-76.8-187.392-283.008-246.144-32.111-9.185-60.354-28.586-80.449-55.263s-30.947-59.178-30.911-92.577v-143.616c0-40.737 16.183-79.806 44.988-108.614 28.806-28.802 67.874-44.988 108.612-44.988h119.040c8.813-43.404 32.361-82.425 66.653-110.449 34.292-28.030 77.218-43.343 121.507-43.343s87.216 15.312 121.508 43.343c34.292 28.023 57.839 67.045 66.652 110.449h545.283c8.813-43.404 32.358-82.425 66.649-110.449 34.29-28.030 77.216-43.343 121.508-43.343s87.217 15.312 121.508 43.343c34.29 28.023 57.842 67.045 66.656 110.449h157.437c30.556 0 59.856 12.138 81.456 33.744 21.606 21.606 33.744 50.906 33.744 81.456 2.676 41.431 2.676 82.989 0 124.418zM1678.848 486.429c29.764-18.749 53.808-45.316 69.502-76.8h-58.75c-10.185-1.425-20.521 1.253-28.727 7.446-8.212 6.193-13.626 15.394-15.046 25.578-1.427 10.185 1.249 20.518 7.441 28.728s15.394 13.623 25.58 15.048zM1251.458 640.029h-329.858v192c158.59 0 139.394 0 329.858-192zM844.8 832.029v-192h-287.232l82.176 192h205.056zM132.48 511.773l21.12 5.76c-1.821-19.079-10.709-36.788-24.919-49.648s-32.716-19.943-51.881-19.856c2.016 14.911 8.368 28.902 18.267 40.234s22.908 19.508 37.414 23.51zM460.8 64.027c-22.784 0-45.057 6.758-64.001 19.415-18.945 12.663-33.71 30.652-42.43 51.705-8.719 21.047-11 44.209-6.555 66.553 4.445 22.351 15.417 42.878 31.528 58.989s36.637 27.081 58.984 31.526c22.346 4.445 45.509 2.163 66.559-6.556 21.050-8.716 39.042-23.482 51.7-42.426 12.658-18.951 19.414-41.219 19.414-64.007 0-30.549-12.137-59.849-33.741-81.456s-50.906-33.744-81.459-33.744zM1382.4 64.027c-22.787 0-45.056 6.758-64 19.415-18.944 12.663-33.71 30.652-42.428 51.705-8.724 21.047-11.005 44.209-6.56 66.553 4.444 22.351 15.421 42.878 31.532 58.989s36.632 27.081 58.982 31.526c22.344 4.445 45.507 2.163 66.56-6.556 21.047-8.716 39.042-23.482 51.698-42.426 12.657-18.951 19.415-41.219 19.415-64.007 0-30.549-12.138-59.849-33.744-81.456-21.6-21.606-50.9-33.744-81.456-33.744zM1728 217.627h-157.437c-8.813 43.404-32.365 82.427-66.656 110.455s-77.216 43.34-121.508 43.34c-44.291 0-87.217-15.312-121.508-43.34s-57.836-67.051-66.649-110.455h-545.283c-8.813 43.404-32.36 82.427-66.652 110.455s-77.219 43.34-121.508 43.34c-44.289 0-87.215-15.312-121.507-43.34s-57.84-67.051-66.653-110.455h-119.040c-20.369 0-39.903 8.096-54.305 22.494-14.403 14.404-22.495 33.942-22.495 54.308v76.8c21.46-0.097 42.702 4.304 62.357 12.919s37.287 21.253 51.758 37.1c14.471 15.847 25.462 34.55 32.263 54.903s9.261 41.908 7.222 63.27c121.344 34.56 102.144 28.8 230.4 254.208 6.734 11.664 16.417 21.351 28.077 28.091s24.887 10.295 38.356 10.309h28.416c-67.2-157.44-92.928-188.544-62.592-234.24 6.993-10.619 16.513-19.335 27.706-25.367s23.708-9.191 36.422-9.193c923.52 0 697.345 15.744 1039.873-46.848-12.636-17.143-20.275-37.453-22.064-58.675s2.342-42.524 11.926-61.54c9.591-19.016 24.262-35.003 42.387-46.184s38.994-17.119 60.293-17.153h76.8v-76.802c0-10.185-4.048-19.948-11.244-27.15-7.202-7.202-16.971-11.25-27.156-11.25zM1355.134 206.507c-4.437-4.471-7.7-9.967-9.51-16.002-1.816-6.028-2.116-12.418-0.874-18.589 1.236-6.178 3.98-11.953 7.974-16.821 4-4.867 9.134-8.677 14.95-11.093s12.138-3.366 18.412-2.758c6.267 0.608 12.295 2.744 17.538 6.226 5.25 3.482 9.564 8.199 12.561 13.742 2.99 5.543 4.581 11.735 4.615 18.029 0.041 7.632-2.185 15.094-6.403 21.456-4.212 6.356-10.226 11.312-17.271 14.234s-14.8 3.686-22.275 2.185c-7.482-1.502-14.343-5.195-19.715-10.609zM433.536 206.507c-5.339-5.379-8.965-12.227-10.422-19.668-1.456-7.434-0.677-15.142 2.238-22.139s7.838-12.977 14.146-17.183c6.308-4.205 13.72-6.451 21.301-6.451s14.993 2.246 21.301 6.451c6.308 4.205 11.23 10.185 14.146 17.183s3.695 14.705 2.238 22.139c-1.456 7.441-5.082 14.288-10.421 19.668-3.57 3.598-7.817 6.458-12.497 8.404-4.679 1.952-9.698 2.956-14.767 2.956s-10.088-1.004-14.767-2.956c-4.68-1.946-8.927-4.806-12.496-8.404zM1036.8 486.4h-76.8c-10.185 0-19.954-4.045-27.15-11.247-7.202-7.201-11.25-16.969-11.25-27.153s4.048-19.952 11.25-27.153c7.195-7.201 16.964-11.247 27.15-11.247h76.8c10.185 0 19.954 4.045 27.15 11.247 7.202 7.201 11.25 16.969 11.25 27.153s-4.048 19.952-11.25 27.153c-7.195 7.201-16.964 11.247-27.15 11.247z" />
<glyph unicode="&#xe936;" glyph-name="Group-13" d="M512.061 919.5c-259.967 0-471.461-211.495-471.461-471.463s211.494-471.461 471.461-471.461c259.968 0 471.465 211.492 471.465 471.461s-211.497 471.463-471.465 471.463zM512.061 38.973c-225.553 0-409.061 183.506-409.061 409.063 0 225.555 183.508 409.063 409.061 409.063 225.556 0 409.062-183.508 409.062-409.063 0-225.558-183.506-409.063-409.062-409.063zM618.875 472.664c34.289 29.89 56.095 73.757 56.095 122.71 0 89.835-73.088 162.927-162.934 162.927-89.848 0-162.939-73.092-162.939-162.927 0-48.953 21.809-92.82 56.097-122.71-65.26-21.32-110.874-54.462-136.063-99.094-42.297-74.9-8.882-151.68-7.447-154.916 7.030-15.744 25.48-22.82 41.205-15.775 15.735 7.020 22.797 25.467 15.767 41.201-0.219 0.512-21.767 51.753 4.805 98.801 25.875 45.834 91.042 76.682 188.575 89.318 97.091-12.585 162.145-43.223 188.237-88.724 26.875-46.884 5.586-98.33 5.064-99.548-6.902-15.703 0.169-34.038 15.852-41.037 4.127-1.853 8.453-2.729 12.698-2.729 11.93 0 23.327 6.886 28.508 18.493 1.444 3.236 34.852 80.005-7.45 154.916-25.206 44.641-70.82 77.773-136.069 99.094zM512.036 494.847c-55.444 0-100.539 45.094-100.539 100.527s45.094 100.527 100.539 100.527c55.439 0 100.536-45.094 100.536-100.527s-45.097-100.527-100.536-100.527z" />
<glyph unicode="&#xe937;" glyph-name="Group-21" horiz-adv-x="1092" d="M546.366 960c-130.408 0-255.472-51.804-347.681-144.017-92.215-92.207-144.018-217.277-144.018-347.681s51.803-255.473 144.018-347.681c92.206-92.215 217.276-144.015 347.681-144.015 86.306 0 171.096 22.719 245.848 65.871 74.745 43.158 136.813 105.226 179.978 179.978 43.151 74.748 65.871 159.541 65.871 245.847 0 130.408-51.801 255.471-144.015 347.681-92.208 92.214-217.277 144.017-347.681 144.017zM792.214 467.321c0.164-10.687-4.021-20.983-11.605-28.522l-161.868-161.372c-9.994-10.013-24.571-13.931-38.242-10.286-13.664 3.652-24.351 14.319-28.028 27.977-3.67 13.664 0.226 28.247 10.221 38.263l94.799 94.895h-317.635c-14.049 0-27.034 7.497-34.064 19.666-7.024 12.176-7.024 27.171 0 39.339 7.031 12.169 20.016 19.666 34.064 19.666h318.531l-95.684 95.684c-10.015 10.015-13.925 24.605-10.262 38.283 3.669 13.679 14.35 24.366 28.028 28.029s28.276-0.247 38.284-10.263l161.863-161.372c7.468-7.416 11.646-17.506 11.612-28.029v-1.968l-0.014 0.009z" />
<glyph unicode="&#xe938;" glyph-name="Group-3" horiz-adv-x="1317" d="M222.143 291.211c6.857-6.31 16.935-7.778 25.237-3.628l363.505 179.239-271.125-191.82c-6.361-4.51-9.947-11.956-9.491-19.749l9.313-158.959c1.843-31.451 7.853-58.066 17.392-76.946 16.39-32.471 39.213-36.108 51.353-35.401 14.687 0.863 28.795 8.558 41.904 22.894l50.501 55.223 81.857-49.844c20.441-12.454 44.539-18.232 69.681-16.759 51.907 3.043 103.834 36.513 135.578 87.333l443.241 710.122c30.544 48.945 25.488 78.511 15.882 94.676-6.344 10.705-22.704 28.328-60.826 26.095-12.659-0.742-26.887-3.633-42.355-8.562l-1005.161-320.548c-44.847-14.294-73.775-41.441-81.514-76.411-7.717-34.994 7.098-71.785 41.743-103.621l123.286-113.332zM101.199 498.425c4.109 18.619 22.267 33.947 51.137 43.145l1005.179 320.573c27.034 8.591 48.040 6.884 50.678 2.404 2.433-4.084 2.355-19.325-15.38-47.741l-443.212-710.124c-24.118-38.619-62.42-63.966-99.957-66.165-16.174-0.946-30.818 2.487-43.549 10.245l-97.724 59.514c-4.057 2.453-8.597 3.521-13.054 3.262-5.7-0.336-11.254-2.833-15.331-7.295l-63.034-68.935c-7.309-7.977-11.222-8.294-11.245-8.324-4.403 1.097-18.149 20.412-21.051 69.954l-8.58 146.456 494.2 349.657c9.591 6.78 12.376 19.848 6.334 29.963-6.017 10.183-18.939 13.877-29.355 8.7l-605.951-298.813-111.913 102.878c-22.292 20.48-32.324 42.025-28.195 60.645z" />
<glyph unicode="&#xe939;" glyph-name="Group3" horiz-adv-x="1418" d="M1293.233 960h-1168.618c-68.572 0-124.615-55.797-124.615-124.615v-747.691c0-68.844 56.080-124.613 124.615-124.613h1168.618c68.569 0 124.613 55.792 124.613 124.613v747.691c0 68.835-56.068 124.615-124.613 124.615zM1274.092 876.923c-40.283-40.422-513.537-515.215-532.979-534.722-16.239-16.289-48.132-16.3-64.38 0l-532.983 534.722h1130.342zM83.077 102.967v717.145l357.411-358.573-357.411-358.572zM143.751 46.151l355.386 356.547 118.759-119.146c48.666-48.824 133.408-48.805 182.061 0l118.752 119.143 355.383-356.544h-1130.342zM1334.768 102.967l-357.408 358.572 357.408 358.573v-717.145z" />
<glyph unicode="&#xe93a;" glyph-name="image-1008" horiz-adv-x="853" d="M736.937 35.998h-620.445c-30.076 0-58.92 11.664-80.186 32.427-21.267 20.761-33.214 48.921-33.214 78.283v605.719c0 29.361 11.948 57.521 33.214 78.283s50.111 32.426 80.186 32.426h620.445c30.076 0 58.919-11.664 80.187-32.426s33.213-48.922 33.213-78.283v-605.719c0-29.362-11.947-57.522-33.213-78.283-21.268-20.762-50.111-32.427-80.187-32.427zM116.492 799.51c-12.791 0-25.058-4.96-34.102-13.79s-14.126-20.806-14.126-33.292v-605.719c0-12.488 5.081-24.464 14.126-33.294s21.311-13.79 34.102-13.79h620.445c12.791 0 25.057 4.96 34.102 13.79s14.125 20.806 14.125 33.294v605.719c0 12.487-5.081 24.463-14.125 33.292s-21.312 13.79-34.102 13.79h-620.445zM35.688 160.701c-4.694 0.014-9.331 1.005-13.601 2.908-4.271 1.901-8.077 4.67-11.165 8.121-2.779 3.198-4.884 6.9-6.192 10.895s-1.795 8.201-1.431 12.381c0.363 4.178 1.57 8.245 3.549 11.967s4.693 7.025 7.985 9.72l222.456 183.242c16.609 13.686 37.869 20.798 59.584 19.935 21.717-0.864 42.313-9.641 57.727-24.601l105.581-103.073c3.935-3.286 8.941-5.092 14.12-5.092 5.177 0 10.186 1.806 14.12 5.092l102.538 72.533c15.196 11.419 33.832 17.611 53.008 17.611s37.814-6.192 53.008-17.611l141.208-109.861c3.367-2.617 6.172-5.857 8.256-9.534s3.406-7.717 3.89-11.892c0.484-4.175 0.121-8.403-1.067-12.442-1.19-4.037-3.182-7.807-5.865-11.095-2.681-3.286-6-6.025-9.765-8.059s-7.905-3.325-12.182-3.798c-4.276-0.472-8.606-0.118-12.743 1.043-4.136 1.162-7.998 3.106-11.365 5.725l-140.774 110.285c-3.798 2.855-8.457 4.403-13.251 4.403s-9.453-1.548-13.251-4.403l-102.538-77.624c-16.691-12.235-37.334-18.196-58.157-16.795-20.823 1.403-40.432 10.074-55.245 24.43l-105.579 105.196c-3.992 3.516-9.179 5.463-14.556 5.463-5.376 0-10.563-1.947-14.555-5.463l-222.891-182.395c-5.82-4.803-13.236-7.368-20.855-7.211zM557.059 460.175c-23.631 0-46.732 6.841-66.382 19.658-19.648 12.819-34.963 31.037-44.007 52.35-9.042 21.315-11.408 44.769-6.799 67.396 4.611 22.627 15.99 43.413 32.7 59.726 16.71 16.314 38 27.423 61.178 31.924s47.202 2.191 69.035-6.637c21.833-8.83 40.493-23.78 53.622-42.963s20.137-41.734 20.137-64.805c0-30.937-12.589-60.607-34.996-82.483s-52.798-34.164-84.488-34.164zM557.059 629.844c-10.741 0-21.242-3.109-30.174-8.935s-15.892-14.108-20.002-23.796c-4.112-9.689-5.187-20.35-3.091-30.635s7.267-19.734 14.864-27.148c7.595-7.415 17.273-12.465 27.808-14.511s21.456-0.996 31.379 3.018 18.406 10.809 24.374 19.529c5.967 8.72 9.152 18.97 9.152 29.457 0 14.061-5.722 27.549-15.908 37.492-10.184 9.942-23.999 15.529-38.403 15.529z" />
<glyph unicode="&#xe93b;" glyph-name="loupe-11" d="M450.948 960c-248.646 0-450.948-202.302-450.948-450.948 0-248.659 202.302-450.95 450.948-450.95 248.659 0 450.95 202.291 450.95 450.95 0 248.646-202.291 450.948-450.95 450.948zM450.948 141.353c-202.746 0-367.696 164.951-367.696 367.697s164.95 367.698 367.696 367.698c202.748 0 367.694-164.95 367.694-367.696 0-202.748-164.946-367.699-367.694-367.699zM1011.814 7.045l-238.659 238.659c-16.261 16.261-42.598 16.261-58.86 0-16.261-16.246-16.261-42.614 0-58.86l238.659-238.659c8.125-8.131 18.77-12.196 29.43-12.196 10.639 0 21.294 4.065 29.43 12.196 16.261 16.251 16.261 42.614 0 58.86z" />
<glyph unicode="&#xe93c;" glyph-name="quote-1" d="M200.547 204.806c-42.667 46.934-68.267 98.134-68.267 183.468 0 149.332 106.666 281.6 256 349.866l38.4-55.466c-140.8-76.8-170.666-174.934-179.2-238.934 21.334 12.8 51.2 17.066 81.066 12.8 76.8-8.534 136.534-68.266 136.534-149.334 0-38.4-17.068-76.8-42.668-106.666-29.866-29.866-63.998-42.666-106.666-42.666-46.932 0-89.6 21.332-115.2 46.932zM627.214 204.806c-42.668 46.934-68.268 98.134-68.268 183.468 0 149.332 106.668 281.6 256 349.866l38.4-55.466c-140.8-76.8-170.666-174.934-179.2-238.934 21.334 12.8 51.2 17.066 81.068 12.8 76.8-8.534 136.532-68.266 136.532-149.334 0-38.4-17.066-76.8-42.666-106.666s-64-42.666-106.668-42.666c-46.932 0-89.598 21.332-115.198 46.932z" />
<glyph unicode="&#xe93d;" glyph-name="Vector4" horiz-adv-x="768" d="M363.114 960c-53.043 0-103.914-21.071-141.421-58.579s-58.579-88.378-58.579-141.421v-33.333h-27.666c-28.063 0.029-55.056-10.766-75.36-30.138s-32.353-45.829-33.641-73.862l-26.333-548.333c-0.675-14.746 1.643-29.474 6.813-43.298 5.171-13.828 13.087-26.462 23.272-37.146s22.428-19.191 35.99-25.020c13.563-5.824 28.164-8.841 42.925-8.87h507.999c14.763 0.030 29.363 3.046 42.927 8.87 13.559 5.828 25.805 14.336 35.989 25.020s18.099 23.317 23.27 37.146c5.171 13.824 7.488 28.553 6.814 43.298l-26.334 548.333c-1.289 28.033-13.338 54.49-33.638 73.862-20.305 19.372-47.296 30.167-75.362 30.138h-27.665v33.333c0 53.043-21.073 103.914-58.577 141.421-37.508 37.507-88.38 58.579-141.423 58.579zM229.781 760c0 35.362 14.048 69.276 39.052 94.281s58.919 39.052 94.281 39.052c35.363 0 69.278-14.048 94.281-39.052 25.007-25.005 39.053-58.919 39.053-94.281v-33.333h-266.667v33.333zM633.114 619.667l26.334-548.665c0.209-5.734-0.713-11.452-2.714-16.828-2.005-5.376-5.043-10.308-8.951-14.507-3.994-4.096-8.759-7.36-14.025-9.591s-10.923-3.392-16.644-3.409h-507.999c-5.719 0.017-11.377 1.178-16.643 3.409s-10.033 5.495-14.023 9.591c-3.908 4.198-6.949 9.131-8.951 14.507s-2.925 11.093-2.716 16.828l26.333 548.665c0.515 10.877 5.201 21.138 13.085 28.649s18.359 11.696 29.249 11.684h455.332c10.893 0.012 21.367-4.172 29.248-11.684 7.885-7.511 12.574-17.772 13.086-28.649z" />
<glyph unicode="&#xe93e;" glyph-name="Check" horiz-adv-x="1210" d="M515.891-36.333c-3.421 0-6.806 0.707-9.94 2.085-3.134 1.368-5.951 3.37-8.273 5.883l-491.088 531.218c-3.274 3.542-5.444 7.961-6.245 12.716s-0.199 9.642 1.734 14.060c1.933 4.419 5.112 8.178 9.148 10.818s8.754 4.047 13.577 4.047h236.383c3.549-0.001 7.056-0.762 10.287-2.234s6.106-3.618 8.436-6.296l164.123-188.818c17.738 37.915 52.073 101.046 112.327 177.973 89.077 113.727 254.763 280.983 538.232 431.97 5.483 2.918 11.85 3.675 17.864 2.122s11.217-5.302 14.597-10.509c3.379-5.206 4.692-11.491 3.658-17.613-1.024-6.122-4.31-11.636-9.207-15.453-1.080-0.846-110.378-86.915-236.163-244.568-115.766-145.078-269.655-382.305-345.379-688.561-1.33-5.381-4.424-10.156-8.788-13.573s-9.747-5.278-15.289-5.278l0.007 0.009z" />
<glyph unicode="&#xe93f;" glyph-name="edit-1" horiz-adv-x="1081" d="M991.556 316.735c-14.086 0-25.503-11.418-25.503-25.503v-226.435c-0.051-42.24-34.27-76.47-76.51-76.51h-715.584c-42.239 0.040-76.459 34.27-76.509 76.51v664.578c0.050 42.229 34.27 76.459 76.509 76.509h226.438c14.086 0 25.503 11.416 25.503 25.503 0 14.076-11.416 25.503-25.503 25.503h-226.438c-70.392-0.080-127.435-57.123-127.514-127.515v-664.589c0.080-70.394 57.122-127.437 127.514-127.516h715.584c70.394 0.080 127.437 57.122 127.516 127.516v226.446c0 14.086-11.418 25.503-25.503 25.503zM1007.041 922.497c-44.817 44.819-117.481 44.819-162.304 0l-454.985-454.988c-3.119-3.118-5.37-6.984-6.545-11.228l-59.832-216.005c-2.461-8.858 0.040-18.341 6.535-24.849 6.505-6.491 15.989-8.994 24.846-6.542l216.005 59.841c4.244 1.178 8.112 3.425 11.23 6.542l454.98 455c44.749 44.849 44.749 117.453 0 162.302l-29.929 29.926zM445.321 450.932l372.372 372.382 120.092-120.093-372.381-372.384-120.083 120.095zM421.332 402.795l95.945-95.953-132.715-36.773 36.77 132.726zM1000.903 766.331l-27.045-27.047-120.104 120.103 27.056 27.047c24.895 24.895 65.263 24.895 90.158 0l29.935-29.926c24.86-24.925 24.86-65.261 0-90.177z" />
<glyph unicode="&#xe940;" glyph-name="Group-21081" horiz-adv-x="1483" d="M17.131 362.086l319.926-4.025-219.612-395.921 319.927-4.029 219.613 395.921 9.488 597.911-639.851 8.057-9.49-597.914zM840.001 951.241l-9.491-597.912 319.926-4.029-219.613-395.921 319.926-4.029 219.613 395.921 9.491 597.913-639.852 8.057z" />
<glyph unicode="&#xe941;" glyph-name="Group2" horiz-adv-x="1344" d="M1225.581 928h-1066.663c-58.83 0-106.668-47.837-106.668-106.668v-746.67c0-58.822 47.838-106.662 106.668-106.662h1066.669c58.822 0 106.662 47.84 106.662 106.669v746.664c0 58.83-47.84 106.668-106.669 106.668zM158.918 874.668h1066.669c3.93 0 7.392-1.432 11.078-2.243-92.346-84.518-398.56-364.648-505.715-461.195-8.384-7.553-21.901-16.563-38.701-16.563-16.794 0-30.31 9.010-38.72 16.588-107.149 96.532-413.377 376.678-505.709 461.165 3.695 0.81 7.165 2.248 11.098 2.248zM105.583 74.669v746.664c0 5.225 1.575 9.965 2.985 14.74 70.68-64.69 284.34-260.15 422.88-386.132-138.090-118.618-351.805-321.236-423.048-389.172-1.258 4.538-2.817 8.966-2.817 13.901zM1225.581 21.331h-1066.663c-4.26 0-8.048 1.485-12.025 2.438 73.617 70.176 288.692 273.965 424.355 390.020 17.685-16.043 33.84-30.67 46.575-42.145 21.98-19.844 47.707-30.312 74.427-30.312s52.448 10.47 74.4 30.287c12.742 11.48 28.909 26.12 46.605 42.17 135.667-116.043 350.714-319.812 424.352-390.020-3.974-0.954-7.757-2.438-12.026-2.438zM1278.918 74.669c0-4.928-1.562-9.363-2.816-13.901-71.27 67.968-284.96 270.567-423.046 389.169 138.541 125.983 352.173 321.425 422.874 386.14 1.414-4.775 2.989-9.517 2.989-14.742v-746.666z" />
<glyph unicode="&#xe942;" glyph-name="user-1-1" horiz-adv-x="1078" d="M548.745 466.734c67.767 0 126.437 24.305 174.393 72.258 47.934 47.945 72.246 106.61 72.246 174.383 0 67.75-24.301 126.422-72.257 174.383-47.95 47.937-106.625 72.242-174.382 72.242-67.773 0-126.437-24.305-174.382-72.25s-72.258-106.617-72.258-174.375c0-67.773 24.312-126.445 72.258-174.39 47.961-47.938 106.633-72.25 174.382-72.25zM416.8 845.32c36.789 36.789 79.945 54.672 131.945 54.672 51.992 0 95.157-17.883 131.956-54.672 36.789-36.797 54.676-79.961 54.676-131.945 0-52-17.888-95.156-54.676-131.953-36.799-36.797-79.964-54.679-131.956-54.679-51.984 0-95.14 17.89-131.945 54.679-36.797 36.789-54.688 79.953-54.688 131.953 0 51.984 17.891 95.148 54.688 131.945zM980.259 172.593c-1.385 19.957-4.182 41.72-8.3 64.706-4.155 23.153-9.507 45.045-15.91 65.056-6.629 20.679-15.619 41.1-26.753 60.669-11.539 20.313-25.099 38.001-40.319 52.553-15.915 15.229-35.398 27.471-57.931 36.401-22.453 8.882-47.336 13.383-73.954 13.383-10.45 0-20.561-4.289-40.082-17-12.019-7.836-26.074-16.898-41.758-26.922-13.414-8.546-31.588-16.554-54.035-23.803-21.897-7.087-44.134-10.682-66.086-10.682-21.937 0-44.171 3.595-66.085 10.682-22.422 7.243-40.602 15.247-53.992 23.796-15.539 9.93-29.601 18.992-41.796 26.938-19.508 12.711-29.617 17-40.071 17-26.625 0-51.5-4.508-73.945-13.399-22.516-8.914-42.008-21.156-57.937-36.398-15.219-14.562-28.781-32.24-40.313-52.547-11.117-19.569-20.117-39.985-26.742-60.68-6.398-20.006-11.75-41.892-15.906-65.046-4.125-22.954-6.914-44.727-8.297-64.728-1.359-19.553-2.047-39.904-2.047-60.47 0-53.453 16.992-96.725 50.5-128.641 33.094-31.491 76.875-47.46 130.133-47.46h493.062c53.243 0 97.021 15.969 130.123 47.46 33.517 31.895 50.51 75.183 50.51 128.652-0.011 20.631-0.706 40.982-2.070 60.481zM890.443 26.937c-21.865-20.809-50.898-30.93-88.754-30.93h-493.057c-37.868 0-66.898 10.121-88.758 30.925-21.445 20.415-31.867 48.279-31.867 85.17 0 19.192 0.633 38.136 1.898 56.32 1.234 17.845 3.758 37.446 7.5 58.276 3.696 20.572 8.398 39.877 13.992 57.349 5.367 16.761 12.687 33.355 21.766 49.335 8.664 15.236 18.632 28.306 29.632 38.837 10.289 9.852 23.258 17.915 38.539 23.962 14.133 5.594 30.016 8.655 47.258 9.119 2.101-1.116 5.844-3.25 11.906-7.206 12.336-8.036 26.555-17.209 42.274-27.249 17.718-11.296 40.547-21.499 67.82-30.305 27.883-9.017 56.321-13.592 84.549-13.592 28.225 0 56.67 4.576 84.539 13.587 27.292 8.817 50.117 19.014 67.859 30.327 16.082 10.283 29.906 19.187 42.243 27.233 6.058 3.945 9.803 6.090 11.905 7.206 17.246-0.463 33.129-3.525 47.271-9.119 15.274-6.047 28.241-14.115 38.535-23.962 11-10.52 20.965-23.59 29.631-38.842 9.087-15.974 16.411-32.579 21.773-49.319 5.6-17.5 10.31-36.799 13.996-57.355 3.735-20.868 6.268-40.475 7.502-58.287v-0.016c1.272-18.119 1.913-37.053 1.924-56.298-0.011-36.896-10.434-64.755-31.879-85.164z" />
<glyph unicode="&#xe943;" glyph-name="Vector3" d="M1024 600.176l-372.078 23.379-140.126 336.445-140.126-336.445-371.67-23.379 285.068-231.335-93.544-350.921 320.272 193.479 320.274-193.479-93.544 350.921 285.474 231.335z" />
<glyph unicode="&#xe944;" glyph-name="12" horiz-adv-x="1331" d="M1314.396 838.6c-35.727-52.266-78.93-96.8-129.597-133.599 0.532-7.467 0.799-18.668 0.799-33.601 0-69.333-10.127-138.667-30.392-208-20.275-68.799-51.2-134.934-92.805-198.4-41.066-63.466-90.134-119.733-147.2-168.8-57.066-48.534-125.867-87.466-206.399-116.799-80.534-28.8-166.667-43.201-258.4-43.201-144.534 0-276.801 38.667-396.8 116.001 18.667-2.134 39.467-3.2 62.4-3.2 120.001 0 226.934 36.799 320.801 110.399-56.001 1.067-106.134 18.133-150.4 51.2-44.268 33.601-74.667 76.266-91.201 128 17.601-2.666 33.867-4 48.8-4 22.934 0 45.601 2.933 68.001 8.8-59.734 12.266-109.334 41.866-148.801 88.799-38.934 47.468-58.4 102.4-58.4 164.801v3.2c36.266-20.267 75.199-31.2 116.799-32.8-35.2 23.466-63.199 54.133-84 91.999-20.799 37.868-31.2 78.934-31.2 123.201 0 46.933 11.734 90.4 35.2 130.4 64.534-79.467 142.934-143.2 235.201-191.2 92.8-47.466 192-73.867 297.6-79.2-4.267 20.267-6.4 40.001-6.4 59.201 0 71.466 25.066 132.266 75.199 182.4 50.666 50.667 111.734 76 183.201 76 74.666 0 137.597-27.2 188.797-81.6 58.132 11.2 112.804 32 164.004 62.4-19.732-61.333-57.6-108.8-113.603-142.4 49.603 5.333 99.205 18.666 148.797 39.999z" />
<glyph unicode="&#xe945;" glyph-name="11" d="M608.838 352.304c30.476 30.476 45.714 67.251 45.714 110.324s-15.238 79.847-45.714 110.324c-30.476 30.476-67.251 45.714-110.324 45.714s-79.848-15.238-110.324-45.714c-30.476-30.476-45.714-67.251-45.714-110.324s15.238-79.848 45.714-110.324c30.476-30.476 67.251-45.714 110.324-45.714s79.847 15.238 110.324 45.714zM668.572 632.686c46.733-46.731 70.094-103.416 70.094-170.057s-23.361-123.327-70.094-170.058c-46.731-46.729-103.416-70.097-170.057-70.097s-123.327 23.368-170.058 70.097c-46.73 46.731-70.095 103.416-70.095 170.058s23.365 123.326 70.095 170.057c46.731 46.73 103.416 70.095 170.058 70.095s123.326-23.365 170.057-70.095zM788.036 752.153c10.97-10.972 16.459-24.178 16.459-39.619s-5.489-28.647-16.459-39.619c-10.97-10.971-24.173-16.457-39.615-16.457s-28.652 5.486-39.622 16.457c-10.97 10.972-16.459 24.178-16.459 39.619s5.489 28.647 16.459 39.619c10.97 10.971 24.18 16.457 39.622 16.457s28.645-5.486 39.615-16.457zM544.838 846.629c-28.038 0-43.48 0-46.324 0s-18.489 0-46.933 0c-28.038 0.406-49.372 0.406-64 0-14.629 0-34.337-0.61-59.124-1.829-24.381-0.812-45.308-2.845-62.781-6.095-17.067-2.845-31.492-6.502-43.276-10.972-20.318-8.127-38.197-19.911-53.638-35.353s-27.225-33.32-35.353-53.638c-4.47-11.784-8.33-26.413-11.581-43.886-2.845-17.067-4.876-37.994-6.096-62.781-0.812-24.381-1.422-43.886-1.828-58.514 0-14.629 0-36.166 0-64.61 0.406-28.038 0.61-43.48 0.61-46.324s-0.203-18.489-0.61-46.933c0-28.038 0-49.372 0-64 0.406-14.629 1.016-34.337 1.828-59.124 1.219-24.379 3.251-45.309 6.096-62.779 3.251-17.067 7.111-31.491 11.581-43.281 8.127-20.316 19.911-38.195 35.353-53.637s33.32-27.225 53.638-35.348c11.784-4.471 26.21-8.335 43.276-11.585 17.473-2.84 38.4-4.874 62.781-6.096 24.788-0.812 44.496-1.42 59.124-1.823 14.628 0 35.962 0 64 0 28.444 0.403 44.089 0.608 46.933 0.608s18.285-0.205 46.324-0.608c28.444 0 49.981 0 64.61 0 14.628 0.403 34.133 1.010 58.514 1.823 24.788 1.222 45.711 3.256 62.778 6.096 17.476 3.249 32.106 7.113 43.889 11.585 20.316 8.124 38.195 19.907 53.637 35.348s27.225 33.321 35.355 53.637c4.465 11.79 8.124 26.214 10.97 43.281 3.249 17.469 5.284 38.4 6.096 62.779 1.215 24.788 1.83 44.496 1.83 59.124 0.403 14.628 0.403 35.962 0 64 0 28.444 0 44.089 0 46.933s0 18.285 0 46.324c0.403 28.444 0.403 49.981 0 64.61 0 14.628-0.614 34.133-1.83 58.514-0.812 24.787-2.847 45.714-6.096 62.781-2.847 17.473-6.506 32.102-10.97 43.886-8.131 20.318-19.913 38.197-35.355 53.638s-33.321 27.225-53.637 35.353c-11.783 4.47-26.412 8.127-43.889 10.972-17.067 3.25-37.99 5.282-62.778 6.095-24.381 1.219-43.886 1.829-58.514 1.829-14.629 0.406-36.166 0.406-64.61 0zM963.584 655.847c2.028-35.759 3.045-100.165 3.045-193.219s-1.017-157.46-3.045-193.221c-4.069-84.521-29.259-149.941-75.585-196.267-46.326-46.319-111.746-71.516-196.267-75.578-35.758-2.034-100.164-3.052-193.218-3.052s-157.46 1.017-193.219 3.052c-84.521 4.062-149.943 29.259-196.267 75.578-46.324 46.326-71.518 111.746-75.581 196.267-2.032 35.761-3.048 100.167-3.048 193.221s1.016 157.46 3.048 193.219c4.064 84.521 29.257 149.943 75.581 196.267s111.746 71.518 196.267 75.581c35.759 2.032 100.165 3.048 193.219 3.048s157.46-1.016 193.218-3.048c84.521-4.063 149.941-29.257 196.267-75.581s71.516-111.746 75.585-196.267z" />
<glyph unicode="&#xe946;" glyph-name="581419696" horiz-adv-x="1384" d="M440.193 440.278c2.989 0 5.972-0.822 8.555-2.494 4.89-3.105 7.603-8.627 7.005-14.306-8.552-82.731-30.524-159.835-65.315-229.191-30.745-61.257-70.994-115.031-120.233-160.738 240.357 125.57 338.182 393.482 305.184 609.933-20.724 135.868-103.366 281.076-273.164 281.076-146.548 0.001-265.803-116.544-265.803-259.791 0.002-143.219 119.254-259.764 265.803-259.764 45.681 0 90.71 11.519 130.28 33.31 2.388 1.326 5.051 1.962 7.688 1.962v0zM168.606-39.275c-6.004 0-11.653 3.396-14.26 8.942-3.232 6.98-0.706 15.235 5.948 19.323 180.253 110.202 242.122 278.528 260.917 409.697-37.346-15.922-77.946-24.258-118.983-24.258-163.822 0-297.092 130.267-297.092 290.34 0.003 160.1 133.269 290.365 297.092 290.365 81.748 0.002 153.611-31.212 207.817-90.241 49.595-53.984 82.891-128.993 96.278-216.926 39.438-258.541-98.993-587.051-433.153-686.584-1.521-0.448-3.070-0.661-4.562-0.661l-0.001 0.003zM1199.085 440.278c2.986 0 5.972-0.822 8.582-2.494 4.888-3.105 7.575-8.627 7.005-14.306-8.555-82.731-30.551-159.835-65.342-229.191-30.742-61.257-70.966-115.031-120.207-160.738 240.305 125.57 338.155 393.482 305.155 609.933-20.718 135.868-103.338 281.076-273.134 281.076-146.576 0.001-265.803-116.545-265.803-259.791 0-143.219 119.227-259.764 265.803-259.764 45.657 0 90.71 11.519 130.283 33.31 2.391 1.326 5.023 1.962 7.658 1.962v0zM927.495-39.277c-6 0-11.649 3.396-14.231 8.945-3.257 6.98-0.706 15.235 5.923 19.32 180.282 110.205 242.121 278.531 260.912 409.7-37.34-15.922-77.918-24.258-118.956-24.258-163.821 0-297.090 130.267-297.090 290.34 0.003 160.1 133.269 290.365 297.090 290.365 81.721 0.002 153.583-31.212 207.792-90.241 49.595-53.984 82.889-128.993 96.306-216.898 39.407-258.568-99.021-587.079-433.182-686.611-1.519-0.448-3.042-0.661-4.564-0.661v0z" />
<glyph unicode="&#xe947;" glyph-name="03" d="M2.432 686.933h231.069v-750.933h-231.069v750.933zM707.801 686.933c-11.351 0-22.702-0.711-34.052-2.133-9.73-1.423-19.459-3.556-29.188-6.4s-17.836-5.689-24.323-8.533c-6.486-1.423-14.594-4.977-24.323-10.667-9.729-4.267-16.215-7.111-19.459-8.533-1.621-1.423-7.297-5.689-17.026-12.8s-14.594-10.667-14.594-10.667v59.733h-231.069v-750.933h231.069v473.6c0 1.423 0 4.267 0 8.533s1.621 12.089 4.865 23.467c4.864 11.377 10.54 20.623 17.026 27.733 8.108 8.533 20.269 16.356 36.484 23.467 17.837 7.111 38.106 10.667 60.808 10.667 38.917 0 67.294-8.533 85.131-25.6 19.459-17.067 29.187-39.823 29.187-68.267v-473.6h245.663v465.067c0 49.777-8.917 92.444-26.752 128-17.843 36.977-38.921 64.711-63.241 83.2-22.707 19.911-50.27 35.556-82.701 46.933-30.81 12.8-57.565 20.623-80.266 23.467-21.080 2.844-42.16 4.267-63.24 4.267zM34.052 930.133c-22.701-19.911-34.052-44.089-34.052-72.533s11.351-52.623 34.052-72.533c22.701-19.911 50.268-29.867 82.698-29.867s59.997 9.956 82.698 29.867c22.702 19.911 34.052 44.089 34.052 72.533s-11.35 52.622-34.052 72.533c-22.701 19.911-50.267 29.867-82.698 29.867s-59.997-9.956-82.698-29.867z" />
<glyph unicode="&#xe948;" glyph-name="Arrow-1" horiz-adv-x="4551" d="M4443.227 423.773c22.209 22.217 22.209 58.237 0 80.453l-362.041 362.039c-22.221 22.216-58.243 22.216-80.452 0-22.221-22.216-22.221-58.236 0-80.454l321.809-321.811-321.809-321.812c-22.221-22.216-22.221-58.236 0-80.453 22.209-22.216 58.231-22.216 80.452 0l362.041 362.039zM91.417 407.111l4311.579 0.001v113.778l-4311.579-0.001v-113.778z" />
<glyph unicode="&#xe94a;" glyph-name="gasoline-pump-1" horiz-adv-x="1073" d="M645.842 754.258c0 17.111-14.209 30.98-31.734 30.98h-317.327c-17.526 0-31.733-13.869-31.733-30.98v-247.836c0-17.111 14.206-30.98 31.733-30.98h317.327c17.525 0 31.734 13.869 31.734 30.98v247.836zM582.373 537.402h-253.86v185.877h253.86v-185.877zM1009.864 720.473l-126.552 61.959c-15.711 7.685-34.548 1.437-42.389-13.856-7.841-15.307-1.39-33.915 14.287-41.569l48.196-23.504c-1.287-3.369-2.955-6.932-2.955-10.744 0-40.335 30.998-74.401 62.732-87.229v-377.466c0-17.076-14.243-30.978-31.734-30.978s-31.734 13.902-31.734 30.978v247.838c0 74.798-63.464 137.373-126.927 151.767v189.008c0 68.328-55.428 123.465-125.416 123.465h-380.794c-69.988 0-128.446-55.138-128.446-123.465v-693.378l-45.925-22.416c-10.753-5.252-17.54-15.974-17.54-27.716v-92.94c0-17.106 15.724-31.432 33.248-31.432h698.12c17.525 0 30.218 14.326 30.218 31.432v92.94c0 11.742-6.788 22.465-17.54 27.716l-45.924 22.416v439.832c31.729-12.827 63.464-46.893 63.464-87.229v-247.838c0-51.249 42.701-92.935 95.198-92.935s95.198 41.687 95.198 92.935v464.695c0 11.739-6.027 22.464-16.784 27.713zM772.788 10.757h-634.656v43.262l45.925 22.416c10.753 5.252 17.541 15.974 17.541 27.716v712.529c0 34.17 29.977 61.504 64.981 61.504h380.794c35.001 0 61.947-27.334 61.947-61.506v-712.532c0-11.737 6.788-22.465 17.54-27.711l45.929-22.416v-43.262z" />
<glyph unicode="&#xe94b;" glyph-name="gearbox-1" horiz-adv-x="1071" d="M188.274 854.182c-64.534 0-116.91-51.133-116.91-114.135s52.376-114.136 116.91-114.136c64.534 0 116.91 51.133 116.91 114.136s-52.376 114.135-116.91 114.135zM188.274 791.926c29.334 0 53.141-23.242 53.141-51.88s-23.807-51.88-53.141-51.88c-29.333 0-53.141 23.242-53.141 51.88s23.808 51.88 53.141 51.88zM188.274 273.091c-64.534 0-116.91-51.135-116.91-114.134 0-63.004 52.376-114.139 116.91-114.139s116.91 51.135 116.91 114.139c0 62.999-52.376 114.134-116.91 114.134zM188.274 210.837c29.334 0 53.141-23.245 53.141-51.88 0-28.639-23.807-51.88-53.141-51.88s-53.141 23.24-53.141 51.88c0 28.635 23.808 51.88 53.141 51.88zM528.454 854.182c-64.532 0-116.908-51.133-116.908-114.135s52.376-114.136 116.908-114.136c64.535 0 116.913 51.133 116.913 114.136s-52.378 114.135-116.913 114.135zM528.454 791.926c29.338 0 53.141-23.242 53.141-51.88s-23.803-51.88-53.141-51.88c-29.333 0-53.141 23.242-53.141 51.88s23.808 51.88 53.141 51.88zM528.454 273.091c-64.532 0-116.908-51.135-116.908-114.134 0-63.004 52.376-114.139 116.908-114.139 64.535 0 116.913 51.135 116.913 114.139 0 62.999-52.378 114.134-116.913 114.134zM528.454 210.837c29.338 0 53.141-23.245 53.141-51.88 0-28.639-23.803-51.88-53.141-51.88-29.333 0-53.141 23.24-53.141 51.88 0 28.635 23.808 51.88 53.141 51.88zM868.454 854.182c-64.535 0-116.908-51.133-116.908-114.135s52.373-114.136 116.908-114.136c64.535 0 116.913 51.133 116.913 114.136s-52.378 114.135-116.913 114.135zM868.454 791.926c29.333 0 53.141-23.242 53.141-51.88s-23.808-51.88-53.141-51.88c-29.333 0-53.141 23.242-53.141 51.88s23.808 51.88 53.141 51.88zM868.454 273.091c-64.535 0-116.908-51.135-116.908-114.134 0-63.004 52.373-114.139 116.908-114.139s116.913 51.135 116.913 114.139c0 62.999-52.378 114.134-116.913 114.134zM868.454 210.837c29.333 0 53.141-23.245 53.141-51.88 0-28.639-23.808-51.88-53.141-51.88s-53.141 23.24-53.141 51.88c0 28.635 23.808 51.88 53.141 51.88zM156.455 657.009v-415.037c0-17.185 14.284-31.13 31.885-31.13s31.885 13.945 31.885 31.13v415.037c0 17.182-14.284 31.128-31.885 31.128s-31.885-13.945-31.885-31.128zM496.454 657.009v-415.037c0-17.185 14.285-31.13 31.884-31.13 17.603 0 31.888 13.945 31.888 31.13v415.037c0 17.182-14.285 31.128-31.888 31.128-17.599 0-31.884-13.945-31.884-31.128zM836.659 657.009v-166.015c0-5.73-4.762-10.375-10.631-10.375h-637.689c-17.6 0-31.885-13.945-31.885-31.13 0-17.18 14.284-31.125 31.885-31.125h637.689c41.114 0 74.398 32.535 74.398 72.63 0 60.554 0 166.015 0 166.015 0 17.182-14.285 31.128-31.884 31.128s-31.884-13.945-31.884-31.128z" />
</font>
</defs>
</svg>
