<svg width="26" height="26" viewBox="0 0 26 26" fill="none" xmlns="http://www.w3.org/2000/svg">
<g clip-path="url(#clip0_769_611)">
<path d="M15.4517 6.46855C16.6076 7.19331 17.4181 8.41976 17.5657 9.84338C18.0371 10.0636 18.5604 10.1903 19.1151 10.1903C21.1402 10.1903 22.7816 8.54892 22.7816 6.52409C22.7816 4.49894 21.1402 2.85754 19.1151 2.85754C17.1093 2.85817 15.4822 4.47024 15.4517 6.46855ZM13.0496 13.9757C15.0748 13.9757 16.7162 12.334 16.7162 10.3092C16.7162 8.28435 15.0745 6.64296 13.0496 6.64296C11.0248 6.64296 9.38246 8.28466 9.38246 10.3095C9.38246 12.3343 11.0248 13.9757 13.0496 13.9757ZM14.6049 14.2256H11.4937C8.90511 14.2256 6.79915 16.3319 6.79915 18.9205V22.7253L6.80883 22.7849L7.0709 22.8669C9.54126 23.6388 11.6875 23.8962 13.454 23.8962C16.9043 23.8962 18.9042 22.9125 19.0274 22.8497L19.2723 22.7259H19.2985V18.9205C19.2995 16.3319 17.1935 14.2256 14.6049 14.2256ZM20.671 10.4405H17.5838C17.5504 11.6757 17.0232 12.788 16.1892 13.5879C18.4902 14.2721 20.1737 16.4058 20.1737 18.9261V20.0986C23.2218 19.9869 24.9784 19.123 25.0941 19.065L25.339 18.9408H25.3652V15.1348C25.3652 12.5465 23.2593 10.4405 20.671 10.4405ZM6.61601 10.1909C7.33329 10.1909 8.00064 9.98159 8.56597 9.62498C8.74568 8.45283 9.37403 7.42855 10.2716 6.73094C10.2754 6.6623 10.2819 6.59428 10.2819 6.52502C10.2819 4.49988 8.64023 2.85848 6.61601 2.85848C4.59056 2.85848 2.94947 4.49988 2.94947 6.52502C2.94947 8.54923 4.59056 10.1909 6.61601 10.1909ZM9.90879 13.5879C9.07889 12.792 8.55349 11.6857 8.51512 10.458C8.40061 10.4496 8.28736 10.4405 8.17068 10.4405H5.05979C2.47119 10.4405 0.365234 12.5465 0.365234 15.1348V18.9402L0.374906 18.9988L0.63698 19.0815C2.61876 19.7002 4.38745 19.9853 5.9237 20.0752V18.9261C5.92433 16.4058 7.60722 14.2727 9.90879 13.5879Z" fill="white"/>
</g>
<defs>
<clipPath id="clip0_769_611">
<rect width="25" height="25" fill="white" transform="translate(0.365234 0.877014)"/>
</clipPath>
</defs>
</svg>
