<svg width="24" height="24" viewBox="0 0 24 24" fill="none" xmlns="http://www.w3.org/2000/svg">
<g clip-path="url(#clip0_91_346)">
<path d="M8.24914 21.4677V23.2693H7.01058C6.80887 23.2693 6.64522 23.4329 6.64522 23.6346C6.64522 23.8363 6.80887 24 7.01058 24H16.9933C17.195 24 17.3586 23.8363 17.3586 23.6346C17.3586 23.4329 17.195 23.2693 16.9933 23.2693H15.7547V21.4677H19.9673C21.7589 21.4677 23.2165 20.0082 23.2165 18.2137V7.42802C23.2165 5.63357 21.7589 4.17404 19.9673 4.17404H19.4266C19.4265 3.92681 19.4258 1.23501 19.4259 1.38722C19.4259 0.62225 18.8036 0 18.0389 0H6.11716C5.35243 0 4.73018 0.62225 4.73018 1.38723C4.73016 1.43725 4.72945 4.22406 4.72946 4.17404H4.03775C2.24331 4.17404 0.783539 5.63357 0.783539 7.42802V18.2137C0.783539 20.0082 2.24331 21.4677 4.03775 21.4677H8.24914ZM15.024 23.2693H8.97985V21.4677H15.024V23.2693ZM4.60268 16.8741C3.89884 16.8741 3.3263 16.3013 3.3263 15.5977V7.98842C3.3263 7.28482 3.89884 6.71205 4.60268 6.71205H4.72946V16.8741H4.60268ZM5.46018 3.97899H18.6959V16.8741H5.46018C5.46018 16.6582 5.46018 3.3087 5.46018 3.97899ZM19.4266 6.71205C20.119 6.72537 20.6785 7.29291 20.6785 7.98842V15.5977C20.6785 16.2932 20.119 16.8608 19.4266 16.8741V6.71205ZM5.46089 1.38723C5.46089 1.0252 5.75537 0.73072 6.11716 0.73072H18.0389C18.4007 0.73072 18.6952 1.0252 18.6952 1.38723V3.24732H5.46089V1.38723ZM1.51425 18.2137V7.42802C1.51425 6.03651 2.64625 4.90476 4.03775 4.90476H4.72946V5.98133H4.60268C3.4959 5.98133 2.59559 6.88188 2.59559 7.98842V15.5977C2.59559 16.7042 3.4959 17.6048 4.60268 17.6048H19.4021C20.5089 17.6048 21.4092 16.7042 21.4092 15.5977V7.98842C21.4092 6.89026 20.5219 5.99733 19.4266 5.98383V4.90476H19.9673C21.3559 4.90476 22.4858 6.03651 22.4858 7.42802V18.2137C22.4858 19.6052 21.3559 20.737 19.9673 20.737C19.5594 20.7348 4.30166 20.7369 4.03775 20.737C2.64625 20.737 1.51425 19.6052 1.51425 18.2137Z" fill="white"/>
<path d="M12.0019 20.1662C12.5497 20.1662 12.9952 19.7191 12.9952 19.1696C12.9952 18.622 12.5497 18.1763 12.0019 18.1763C11.4541 18.1763 11.0086 18.622 11.0086 19.1696C11.0086 19.7191 11.4541 20.1662 12.0019 20.1662ZM12.0019 18.907C12.1468 18.907 12.2645 19.025 12.2645 19.1696C12.2645 19.3161 12.1468 19.4355 12.0019 19.4355C11.8571 19.4355 11.7393 19.3161 11.7393 19.1696C11.7393 19.025 11.8571 18.907 12.0019 18.907Z" fill="white"/>
<path d="M7.13046 1.62378H6.71372C6.51201 1.62378 6.34836 1.78743 6.34836 1.98914C6.34836 2.19085 6.51201 2.3545 6.71372 2.3545H7.13046C7.33217 2.3545 7.49582 2.19085 7.49582 1.98914C7.49582 1.78743 7.33216 1.62378 7.13046 1.62378Z" fill="white"/>
<path d="M8.81216 1.62378H8.39542C8.19371 1.62378 8.03006 1.78743 8.03006 1.98914C8.03006 2.19085 8.19371 2.3545 8.39542 2.3545H8.81216C9.01387 2.3545 9.17752 2.19085 9.17752 1.98914C9.17752 1.78743 9.01387 1.62378 8.81216 1.62378Z" fill="white"/>
<path d="M10.4936 1.62378H10.0769C9.87517 1.62378 9.71152 1.78743 9.71152 1.98914C9.71152 2.19085 9.87517 2.3545 10.0769 2.3545H10.4936C10.6953 2.3545 10.859 2.19085 10.859 1.98914C10.859 1.78743 10.6953 1.62378 10.4936 1.62378Z" fill="white"/>
<path d="M15.6177 7.90045C15.2875 7.33053 14.554 7.13358 13.9838 7.46278L13.274 7.87191V7.05366C13.274 6.40178 12.7546 5.85815 12.0783 5.85815C11.417 5.85815 10.879 6.3943 10.879 7.05366V7.87096L10.167 7.45945C9.58808 7.13881 8.85451 7.35479 8.53863 7.90045C8.2047 8.47854 8.40556 9.20984 8.97725 9.53553L9.68608 9.94418L8.97653 10.3533C8.40474 10.6845 8.20688 11.4164 8.53815 11.9903C8.86612 12.5598 9.59681 12.7593 10.173 12.4256L10.879 12.0174V12.8347C10.879 13.4772 11.403 14.034 12.0783 14.034C12.7376 14.034 13.274 13.496 13.274 12.8347V12.0164L13.9795 12.4232C14.5402 12.7565 15.2857 12.565 15.6179 11.9912C15.6182 11.9903 15.6187 11.9898 15.6191 11.9889C15.9452 11.4161 15.7483 10.6825 15.1791 10.3533L14.4702 9.94418L15.18 9.53505C15.7182 9.22315 15.964 8.5267 15.6177 7.90045ZM14.8142 8.90281L13.5564 9.62782C13.3132 9.76777 13.3122 10.12 13.5564 10.2605L14.8135 10.986C15.0354 11.1145 15.112 11.4013 14.9847 11.6264C14.8622 11.8366 14.5673 11.9223 14.3487 11.7929L13.0911 11.0679C12.8489 10.9268 12.5433 11.1032 12.5433 11.3842V12.8347C12.5433 13.093 12.3347 13.3033 12.0783 13.3033C11.8143 13.3033 11.6097 13.0819 11.6097 12.8347V11.3842C11.6097 11.1013 11.3026 10.928 11.0614 11.0679L9.80691 11.7929C9.58115 11.9243 9.29759 11.8453 9.17134 11.6249C9.03892 11.3975 9.12289 11.1134 9.34212 10.986L10.5999 10.2605C10.8424 10.121 10.8448 9.76878 10.5999 9.62782L9.3407 8.90186C9.11687 8.7741 9.04174 8.49021 9.1711 8.26676C9.29645 8.05078 9.57927 7.96943 9.80715 8.0955L11.0614 8.82051C11.3056 8.96212 11.6097 8.78383 11.6097 8.50415V7.05365C11.6097 6.79724 11.8199 6.58887 12.0783 6.58887C12.3502 6.58887 12.5433 6.80594 12.5433 7.05365V8.50415C12.5433 8.78398 12.8478 8.96219 13.0911 8.82051L14.3484 8.09597C14.5711 7.968 14.8568 8.04412 14.9816 8.2601C15.1217 8.51417 15.0262 8.77938 14.8142 8.90281Z" fill="white"/>
</g>
<defs>
<clipPath id="clip0_91_346">
<rect width="24" height="24" fill="white"/>
</clipPath>
</defs>
</svg>
