<svg width="34" height="34" viewBox="0 0 34 34" fill="none" xmlns="http://www.w3.org/2000/svg">
<g clip-path="url(#clip0_91_185)">
<path d="M15.1816 20.9983C17.2177 18.9622 17.2177 15.6476 15.1816 13.6108C13.1441 11.5734 9.83028 11.5741 7.79415 13.6108C5.75311 15.6519 5.75245 18.9579 7.79415 20.9983C9.83294 23.0384 13.1406 23.0393 15.1816 20.9983ZM8.50538 14.3221C10.1546 12.6742 12.8284 12.6814 14.4703 14.3221C16.1148 15.9672 16.1148 18.6426 14.4703 20.287C12.8236 21.9338 10.1534 21.935 8.50538 20.287C6.85701 18.6387 6.85739 15.9701 8.50538 14.3221Z" fill="#4753BF"/>
<path d="M32.3436 9.46459C30.9643 8.72464 29.2106 9.1256 28.3061 10.4404L26.8921 12.4877L26.8423 4.98563C26.8423 3.63082 25.7424 2.43669 24.2705 2.43669C23.6869 2.44063 23.1479 2.64103 22.7177 2.97504V2.90758C22.6989 1.26318 21.18 0.047444 19.5453 0.437899C18.4312 0.698551 17.6178 1.76803 17.5949 2.99665C16.9813 2.52314 16.1816 2.36007 15.3983 2.55982C14.2745 2.84536 13.4899 3.89781 13.4899 5.12184L13.4991 6.78009C13.0033 6.40548 12.4021 6.22603 11.7734 6.27449C10.4334 6.36356 9.39081 7.53979 9.39933 8.95244L9.40322 9.52336C8.04762 9.88373 6.80251 10.5874 5.78486 11.6055C3.3101 14.0803 2.76435 17.7624 4.22608 20.7936C2.83512 21.5385 1.52754 22.4637 0.993499 22.9971C-0.333946 24.3245 -0.330071 26.4689 0.998082 27.7957C2.31045 29.108 4.4586 29.133 5.7973 27.7943C6.32683 27.2612 7.25243 25.9534 8.00149 24.5619C9.39829 25.2313 10.9404 25.5106 12.629 25.2708C12.9156 25.4751 13.2117 25.6613 13.5198 25.8215C12.7089 26.0908 12.1202 26.8494 12.1244 27.7485L12.1362 31.6151C12.1415 32.7311 13.0511 33.6355 14.1664 33.6355H14.1763L25.5037 33.5825C26.6229 33.5766 27.5293 32.6617 27.5241 31.5437L27.5123 27.6778C27.5123 27.6771 27.5123 27.6771 27.5123 27.6765C27.5077 26.7085 26.8211 25.9013 25.9108 25.7044C27.4451 24.6964 28.4676 22.9027 29.8241 20.5215L33.6056 13.7333C34.4542 12.205 33.8875 10.2801 32.3436 9.46459ZM10.4079 9.31788L10.4053 8.9459C10.4 8.07944 11.0438 7.33087 11.8441 7.27783C12.7147 7.21066 13.3947 7.87247 13.4899 8.55295C13.4899 8.55442 13.4903 8.55606 13.4903 8.55753L13.4979 9.50462C12.5082 9.25352 11.5315 9.16786 10.4079 9.31788ZM7.12023 24.0816C6.42209 25.379 5.55302 26.6135 5.08475 27.0844C4.15147 28.0177 2.63988 28.015 1.70933 27.0844C0.775765 26.1508 0.769616 24.6434 1.70474 23.7083C2.17759 23.2361 3.41407 22.3657 4.71277 21.6715C5.00617 22.1229 5.38476 22.6003 5.78879 23.0036C5.78924 23.0041 5.78973 23.0044 5.79018 23.0049C5.79063 23.0053 5.79096 23.0058 5.7914 23.0062C6.31211 23.527 7.05313 24.0385 7.12023 24.0816ZM6.51115 22.3025C6.50804 22.2994 6.50464 22.2969 6.50158 22.2939C3.78341 19.5736 3.70098 15.1132 6.49609 12.3167C9.27207 9.54065 13.7668 9.60461 16.479 12.3167C19.1514 14.9888 19.2369 19.2733 16.6835 22.063C13.8736 25.1211 9.23598 25.019 6.51115 22.3025ZM26.5063 27.6804L26.5181 31.5476C26.5208 32.1115 26.063 32.5732 25.4984 32.5765L14.171 32.6296C14.1697 32.6296 14.1678 32.6296 14.1665 32.6296C13.6039 32.6296 13.1448 32.1731 13.1422 31.6112L13.1304 27.7446C13.1278 27.18 13.5849 26.7183 14.1501 26.7157L25.4775 26.6626H25.4821C26.0446 26.6626 26.5031 27.1185 26.5063 27.6804ZM32.7267 13.2447C32.7261 13.2447 32.7261 13.2447 32.7261 13.2454C32.34 13.9385 34.1246 10.7347 28.9505 20.0238C26.8161 23.7699 25.7473 25.6364 22.3594 25.6207L17.0088 25.6541C16.9983 25.6541 16.9878 25.6541 16.978 25.6541C15.9347 25.6541 14.9333 25.4144 14.0289 24.9533C15.1629 24.5799 16.4018 23.8436 17.3851 22.7847C20.3632 19.5917 20.2405 14.6526 17.1921 11.6042C16.5138 10.9269 15.528 10.2398 14.5067 9.82873C14.5057 9.37907 14.4954 4.92862 14.4959 5.11924C14.4959 4.35823 14.9687 3.70659 15.6459 3.53434C16.617 3.28725 17.5198 3.96119 17.5963 4.92375L17.6512 11.8347C17.6532 12.1111 17.8785 12.3338 18.1542 12.3338H18.1582C18.4358 12.3318 18.6592 12.1046 18.6572 11.8269C18.5968 2.52504 18.6007 3.11458 18.6002 3.04708C18.6002 2.26184 19.094 1.5768 19.7777 1.417C20.7765 1.17458 21.7007 1.91686 21.7117 2.91544C21.7907 15.1115 21.7634 10.9051 21.7693 11.8151C21.7713 12.0914 21.9959 12.3141 22.2723 12.3141H22.2762C22.5539 12.3122 22.7773 12.0849 22.7753 11.8072L22.7233 5.01321C22.7233 5.01035 22.7249 5.00806 22.7249 5.00527C22.7249 4.1493 23.421 3.44789 24.2737 3.44265C25.1637 3.44265 25.8364 4.16513 25.8364 4.9889L25.8934 13.6076C23.132 13.8626 20.9625 16.1896 20.9625 19.0165C20.9625 19.2942 21.1878 19.5195 21.4655 19.5195C21.7431 19.5195 21.9684 19.2942 21.9684 19.0165C21.9684 16.5743 23.9548 14.588 26.397 14.588C26.3981 14.588 26.399 14.5873 26.4001 14.5873C26.594 14.5881 26.765 14.4421 26.8135 14.3712L29.1345 11.0108C29.7246 10.1542 30.946 9.85755 31.8714 10.3527C32.9153 10.9031 33.3027 12.2054 32.7267 13.2447Z" fill="#4753BF"/>
<path d="M16.627 29.1428H15.492C15.2144 29.1428 14.9891 29.3681 14.9891 29.6458C14.9891 29.9235 15.2144 30.1488 15.492 30.1488H16.627C16.9047 30.1488 17.13 29.9235 17.13 29.6458C17.13 29.3681 16.9047 29.1428 16.627 29.1428Z" fill="#4753BF"/>
<path d="M10.5632 14.9004C10.5632 14.6227 10.3379 14.3974 10.0602 14.3974C9.09486 14.3974 8.30896 15.1826 8.30896 16.148C8.30896 16.4257 8.53425 16.651 8.81193 16.651C9.08961 16.651 9.31491 16.4257 9.31491 16.148C9.31491 15.7374 9.64957 15.4034 10.0602 15.4034C10.3379 15.4034 10.5632 15.1781 10.5632 14.9004Z" fill="#4753BF"/>
<path d="M13.1998 16.1277C13.5542 15.9234 14.0126 16.0439 14.2189 16.3995C14.358 16.6394 14.6668 16.7211 14.9066 16.5816C15.1463 16.4421 15.2281 16.1342 15.0886 15.8939C14.6033 15.0589 13.5312 14.774 12.6956 15.258C12.4552 15.3968 12.3733 15.7046 12.5128 15.945C12.651 16.1847 12.9588 16.2685 13.1998 16.1277Z" fill="#4753BF"/>
<path d="M12.1114 19.2975C12.389 19.2975 12.6143 19.0722 12.6143 18.7945C12.6143 18.5168 12.389 18.2915 12.1114 18.2915C11.146 18.2915 10.3608 19.0767 10.3608 20.0421C10.3608 20.3198 10.5861 20.5451 10.8638 20.5451C11.1414 20.5451 11.3667 20.3198 11.3667 20.0421C11.3667 19.6315 11.7007 19.2975 12.1114 19.2975Z" fill="#4753BF"/>
<path d="M11.8965 17.782C12.167 17.8381 12.4352 17.6662 12.4925 17.393C12.5495 17.1212 12.3753 16.854 12.1035 16.797C11.7003 16.7131 11.4422 16.319 11.5278 15.9155C11.5848 15.6437 11.4106 15.3772 11.1388 15.3195C10.8716 15.2639 10.6011 15.4361 10.5428 15.7085C10.3447 16.6557 10.9479 17.5828 11.8965 17.782Z" fill="#4753BF"/>
</g>
<defs>
<clipPath id="clip0_91_185">
<rect width="34" height="34" fill="white"/>
</clipPath>
</defs>
</svg>
