<svg width="30" height="30" viewBox="0 0 30 30" fill="none" xmlns="http://www.w3.org/2000/svg">
<g clip-path="url(#clip0_91_250)">
<path d="M3.09457 15.7447V24.7065C3.09457 27.0981 5.04036 29.0436 7.43196 29.0436H22.5765C24.9681 29.0436 26.9139 27.0981 26.9139 24.7065V15.7909C28.0334 15.9588 29.0676 15.436 29.6225 14.5229C30.3317 13.3554 30.0164 11.819 28.8887 10.9494L16.6457 1.51404C15.68 0.770549 14.3304 0.770549 13.363 1.51404L1.04818 11.005C-0.163 11.9386 -0.363318 13.7051 0.650725 14.888C1.25191 15.5892 2.18956 15.8786 3.09457 15.7447ZM26.0648 24.7065C26.0648 26.6299 24.4999 28.1945 22.5765 28.1945H7.43196C5.50856 28.1945 3.94364 26.6299 3.94364 24.7065V15.5102C4.07355 15.4413 4.20318 15.359 4.33308 15.2628C17.9979 4.73311 6.52612 13.5731 14.4619 7.45781C14.7809 7.21127 15.2275 7.21127 15.5465 7.45781C16.6336 8.29551 24.734 14.5374 25.6779 15.2647C25.8009 15.3595 25.9305 15.4415 26.0648 15.5128L26.0648 24.7065ZM1.56668 11.6777L13.881 2.18704C14.5429 1.67766 15.4666 1.67738 16.1275 2.18677L28.3702 11.6219C29.1421 12.217 29.3732 13.2977 28.8967 14.0821C28.3148 15.0394 27.0826 15.2419 26.2309 14.6146C26.018 14.4578 16.1219 6.82761 16.0653 6.78397C15.4435 6.30522 14.5719 6.30015 13.9434 6.78397C10.1578 9.70159 7.71493 11.5843 3.91324 14.5142C3.09544 15.1447 1.92068 15.0648 1.29528 14.3352C0.601938 13.5262 0.735776 12.3175 1.56668 11.6777Z" fill="white"/>
<path d="M19.6233 16.4671C19.204 15.7426 18.272 15.4919 17.5468 15.9099L16.5244 16.4994V15.3211C16.5244 14.495 15.8655 13.8013 15.0045 13.8013C14.164 13.8013 13.4802 14.4831 13.4802 15.3211V16.4986L12.4556 15.9063C11.7188 15.4986 10.7868 15.7739 10.3858 16.4668C9.96154 17.1986 10.2143 18.129 10.943 18.5449L11.9642 19.1337L10.9424 19.7229C10.221 20.1401 9.96083 21.0717 10.3852 21.8039C10.8034 22.5309 11.7337 22.7794 12.4628 22.3572L13.4802 21.7688V22.9462C13.4802 23.7656 14.1488 24.4705 15.0045 24.4705C15.8425 24.4705 16.5244 23.7867 16.5244 22.9462V21.7677L17.5423 22.3547C18.2562 22.7785 19.2027 22.5316 19.6233 21.8047C19.6238 21.8041 19.6244 21.8033 19.6247 21.8025C20.0401 21.0742 19.7897 20.1411 19.0661 19.7224L18.0448 19.1337L19.0669 18.5444C19.7489 18.149 20.0655 17.2641 19.6233 16.4671ZM18.6421 17.8092L16.9829 18.7658C16.7006 18.9289 16.699 19.3375 16.9829 19.5015L18.6415 20.4576C18.9616 20.6428 19.0719 21.0568 18.8878 21.3807C18.7104 21.6856 18.2825 21.8064 17.9707 21.6217L16.3118 20.6649C16.0304 20.5022 15.6753 20.7058 15.6753 21.0327V22.9462C15.6753 23.3185 15.3743 23.6214 15.0045 23.6214C14.6311 23.6214 14.3293 23.3112 14.3293 22.9462V21.0327C14.3293 20.7063 13.9751 20.5023 13.6922 20.6651L12.0378 21.6223C11.7164 21.807 11.3073 21.7031 11.1204 21.3796C10.9316 21.0515 11.0492 20.6419 11.367 20.4581L13.0261 19.5015C13.3084 19.3385 13.3101 18.9298 13.0261 18.7658L11.3653 17.8084C11.0438 17.6247 10.9329 17.2168 11.1204 16.8921C11.3006 16.5809 11.7091 16.4637 12.0377 16.6453L13.6922 17.6019C13.9758 17.7649 14.3293 17.5605 14.3293 17.2343V15.3211C14.3293 14.9513 14.6322 14.6503 15.0045 14.6503C15.3888 14.6503 15.6753 14.9551 15.6753 15.3211V17.2343C15.6753 17.5611 16.0302 17.765 16.3118 17.6022L17.9705 16.6456C18.2919 16.461 18.7032 16.5724 18.8845 16.8852C19.0858 17.2491 18.9461 17.6331 18.6421 17.8092Z" fill="white"/>
</g>
<defs>
<clipPath id="clip0_91_250">
<rect width="30" height="30" fill="white"/>
</clipPath>
</defs>
</svg>
