<svg width="30" height="30" viewBox="0 0 30 30" fill="none" xmlns="http://www.w3.org/2000/svg">
<path d="M25.8293 23.4637C25.8293 23.4637 24.381 24.8862 24.026 25.3033C23.4478 25.9203 22.7666 26.2116 21.8736 26.2116C21.7877 26.2116 21.6961 26.2116 21.6102 26.2059C19.91 26.0974 18.33 25.4347 17.145 24.8691C13.9049 23.3037 11.0598 21.0814 8.69549 18.2649C6.74339 15.9169 5.43818 13.746 4.57376 11.4151C4.04137 9.99263 3.84673 8.88432 3.9326 7.83886C3.98985 7.17044 4.24745 6.61629 4.7226 6.14212L6.67469 4.19401C6.9552 3.93121 7.25288 3.78839 7.54484 3.78839C7.90549 3.78839 8.19744 4.00548 8.38063 4.1883C8.38636 4.19401 8.39208 4.19972 8.39781 4.20544C8.74701 4.53107 9.07904 4.86813 9.42824 5.22805C9.6057 5.41086 9.78889 5.59368 9.97208 5.7822L11.5349 7.34183C12.1417 7.9474 12.1417 8.50727 11.5349 9.11284C11.3689 9.27851 11.2086 9.44419 11.0426 9.60415C10.5617 10.0955 10.9395 9.71848 10.4414 10.1641C10.43 10.1755 10.4185 10.1812 10.4128 10.1927C9.92048 10.684 10.0121 11.1639 10.1151 11.4895C10.1208 11.5066 10.1266 11.5238 10.1323 11.5409C10.5387 12.5235 11.1112 13.449 11.9813 14.5516L11.9871 14.5573C13.5671 16.4997 15.2329 18.0136 17.0705 19.1734C17.3052 19.3219 17.5457 19.4419 17.7747 19.5561C17.9807 19.659 18.1754 19.7561 18.3414 19.8589C18.3643 19.8703 18.3872 19.8875 18.4101 19.8989C18.6047 19.996 18.7879 20.0417 18.9768 20.0417C19.452 20.0417 19.7497 19.7447 19.847 19.6475L20.9691 18.5277C21.1637 18.3335 21.4728 18.0993 21.8335 18.0993C22.1884 18.0993 22.4804 18.3221 22.6578 18.5163C22.6636 18.522 22.6636 18.522 22.6693 18.5277L25.8236 21.6756C26.4132 22.2583 25.8293 23.4637 25.8293 23.4637Z" stroke="white" stroke-width="2" stroke-linecap="round" stroke-linejoin="round"/>
</svg>
