<svg width="24" height="24" viewBox="0 0 24 24" fill="none" xmlns="http://www.w3.org/2000/svg">
<g clip-path="url(#clip0_91_339)">
<path d="M13.5327 13.963C13.5327 13.2967 12.9906 12.7546 12.3243 12.7546H6.33608C5.66982 12.7546 5.12772 13.2967 5.12772 13.963V17.7753C5.12772 18.4415 5.66982 18.9836 6.33608 18.9836H12.3243C12.9906 18.9836 13.5327 18.4415 13.5327 17.7753V13.963ZM12.8049 17.7753C12.8049 18.0402 12.5892 18.2558 12.3244 18.2558H6.33608C6.07119 18.2558 5.85558 18.0402 5.85558 17.7753V13.963C5.85558 13.6981 6.07119 13.4825 6.33608 13.4825H12.3243C12.5892 13.4825 12.8048 13.6981 12.8048 13.963L12.8049 17.7753Z" fill="white"/>
<path d="M23.11 20.282C22.9963 20.0318 22.7452 19.8697 22.4694 19.8697H20.7507V17.3407C20.7507 16.749 20.3639 16.2509 19.8318 16.0718V12.1258C19.8318 11.4718 19.2997 10.9397 18.6457 10.9397C17.9918 10.9397 17.4596 11.4718 17.4596 12.1258V16.0718C16.9274 16.2508 16.5403 16.749 16.5403 17.3407V19.8697H15.8759L17.464 9.82467H18.2965C18.4974 9.82467 18.6604 9.66166 18.6604 9.46074C18.6604 9.25982 18.4974 9.09681 18.2965 9.09681H17.113C17.1238 9.00233 17.135 8.90782 17.135 8.81154C17.135 7.50508 16.1124 6.4332 14.8259 6.35359C14.77 5.12817 13.7573 4.14868 12.5205 4.14868C11.487 4.14868 10.5966 4.83532 10.3047 5.78495C9.8555 5.62146 9.35035 5.59872 8.87838 5.7333C8.46043 4.85238 7.55771 4.26383 6.56543 4.26383C5.20922 4.26383 4.09516 5.32198 4.00655 6.65592C3.95063 6.65213 3.89282 6.65023 3.83359 6.65023C2.55888 6.65023 1.52159 7.68753 1.52159 8.96223C1.52159 9.00766 1.52781 9.05185 1.53041 9.09681H0.363922C0.163002 9.09681 -7.62939e-06 9.25982 -7.62939e-06 9.46074C-7.62939e-06 9.66166 0.163002 9.82467 0.363922 9.82467H1.19734L2.95882 20.9762C3.15311 22.2026 4.19609 23.093 5.43905 23.093H13.2176C13.3957 23.093 13.5634 23.07 13.7248 23.0359C13.8098 23.0715 13.9001 23.0953 13.9957 23.0953H23.2953C23.8062 23.0953 24.1483 22.5678 23.936 22.1007L23.11 20.282ZM18.1875 12.1258C18.1875 11.8732 18.3932 11.6675 18.6457 11.6675C18.8983 11.6675 19.104 11.8732 19.104 12.1258V15.9963H18.1875V12.1258ZM17.2682 17.3407C17.2682 17.0009 17.5449 16.7242 17.8847 16.7242H19.4068C19.7465 16.7242 20.0228 17.0009 20.0228 17.3407V19.8697H17.2682V17.3407ZM2.24944 8.96223C2.24944 8.08889 2.96024 7.37809 3.83358 7.37809C4.00038 7.37809 4.14065 7.39799 4.26243 7.43874C4.51085 7.52222 4.76659 7.32124 4.74009 7.05728C4.73298 6.9843 4.72872 6.90801 4.72872 6.82793C4.72872 5.81527 5.55277 4.99169 6.56543 4.99169C7.36863 4.99169 8.08986 5.53095 8.31969 6.30288C8.3834 6.51593 8.62135 6.62281 8.82199 6.52891C9.33898 6.28866 9.92373 6.33463 10.3739 6.62842C10.6072 6.77919 10.9161 6.62481 10.9354 6.34884C10.9932 5.52336 11.6894 4.87654 12.5205 4.87654C13.3915 4.87654 14.1004 5.58734 14.1004 6.46068C14.1004 6.52512 14.098 6.58673 14.0852 6.65117C14.0449 6.85528 14.2308 7.1029 14.4928 7.08334C14.5544 7.08003 14.6131 7.07671 14.6724 7.07671C15.6291 7.07671 16.4072 7.8548 16.4072 8.81154C16.4072 8.90803 16.3996 9.0036 16.3841 9.09681H2.25504C2.25137 9.05241 2.24944 9.00754 2.24944 8.96223ZM5.43905 22.3651C4.55623 22.3651 3.81558 21.733 3.67816 20.8625L1.93479 9.82656H1.95185H16.7266L15.1386 19.8697H14.8216C14.5463 19.8697 14.2947 20.0318 14.1814 20.282L13.3545 22.1012C13.3169 22.1843 13.3017 22.2721 13.2976 22.36C13.2705 22.3611 13.2457 22.3651 13.2176 22.3651L5.43905 22.3651ZM22.6376 22.3699V21.786C22.6376 21.5851 22.4746 21.4221 22.2737 21.4221C22.0728 21.4221 21.9097 21.5851 21.9097 21.786V22.3726L21.1861 22.3754V21.786C21.1861 21.5851 21.0231 21.4221 20.8222 21.4221C20.6213 21.4221 20.4583 21.5851 20.4583 21.786V22.378L19.7352 22.3807V21.786C19.7352 21.5851 19.5722 21.4221 19.3712 21.4221C19.1703 21.4221 19.0073 21.5851 19.0073 21.786V22.3835L18.2842 22.3862V21.786C18.2842 21.5851 18.1212 21.4221 17.9203 21.4221C17.7193 21.4221 17.5563 21.5851 17.5563 21.786V22.3889L16.8327 22.3916V21.786C16.8327 21.5851 16.6697 21.4221 16.4688 21.4221C16.2679 21.4221 16.1049 21.5851 16.1049 21.786V22.3943L15.3817 22.397V21.786C15.3817 21.5851 15.2187 21.4221 15.0178 21.4221C14.8169 21.4221 14.6539 21.5851 14.6539 21.786V22.3997L14.0442 22.402C14.0382 22.3959 14.031 22.3916 14.0247 22.3859L14.8216 20.5976C21.0548 20.5981 12.3582 20.5977 22.4542 20.5976L23.2953 22.3675L22.6376 22.3699Z" fill="white"/>
<path d="M14.1563 3.01613C14.1563 3.80038 14.7942 4.43821 15.5779 4.43821C16.3622 4.43821 17 3.80038 17 3.01613C17 2.22856 16.3622 1.58789 15.5779 1.58789C14.7942 1.58789 14.1563 2.22856 14.1563 3.01613ZM16.2721 3.01613C16.2721 3.39902 15.9608 3.71035 15.5779 3.71035C15.1955 3.71035 14.8842 3.39902 14.8842 3.01613C14.8842 2.62993 15.1955 2.31576 15.5779 2.31576C15.9608 2.31575 16.2721 2.62993 16.2721 3.01613Z" fill="white"/>
<path d="M18.8936 0.904541C18.179 0.904541 17.598 1.48787 17.598 2.20531C17.598 2.9199 18.179 3.50086 18.8936 3.50086C19.6082 3.50086 20.1891 2.9199 20.1891 2.20531C20.1891 1.48787 19.6082 0.904541 18.8936 0.904541ZM18.8936 2.773C18.5804 2.773 18.3259 2.51854 18.3259 2.20531C18.3259 1.88924 18.5803 1.6324 18.8936 1.6324C19.2068 1.6324 19.4613 1.88924 19.4613 2.20531C19.4613 2.51853 19.2068 2.773 18.8936 2.773Z" fill="white"/>
</g>
<defs>
<clipPath id="clip0_91_339">
<rect width="24" height="24" fill="white"/>
</clipPath>
</defs>
</svg>
