<svg width="100" height="100" viewBox="0 0 100 100" fill="none" xmlns="http://www.w3.org/2000/svg">
<g clip-path="url(#clip0_91_6546)">
<path d="M54.1649 86.8862C58.0357 86.8862 61.1843 83.7356 61.1843 79.8648C61.1843 75.9842 58.0357 72.8257 54.1649 72.8257C50.2942 72.8257 47.1436 75.9842 47.1436 79.8648C47.1435 83.7356 50.2942 86.8862 54.1649 86.8862ZM54.1649 75.856C56.3647 75.856 58.154 77.6552 58.154 79.8648C58.154 82.0646 56.3647 83.8559 54.1649 83.8559C51.9652 83.8559 50.1738 82.0646 50.1738 79.8648C50.1738 77.6552 51.9652 75.856 54.1649 75.856Z" fill="#4753BF"/>
<path d="M72.9603 71.0483C69.5591 71.0483 66.7912 73.8222 66.7912 77.2332C66.7912 80.6344 69.5591 83.4023 72.9603 83.4023C76.3615 83.4023 79.1294 80.6344 79.1294 77.2332C79.1294 73.8222 76.3615 71.0483 72.9603 71.0483ZM72.9603 80.372C71.2301 80.372 69.8215 78.9634 69.8215 77.2332C69.8215 75.4932 71.2301 74.0786 72.9603 74.0786C74.6905 74.0786 76.0991 75.4932 76.0991 77.2332C76.0991 78.9634 74.6905 80.372 72.9603 80.372Z" fill="#4753BF"/>
<path d="M62.6876 66.1458C66.6215 66.1458 69.8215 62.9458 69.8215 59.0139C69.8215 55.0702 66.6215 51.8604 62.6876 51.8604C58.7557 51.8604 55.5558 55.0702 55.5558 59.0139C55.5558 62.9458 58.7557 66.1458 62.6876 66.1458ZM62.6876 54.8906C64.9505 54.8906 66.7912 56.7412 66.7912 59.0139C66.7912 61.2748 64.9505 63.1155 62.6876 63.1155C60.4267 63.1155 58.5861 61.2748 58.5861 59.0139C58.5861 56.7412 60.4267 54.8906 62.6876 54.8906Z" fill="#4753BF"/>
<path d="M80.8241 57.984C85.7089 57.984 89.6822 54.0107 89.6822 49.1279C89.6822 44.2293 85.7088 40.2441 80.8241 40.2441C75.9393 40.2441 71.966 44.2293 71.966 49.1279C71.966 54.0107 75.9393 57.984 80.8241 57.984ZM80.8241 43.2745C84.0378 43.2745 86.6519 45.9003 86.6519 49.1279C86.6519 52.3397 84.0379 54.9537 80.8241 54.9537C77.6103 54.9537 74.9963 52.3397 74.9963 49.1279C74.9963 45.9003 77.6103 43.2745 80.8241 43.2745Z" fill="#4753BF"/>
<path d="M38.3012 66.2662C33.1777 65.2363 28.6323 65.7749 25.0298 67.8464C22.1278 66.4516 17.9868 65.118 13.5439 65.7572C10.4919 66.1991 6.10621 67.7675 2.54325 72.7332C0.262939 75.9094 0.740398 80.5509 3.93017 82.7829C7.22525 85.0883 11.543 84.1484 13.6899 80.9896C14.6033 79.6283 15.2642 79.5218 15.5444 79.4783C17.3022 79.1844 20.2575 80.8653 21.3781 81.7708C24.5911 84.3904 29.249 83.6348 31.489 80.3444C31.9545 79.6697 33.2093 79.4823 35.0164 79.792C35.0953 82.0569 35.5471 84.2882 36.3619 86.4386C40.4197 97.1897 52.5984 102.767 63.4452 98.6328C91.6952 87.9291 105.58 57.5906 95.7073 31.5637C91.6117 20.7235 79.502 15.24 68.6279 19.3695C65.0393 20.715 61.9459 22.9719 59.5923 25.947C54.958 21.443 52.3164 14.9029 51.7383 6.47885C51.4878 2.84485 48.4614 0 44.8491 0C40.7863 0 37.6342 3.47769 37.95 7.48896C38.6109 15.8894 41.2842 27.5193 50.1482 36.0756C47.0089 40.289 47.2278 46.3674 50.9452 50.3433C47.3172 52.2765 45.3914 56.3795 46.1828 60.3772C42.4501 60.2924 39.2146 62.7821 38.3012 66.2662ZM41.0731 68.1561C41.1559 65.4908 43.3044 63.4035 45.9638 63.4035C46.1394 63.4035 46.3169 63.4154 46.6128 63.4331C47.2823 63.4331 47.418 63.1009 48.5758 62.6203C49.3295 62.3046 49.6984 61.4484 49.4084 60.6849C48.1063 57.2232 50.2789 53.0774 54.2281 52.3773C55.5883 52.1375 55.9425 50.3396 54.7706 49.6034C50.3386 46.8164 49.7378 40.6335 53.3225 37.0206C53.9259 36.4131 53.9149 35.4067 53.2515 34.8189C44.2671 26.8564 41.6137 15.4336 40.9725 7.25217C40.7897 4.97379 42.5711 3.03025 44.8491 3.03025C46.9088 3.03025 48.5719 4.6026 48.7159 6.68792C49.3906 16.5305 52.8984 24.3726 58.8564 29.3619C59.1858 29.6361 59.61 29.7565 60.046 29.6993C60.4721 29.6381 60.8529 29.3974 61.0896 29.0384C63.1809 25.8956 66.1559 23.5321 69.6992 22.2044C79.0258 18.6608 89.3766 23.3823 92.8743 32.6349C102.124 57.0251 89.1305 85.6571 62.37 95.7997C60.332 96.577 58.1915 96.9696 56.0075 96.9696C48.5719 96.9696 41.8168 92.3078 39.1949 85.3673C38.3703 83.1853 37.9796 80.9106 38.0388 78.6063C38.0566 77.9 37.5831 77.2746 36.8965 77.101C34.0016 76.365 30.6803 76.1835 28.9893 78.63C27.7248 80.4879 25.1195 80.9124 23.2878 79.4191C23.2464 79.3856 18.8173 75.9055 15.0709 76.4855C14.1042 76.6394 12.6502 77.0991 11.1784 79.2949C9.98288 81.0487 7.45959 81.5577 5.67021 80.301C3.86125 79.0376 3.72286 76.2839 5.00536 74.5009C7.94688 70.3993 11.5079 69.113 13.9779 68.7559C18.0439 68.166 21.889 69.6101 24.4044 70.9221C24.8897 71.1766 25.4777 71.145 25.9393 70.8432C30.1632 68.0555 35.4701 68.6158 39.1772 69.5746C39.6289 69.693 40.0985 69.5963 40.4654 69.3221C40.8344 69.0459 41.0573 68.6158 41.0731 68.1561Z" fill="#4753BF"/>
</g>
<defs>
<clipPath id="clip0_91_6546">
<rect width="100" height="100" fill="white"/>
</clipPath>
</defs>
</svg>
