<svg width="34" height="34" viewBox="0 0 34 34" fill="none" xmlns="http://www.w3.org/2000/svg">
<g clip-path="url(#clip0_91_178)">
<path d="M14.5006 0.247498H2.05201C0.920734 0.247498 0 1.16824 0 2.2995V6.78527C0 7.91653 0.920734 8.83727 2.05201 8.83727H2.22922V27.7051C2.22922 31.0396 4.94213 33.7525 8.27664 33.7525C11.6111 33.7525 14.3234 31.0396 14.3234 27.7051V8.83727H14.5006C15.6319 8.83727 16.5526 7.91654 16.5526 6.78527V2.2995C16.5526 1.16824 15.6319 0.247498 14.5006 0.247498ZM13.3001 27.7051C13.3001 30.4753 11.0469 32.7291 8.27665 32.7291C5.50644 32.7291 3.25257 30.4753 3.25257 27.7051V8.83727H13.3001V27.7051ZM15.5293 6.78527C15.5293 7.35223 15.0676 7.81394 14.5006 7.81394C12.1761 7.81394 6.51387 7.81394 2.05201 7.81394C1.48504 7.81394 1.02334 7.35224 1.02334 6.78527V2.2995C1.02334 1.73254 1.48503 1.27083 2.05201 1.27083H2.45441V3.25688C2.45441 3.53936 2.6836 3.76855 2.96608 3.76855C3.24857 3.76855 3.47775 3.53936 3.47775 3.25688V1.27083H5.10936V6.16367C5.10936 6.44615 5.33855 6.67534 5.62104 6.67534C5.90352 6.67534 6.13271 6.44616 6.13271 6.16367V1.27083H7.76498V3.25688C7.76498 3.53936 7.99416 3.76855 8.27666 3.76855C8.55915 3.76855 8.78833 3.53936 8.78833 3.25688V1.27083H10.4199V6.16367C10.4199 6.44615 10.6491 6.67534 10.9316 6.67534C11.2141 6.67534 11.4433 6.44616 11.4433 6.16367V1.27083H13.0749V3.25688C13.0749 3.53936 13.3041 3.76855 13.5866 3.76855C13.869 3.76855 14.0982 3.53936 14.0982 3.25688V1.27083H14.5006C15.0676 1.27083 15.5293 1.73253 15.5293 2.2995L15.5293 6.78527Z" fill="#4753BF"/>
<path d="M6.63637 26.0995H9.91625C10.8423 26.0995 11.5952 25.3466 11.5952 24.4205V14.3457C11.5952 13.4197 10.8423 12.6668 9.91625 12.6668H6.63637C5.7103 12.6668 4.95746 13.4197 4.95746 14.3457V24.4205C4.95746 25.3466 5.7103 26.0995 6.63637 26.0995ZM5.98079 14.3457C5.98079 13.984 6.2746 13.6901 6.63637 13.6901H9.91625C10.278 13.6901 10.5718 13.984 10.5718 14.3457V24.4205C10.5718 24.7823 10.278 25.0761 9.91625 25.0761H6.63637C6.2746 25.0761 5.98079 24.7823 5.98079 24.4205V14.3457Z" fill="#4753BF"/>
<path d="M31.9487 0.247498H19.5001C18.3688 0.247498 17.4481 1.16823 17.4481 2.2995V6.78527C17.4481 7.91653 18.3688 8.83727 19.5001 8.83727H19.6773V27.7051C19.6773 31.0396 22.3895 33.7525 25.724 33.7525C29.0585 33.7525 31.7715 31.0396 31.7715 27.7051V8.83727H31.9487C33.0799 8.83727 34 7.91654 34 6.78527V2.2995C34 1.16824 33.0799 0.247498 31.9487 0.247498ZM30.7481 27.7051C30.7481 30.4753 28.4942 32.7291 25.724 32.7291C22.9538 32.7291 20.7006 30.4753 20.7006 27.7051V8.83727H30.7481V27.7051ZM32.9767 6.78527C32.9767 7.35223 32.5156 7.81394 31.9487 7.81394C28.3074 7.81394 25.6975 7.81394 19.5001 7.81394C18.9331 7.81394 18.4714 7.35224 18.4714 6.78527V2.2995C18.4714 1.73254 18.9331 1.27083 19.5001 1.27083H19.9018V3.25688C19.9018 3.53936 20.131 3.76855 20.4135 3.76855C20.696 3.76855 20.9251 3.53936 20.9251 3.25688V1.27083H22.5574V6.16367C22.5574 6.44615 22.7866 6.67534 23.0691 6.67534C23.3516 6.67534 23.5808 6.44616 23.5808 6.16367V1.27083H25.2124V3.25688C25.2124 3.53936 25.4416 3.76855 25.724 3.76855C26.0065 3.76855 26.2357 3.53936 26.2357 3.25688V1.27083H27.868V6.16367C27.868 6.44615 28.0972 6.67534 28.3796 6.67534C28.6621 6.67534 28.8913 6.44616 28.8913 6.16367V1.27083H30.5229V3.25688C30.5229 3.53936 30.7521 3.76855 31.0346 3.76855C31.3171 3.76855 31.5463 3.53936 31.5463 3.25688V1.27083H31.9487C32.5156 1.27083 32.9767 1.73253 32.9767 2.2995L32.9767 6.78527Z" fill="#4753BF"/>
<path d="M24.0844 26.0995H27.3643C28.2904 26.0995 29.0432 25.3466 29.0432 24.4205V14.3457C29.0432 13.4197 28.2904 12.6668 27.3643 12.6668H24.0844C23.1584 12.6668 22.4055 13.4197 22.4055 14.3457V24.4205C22.4055 25.3466 23.1584 26.0995 24.0844 26.0995ZM23.4289 14.3457C23.4289 13.984 23.7227 13.6901 24.0844 13.6901H27.3643C27.7261 13.6901 28.0199 13.984 28.0199 14.3457V24.4205C28.0199 24.7823 27.7261 25.0761 27.3643 25.0761H24.0844C23.7227 25.0761 23.4289 24.7823 23.4289 24.4205V14.3457Z" fill="#4753BF"/>
</g>
<defs>
<clipPath id="clip0_91_178">
<rect width="34" height="34" fill="white"/>
</clipPath>
</defs>
</svg>
