<svg width="30" height="30" viewBox="0 0 30 30" fill="none" xmlns="http://www.w3.org/2000/svg">
<g clip-path="url(#clip0_296_637)">
<path d="M27.5427 29.8527C27.7284 29.6609 27.7234 29.3546 27.5314 29.1689L21.6565 23.4813C23.4602 22.8765 24.7648 21.1739 24.7648 19.1694V17.7358H25.9674C26.7683 17.7358 27.4199 17.0842 27.4199 16.283V12.9089C27.4199 12.108 26.7683 11.4564 25.9674 11.4564H24.7648V10.6445H25.164C26.0278 10.6445 26.7311 9.94155 26.7311 9.07741C26.7311 8.21327 26.0278 7.51031 25.164 7.51031H24.539L22.9623 5.15179C22.5178 4.48629 21.7742 4.08901 20.974 4.08901H17.0084C17.2088 3.44673 17.3367 2.78808 17.3367 2.34058C17.3367 1.04988 16.2897 0 15.0027 0C13.712 0 12.6625 1.04988 12.6625 2.34057C12.6625 2.78866 12.79 3.44719 12.9901 4.08901H9.02646C8.22623 4.08901 7.48266 4.48629 7.03878 5.15147L5.46142 7.51031H4.83641C3.97258 7.51031 3.26931 8.21327 3.26931 9.07741C3.26931 9.94155 3.97258 10.6445 4.83641 10.6445H5.23558V11.4564H4.03617C3.23468 11.4564 2.58303 12.108 2.58303 12.9089V16.283C2.58303 17.0842 3.23468 17.7358 4.03617 17.7358H5.23558V19.1694C5.23558 21.1737 6.5401 22.8762 8.3435 23.4812L2.46844 29.1689C2.27641 29.3547 2.27137 29.661 2.45711 29.8527C2.64527 30.0471 2.95121 30.0473 3.14087 29.864L9.50273 23.705C9.59682 23.7108 9.69023 23.7193 9.78578 23.7193H20.2146C20.31 23.7193 20.4032 23.7108 20.4971 23.705L26.8589 29.864C27.0489 30.0476 27.3549 30.0467 27.5427 29.8527ZM15.0027 0.967081C15.7564 0.967081 16.3696 1.58316 16.3696 2.34057C16.3696 2.69567 16.238 3.3936 15.9912 4.08774H14.0073C13.7611 3.39423 13.6296 2.69631 13.6296 2.34057C13.6295 1.58316 14.2453 0.967081 15.0027 0.967081ZM25.9674 12.4235C26.235 12.4235 26.4528 12.6413 26.4528 12.9089V16.283C26.4528 16.5509 26.235 16.7687 25.9674 16.7687H24.7648V12.4235H25.9674ZM7.8428 5.68884C8.10723 5.29251 8.54985 5.05609 9.02646 5.05609H20.974C21.4506 5.05609 21.8932 5.29251 22.1583 5.68916L23.3761 7.51031H6.6243L7.8428 5.68884ZM4.23639 9.07741C4.23639 8.74655 4.50587 8.47739 4.83641 8.47739C26.753 8.47757 17.7491 8.47763 25.164 8.47739C25.4946 8.47739 25.764 8.74655 25.764 9.07741C25.764 9.40827 25.4946 9.67743 25.164 9.67743C-13.1474 9.67681 27.0797 9.67734 4.83641 9.67743C4.50586 9.67743 4.23639 9.40827 4.23639 9.07741ZM4.03617 16.7687C3.76796 16.7687 3.55011 16.5509 3.55011 16.283V12.9089C3.55011 12.6413 3.76795 12.4235 4.03617 12.4235H5.23558V16.7687H4.03617ZM9.78578 22.7522C7.81006 22.7522 6.20267 21.1452 6.20267 19.1694C6.20334 19.2383 6.20538 15.3933 6.20267 10.6445H23.7978C23.7977 10.5794 23.7966 12.4874 23.7978 19.1694C23.7978 21.1452 22.1904 22.7522 20.2146 22.7522H9.78578Z" fill="white"/>
<path d="M9.9458 29.9999H20.0548C20.1896 29.9999 20.318 29.9436 20.4099 29.8447C20.5012 29.7459 20.5472 29.6133 20.5371 29.4789C20.4546 28.4193 19.0342 26.6164 18.7503 26.2657C18.5664 26.0384 18.1824 26.0384 17.9985 26.2657C17.8138 26.4938 17.1526 27.3359 16.6874 28.1887C16.2222 27.3359 15.5609 26.4938 15.3762 26.2657C15.1924 26.0384 14.8083 26.0384 14.6244 26.2657C14.4398 26.4938 13.7785 27.3358 13.3131 28.1884C12.8479 27.3358 12.1867 26.4937 12.0021 26.2657C11.8183 26.0384 11.4342 26.0384 11.2504 26.2657C10.9664 26.6164 9.54601 28.4193 9.46352 29.4789C9.45345 29.6133 9.49941 29.7459 9.59071 29.8447C9.68262 29.9436 9.81106 29.9999 9.9458 29.9999ZM18.3744 27.3631C18.7698 27.9011 19.1847 28.5417 19.4082 29.0328H17.3412C17.5647 28.542 17.9796 27.9011 18.3744 27.3631ZM15.0003 27.3631C15.3951 27.9014 15.81 28.542 16.0335 29.0328H13.9665C14.19 28.542 14.6055 27.9014 15.0003 27.3631ZM11.6262 27.3631C12.021 27.9014 12.4359 28.542 12.6594 29.0328H10.5924C10.8159 28.542 11.2315 27.9014 11.6262 27.3631Z" fill="white"/>
<path d="M19.7191 11.9995H10.2806C9.32803 11.9995 8.55298 12.7746 8.55298 13.7275V18.93C8.55298 19.8829 9.32803 20.6579 10.2806 20.6579H19.7191C20.6724 20.6579 21.4474 19.8829 21.4474 18.93V13.7275C21.4474 12.7746 20.6723 11.9995 19.7191 11.9995ZM20.4803 18.9299C20.4803 19.3496 20.1391 19.6908 19.7191 19.6908H10.2806C9.86131 19.6908 9.52006 19.3496 9.52006 18.9299V13.7275C9.52006 13.3078 9.86131 12.9666 10.2806 12.9666H19.7191C20.1391 12.9666 20.4803 13.3078 20.4803 13.7275L20.4803 18.9299Z" fill="white"/>
</g>
<defs>
<clipPath id="clip0_296_637">
<rect width="30" height="30" fill="white"/>
</clipPath>
</defs>
</svg>
