<svg width="34" height="34" viewBox="0 0 34 34" fill="none" xmlns="http://www.w3.org/2000/svg">
<g clip-path="url(#clip0_91_205)">
<path d="M9.56973 13.2639C8.49857 13.2639 7.62695 14.1359 7.62695 15.207C7.62695 16.2795 8.49857 17.1522 9.56973 17.1522C10.6422 17.1522 11.5149 16.2795 11.5149 15.207C11.5149 14.1359 10.6422 13.2639 9.56973 13.2639ZM9.56973 16.1219C9.06668 16.1219 8.6572 15.7114 8.6572 15.207C8.6572 14.704 9.06668 14.2942 9.56973 14.2942C10.0741 14.2942 10.4846 14.704 10.4846 15.207C10.4846 15.7114 10.0741 16.1219 9.56973 16.1219Z" fill="#4753BF"/>
<path d="M14.6827 17.0334C13.2071 17.0334 12.0065 18.2341 12.0065 19.7097C12.0065 21.1873 13.2071 22.3893 14.6827 22.3893C16.1604 22.3893 17.3623 21.1873 17.3623 19.7097C17.3623 18.2341 16.1604 17.0334 14.6827 17.0334ZM14.6827 21.359C13.7752 21.359 13.0367 20.6192 13.0367 19.7097C13.0367 18.8022 13.7752 18.0637 14.6827 18.0637C15.5922 18.0637 16.3321 18.8022 16.3321 19.7097C16.3321 20.6192 15.5923 21.359 14.6827 21.359Z" fill="#4753BF"/>
<path d="M14.6831 13.7401C15.9769 13.7401 17.0296 12.6878 17.0296 11.3939C17.0296 10.1014 15.9769 9.04968 14.6831 9.04968C13.3909 9.04968 12.3395 10.1014 12.3395 11.3939C12.3395 12.6878 13.3909 13.7401 14.6831 13.7401ZM14.6831 10.0799C15.4088 10.0799 15.9994 10.6695 15.9994 11.3939C15.9994 12.1196 15.4088 12.7099 14.6831 12.7099C13.959 12.7099 13.3698 12.1196 13.3698 11.3939C13.3698 10.6695 13.959 10.0799 14.6831 10.0799Z" fill="#4753BF"/>
<path d="M19.1176 13.2639C18.189 13.2639 17.4334 14.0192 17.4334 14.9481C17.4334 15.8778 18.189 16.6344 19.1176 16.6344C20.0473 16.6344 20.8035 15.8778 20.8035 14.9481C20.8035 14.0192 20.0473 13.2639 19.1176 13.2639ZM19.1176 15.6041C18.7571 15.6041 18.4637 15.3097 18.4637 14.9481C18.4637 14.5873 18.7571 14.2942 19.1176 14.2942C19.4792 14.2942 19.7733 14.5873 19.7733 14.9481C19.7733 15.3097 19.4792 15.6041 19.1176 15.6041Z" fill="#4753BF"/>
<path d="M30.0815 33.0091C33.1206 33.0091 35.0013 29.6963 33.4368 27.0865L28.5713 18.9679C29.3053 18.4216 29.7974 17.253 29.7974 15.8865C29.7974 13.9723 28.8476 12.4732 27.635 12.4732C26.7674 12.4732 26.0269 13.219 25.6794 14.4076H24.5069C24.2685 12.8586 23.663 11.4002 22.7367 10.1425L23.5643 9.31466C24.6519 9.90961 25.7036 9.91229 26.316 9.29923C26.7647 8.85051 26.8915 8.16703 26.6728 7.37355C26.4826 6.68203 26.0413 5.96434 25.4313 5.35464C24.5922 4.5122 23.5696 4.00915 22.6953 4.00847C22.6947 4.00847 22.694 4.00847 22.6933 4.00847C22.204 4.00847 21.7861 4.16744 21.485 4.4686C20.8706 5.08299 20.876 6.13471 21.4732 7.2213L20.6441 8.05041C19.3858 7.12379 17.9296 6.51929 16.3773 6.28025V5.1105C17.5666 4.7644 18.3127 4.02391 18.3127 3.15463C18.3127 1.94127 16.8123 0.990845 14.8967 0.990845C12.9814 0.990845 11.481 1.94128 11.481 3.15463C11.481 4.02391 12.2272 4.7644 13.416 5.1105V6.27967C11.8675 6.51753 10.4091 7.1227 9.14992 8.04966L8.32416 7.2213C8.91775 6.13806 8.92144 5.08702 8.30705 4.46726C7.44884 3.61475 5.71701 4.00446 4.36313 5.35397C3.51901 6.19843 3.01562 7.22398 3.01729 8.09795C3.0183 8.58557 3.17794 9.00143 3.47608 9.2979C4.08678 9.91363 5.13882 9.91162 6.22944 9.31466L7.0573 10.1428C6.13047 11.402 5.52534 12.8612 5.28715 14.4116H4.11965C3.77322 13.2224 3.03273 12.4758 2.16379 12.4758C0.950435 12.4758 0 13.9763 0 15.8919C0 17.8075 0.950435 19.3079 2.16379 19.3079C3.03273 19.3079 3.77321 18.5614 4.11965 17.3729H5.28795C5.52858 18.9251 6.13375 20.3828 7.05827 21.6359L6.22979 22.4644C5.14353 21.8688 4.09216 21.8655 3.47911 22.4792C3.17895 22.777 3.01965 23.1915 3.01831 23.6771C3.01597 24.5504 3.51835 25.578 4.36381 26.4265C5.23275 27.2924 6.25796 27.7626 7.10779 27.7626C7.58166 27.7626 8.00087 27.6163 8.3084 27.3112C8.92347 26.6968 8.92011 25.645 8.3245 24.5591L9.15228 23.7314C10.4098 24.6565 11.8641 25.2602 13.4144 25.4992V26.6719C12.2413 27.0154 11.48 27.7693 11.48 28.6278C11.48 29.8405 12.9824 30.7903 14.9004 30.7903C15.0876 30.7903 15.2703 30.7784 15.4495 30.7594C16.1473 32.2329 17.5254 33.0091 18.9815 33.0091L30.0815 33.0091ZM26.0832 15.4378C26.3287 15.4378 26.5403 15.2648 26.5883 15.0233C26.7643 14.1426 27.2044 13.5034 27.635 13.5034C28.1695 13.5034 28.7672 14.5223 28.7672 15.8865C28.7672 16.902 28.4325 17.7297 28.0461 18.0852L27.8922 17.829C27.1789 16.6384 25.9087 15.9547 24.6227 15.9288C24.6227 15.9147 24.6227 15.9006 24.6227 15.8865C24.6227 15.7323 24.6197 15.5827 24.6136 15.4378H26.0832ZM23.5924 15.8865C23.5924 15.9393 23.588 15.9907 23.587 16.0436C22.625 16.2854 21.7565 16.9065 21.2154 17.7778C20.7308 18.5662 18.2966 22.6353 17.3342 24.2372C16.8573 24.3814 16.3572 24.4807 15.82 24.5397C10.2578 25.0079 6.22821 20.7542 6.20213 15.936C6.20205 15.9189 6.20096 15.9038 6.20096 15.8865C6.20096 15.8711 6.20192 15.8577 6.202 15.8423C6.22532 11.3574 9.64395 7.69824 13.9679 7.24092C13.9743 7.24041 13.9802 7.24343 13.9865 7.24276C18.6246 6.73564 23.0348 10.1015 23.5478 14.9784C23.5773 15.2507 23.5924 15.5559 23.5924 15.8865ZM16.379 25.8319V25.4921C16.4542 25.4806 16.5302 25.4698 16.604 25.4568L16.379 25.8319ZM22.4877 7.66332C22.6618 7.4896 22.6883 7.21661 22.5515 7.01271C22.0591 6.27691 21.9139 5.49684 22.2134 5.19703C22.3187 5.09172 22.48 5.03874 22.693 5.03874H22.6943C23.2829 5.03874 24.0707 5.44856 24.7022 6.0824C25.1817 6.56198 25.5379 7.1321 25.6794 7.64722C25.7938 8.06174 25.7603 8.39845 25.5875 8.57083C25.2884 8.87064 24.5077 8.72577 23.7705 8.2368C23.5659 8.09997 23.294 8.12814 23.1209 8.30119L22.085 9.33748C22.0349 9.28248 21.5315 8.778 21.4488 8.70296L22.4877 7.66332ZM12.5112 3.15464C12.5112 2.6194 13.5314 2.0211 14.8967 2.0211C16.2623 2.0211 17.2825 2.6194 17.2825 3.15464C17.2825 3.57922 16.6289 4.02861 15.7619 4.20099C15.5208 4.24861 15.3471 4.45989 15.3471 4.70605V6.17429C15.1982 6.16759 15.0476 6.16424 14.8967 6.16424C14.7458 6.16424 14.5952 6.16759 14.4463 6.17429V4.70605C14.4463 4.45989 14.2726 4.2486 14.0314 4.20098C13.1649 4.0286 12.5112 3.57922 12.5112 3.15464ZM6.30793 8.15027C6.20933 8.15027 6.11006 8.17844 6.02287 8.2368C5.28539 8.72711 4.50533 8.87198 4.20484 8.56948C4.10087 8.46618 4.04788 8.30722 4.04755 8.09661C4.04655 7.50838 4.45637 6.71758 5.09088 6.08307C6.0564 5.11989 7.20134 4.82141 7.5783 5.19568C7.87878 5.49886 7.73625 6.27959 7.24628 7.01271C7.10978 7.21728 7.13628 7.48892 7.30966 7.66265L8.34561 8.70229C8.32042 8.72512 7.81432 9.22151 7.70875 9.33748L6.67246 8.30119C6.57287 8.20192 6.44107 8.15027 6.30793 8.15027ZM3.71553 16.3426C3.46971 16.3426 3.25809 16.5164 3.21014 16.7571C3.03809 17.6244 2.58803 18.2777 2.16379 18.2777C1.62854 18.2777 1.03024 17.2575 1.03024 15.8919C1.03024 14.5263 1.62854 13.5061 2.16379 13.5061C2.58803 13.5061 3.03809 14.1601 3.21014 15.0273C3.25809 15.2681 3.46971 15.4419 3.71553 15.4419H5.17941C5.1727 15.5901 5.16935 15.739 5.16935 15.8879C5.16935 16.0415 5.1727 16.1924 5.17975 16.3426L3.71553 16.3426ZM7.31034 24.1164C7.13662 24.2902 7.10979 24.5625 7.24629 24.7671C7.73727 25.5015 7.8808 26.2822 7.58132 26.5814C7.20235 26.9577 6.05774 26.6592 5.09222 25.698C4.4567 25.0602 4.04689 24.268 4.04856 23.6798C4.04923 23.4705 4.10188 23.3129 4.20652 23.2089C4.31216 23.103 4.47716 23.052 4.67871 23.052C5.0503 23.052 5.54563 23.2244 6.02219 23.543C6.22744 23.6798 6.49942 23.6516 6.67247 23.4786L7.70876 22.4423C7.75468 22.4928 8.27955 23.0191 8.34663 23.0802L7.31034 24.1164ZM15.1247 29.754C15.051 29.758 14.9762 29.76 14.9004 29.76C13.5324 29.76 12.5102 29.1624 12.5102 28.6278C12.5102 28.2006 13.1628 27.7505 14.0281 27.5821C14.2699 27.5345 14.4446 27.3226 14.4446 27.0764V25.6041C14.4765 25.6057 15.2422 25.6096 15.3488 25.6041V27.0764C15.3488 27.1958 15.3897 27.3071 15.4594 27.395C15.449 27.4166 15.4435 27.4397 15.4334 27.4614C15.0879 28.2037 14.9972 28.9646 15.1214 29.7182C15.1233 29.73 15.1227 29.7421 15.1247 29.754ZM16.6255 27.4259C16.6266 27.424 16.6264 27.4218 16.6274 27.42C17.6608 25.6985 21.9153 18.6014 22.0896 18.3211C23.2164 16.4863 25.9024 16.518 27.0055 18.3602L32.5531 27.6164C33.7035 29.5358 32.3231 31.9788 30.0815 31.9788H18.9815C17.1432 31.9788 15.2461 30.184 16.6255 27.4259Z" fill="#4753BF"/>
<path d="M24.4936 26.1595C25.442 26.1595 26.2133 25.3881 26.2133 24.4397V21.0203C26.2133 20.0719 25.442 19.3005 24.4936 19.3005C23.5451 19.3005 22.7738 20.0719 22.7738 21.0203V24.4397C22.7738 25.3881 23.5452 26.1595 24.4936 26.1595ZM23.8041 21.0203C23.8041 20.64 24.1133 20.3308 24.4936 20.3308C24.8739 20.3308 25.1831 20.64 25.1831 21.0203V24.4397C25.1831 24.82 24.8739 25.1292 24.4936 25.1292C24.1133 25.1292 23.8041 24.82 23.8041 24.4397V21.0203Z" fill="#4753BF"/>
<path d="M24.4936 30.8245C25.442 30.8245 26.2133 30.0532 26.2133 29.1047V28.8284C26.2133 27.88 25.442 27.1086 24.4936 27.1086C23.5451 27.1086 22.7738 27.88 22.7738 28.8284V29.1047C22.7738 30.0532 23.5452 30.8245 24.4936 30.8245ZM23.8041 28.8284C23.8041 28.4481 24.1133 28.1389 24.4936 28.1389C24.8739 28.1389 25.1831 28.4481 25.1831 28.8284V29.1048C25.1831 29.4851 24.8739 29.7943 24.4936 29.7943C24.1133 29.7943 23.8041 29.4851 23.8041 29.1048V28.8284Z" fill="#4753BF"/>
</g>
<defs>
<clipPath id="clip0_91_205">
<rect width="34" height="34" fill="white"/>
</clipPath>
</defs>
</svg>
