<svg width="119" height="40" viewBox="0 0 119 40" fill="none" xmlns="http://www.w3.org/2000/svg">
<path d="M24.8172 3.37069C25.1719 3.68412 25.5096 4.00815 25.8453 4.34175C24.8636 5.31727 23.8818 6.29279 22.8703 7.29787C22.1003 6.72406 22.1003 6.72406 21.7547 6.43759C19.5503 4.74519 16.727 4.1587 13.9878 4.47743C11.2473 4.86685 8.67113 6.27874 6.99188 8.48242C5.20237 10.9196 4.43329 13.844 4.8518 16.841C5.07292 18.2148 5.53565 19.4883 6.2289 20.6928C6.27936 20.7823 6.32981 20.8719 6.38179 20.9642C7.78173 23.2927 10.1181 24.9285 12.7396 25.6281C15.5152 26.3113 18.5466 25.9598 21.0338 24.542C22.9329 23.4036 24.1702 21.7657 24.8227 19.6766C24.9454 19.1279 25.0681 18.5792 25.1945 18.0138C21.9732 18.0138 18.7518 18.0138 15.4328 18.0138C15.4328 16.642 15.4328 15.2702 15.4328 13.8568C20.0348 13.8568 24.6367 13.8568 29.3781 13.8568C29.5013 14.7134 29.5975 15.4963 29.5931 16.351C29.5927 16.4583 29.5922 16.5657 29.5917 16.6763C29.5403 20.513 28.2165 23.828 25.4868 26.5398C24.3889 27.6005 23.1566 28.4005 21.7547 29.0069C21.6666 29.045 21.6666 29.045 21.5766 29.084C17.9158 30.6305 13.4891 30.6473 9.80482 29.1724C6.32471 27.7253 3.55773 25.2873 1.7664 21.9861C1.71787 21.9005 1.66933 21.8149 1.61933 21.7266C-0.140612 18.4736 -0.313897 14.469 0.669165 10.9609C1.39854 8.56479 2.70878 6.49302 4.4625 4.71126C4.52865 4.63982 4.5948 4.56837 4.66296 4.49475C5.71473 3.38535 7.00781 2.536 8.36719 1.84752C8.42944 1.81528 8.4917 1.78304 8.55585 1.74982C13.6655 -0.875901 20.3911 -0.349806 24.8172 3.37069Z" fill="#4185F4"/>
<path d="M87.0376 12.3521C87.4603 12.7021 87.4603 12.7021 87.5766 12.9331C87.6072 12.4453 87.6379 11.9575 87.6695 11.455C89.0501 11.455 90.4307 11.455 91.8531 11.455C91.8552 13.7164 91.8569 15.9777 91.8579 18.2391C91.8584 19.2892 91.8591 20.3394 91.8601 21.3895C91.8611 22.3054 91.8617 23.2213 91.8619 24.1371C91.862 24.6216 91.8623 25.106 91.863 25.5904C91.8636 26.0475 91.8638 26.5046 91.8636 26.9618C91.8637 27.1284 91.8638 27.295 91.8642 27.4617C91.8704 30.4997 91.6502 33.6465 89.5289 36.0277C89.4563 36.1181 89.3837 36.2085 89.3088 36.3016C88.0299 37.8273 85.8794 38.5716 83.9508 38.7991C83.5069 38.8254 83.0648 38.83 82.6202 38.828C82.5011 38.8275 82.382 38.8269 82.2593 38.8264C81.4252 38.8158 80.6613 38.7693 79.8602 38.522C79.7707 38.4944 79.7707 38.4944 79.6794 38.4664C77.2531 37.6977 75.3001 35.9794 74.1251 33.7471C73.9904 33.4805 73.9904 33.4805 73.9102 33.2564C74.0031 32.9792 74.0031 32.9792 74.1472 32.8898C74.2092 32.8642 74.2712 32.8385 74.335 32.8121C74.4402 32.7677 74.4402 32.7677 74.5475 32.7225C74.6618 32.6761 74.6618 32.6761 74.7785 32.6289C74.8563 32.5964 74.9342 32.564 75.0144 32.5306C75.1791 32.4622 75.3441 32.3943 75.5093 32.3268C75.7628 32.2233 76.0156 32.1183 76.2683 32.0131C76.4283 31.9469 76.5882 31.8808 76.7482 31.8148C76.8243 31.7833 76.9003 31.7518 76.9786 31.7194C77.5141 31.5012 77.5141 31.5012 77.7219 31.5012C77.7581 31.5761 77.7943 31.651 77.8315 31.7282C78.5511 33.1433 79.5388 34.0929 81.0419 34.6673C82.352 35.0805 83.9138 34.9108 85.1405 34.3353C86.277 33.7091 86.889 32.7831 87.3038 31.5842C87.5415 30.7558 87.5893 29.9623 87.5824 29.1051C87.5817 28.9575 87.5817 28.9575 87.5811 28.8069C87.58 28.5656 87.5785 28.3244 87.5766 28.0832C87.5295 28.132 87.4824 28.1809 87.4339 28.2312C86.0755 29.6154 84.3596 30.1884 82.44 30.2368C79.7038 30.1893 77.4384 28.9863 75.5491 27.0609C73.7999 25.1213 72.9663 22.5628 73.0898 19.9751C73.2786 17.2046 74.5126 14.7695 76.6062 12.9331C79.6077 10.5633 83.8708 9.90832 87.0376 12.3521ZM79.0234 16.3511C78.4545 17.0625 78.0213 17.7968 77.7219 18.6605C77.7002 18.7215 77.6785 18.7825 77.6561 18.8453C77.2097 20.3261 77.4493 21.9911 78.0937 23.3719C78.8839 24.7435 79.953 25.6669 81.4809 26.1522C82.7697 26.4765 84.0344 26.3686 85.2153 25.7268C86.4201 24.982 87.2177 23.9692 87.6695 22.6328C87.6991 22.551 87.7287 22.4692 87.7592 22.3849C88.2635 20.7571 88.0172 18.894 87.2512 17.3903C86.5189 16.069 85.3968 15.246 83.9609 14.7871C83.7387 14.7364 83.5272 14.7062 83.3 14.6883C83.2305 14.6809 83.161 14.6735 83.0894 14.6659C81.5977 14.5824 80.0216 15.2613 79.0234 16.3511Z" fill="#4285F4"/>
<path d="M40.4331 10.7938C43.2125 10.7201 45.8057 11.5952 47.8465 13.5102C49.5652 15.1793 50.6228 17.4957 50.6959 19.8888C50.6977 20.0875 50.6981 20.2862 50.697 20.485C50.6965 20.59 50.696 20.6951 50.6954 20.8034C50.6621 23.1138 49.8301 25.3533 48.2508 27.0669C48.1791 27.1457 48.1075 27.2244 48.0336 27.3055C46.3049 29.1149 43.832 30.1381 41.3359 30.2248C38.5883 30.2829 36.0918 29.4297 34.0676 27.5631C32.3142 25.871 31.1902 23.5757 31.1166 21.1273C31.0919 18.4313 31.6838 15.8997 33.6076 13.9029C33.7461 13.7631 33.886 13.625 34.0266 13.4873C34.1021 13.4113 34.1776 13.3353 34.2554 13.257C35.8794 11.7076 38.2084 10.8822 40.4331 10.7938ZM36.8861 16.504C36.419 17.0945 36.0516 17.6769 35.793 18.3833C35.7634 18.4621 35.7338 18.5408 35.7033 18.6219C35.1844 20.2825 35.4593 22.1066 36.256 23.6183C36.5425 24.088 36.8854 24.4682 37.2805 24.8499C37.3386 24.9095 37.3967 24.9692 37.4566 25.0306C38.3553 25.8936 39.6884 26.3242 40.9237 26.3568C42.5142 26.2957 43.8718 25.5839 44.9635 24.4587C46.1972 23.0217 46.418 21.3085 46.2984 19.4919C46.1151 18.0876 45.3663 16.7872 44.288 15.8718C42.0466 14.1656 38.753 14.3063 36.8861 16.504Z" fill="#EA4334"/>
<path d="M68.1345 12.8812C69.852 14.3572 70.969 16.0953 71.493 18.2911C71.5157 18.3792 71.5385 18.4673 71.562 18.5581C72.0893 21.0129 71.5423 23.7615 70.1914 25.8662C68.5858 28.1352 66.4474 29.5238 63.7254 30.0921C61.004 30.5444 58.2521 29.9491 55.9955 28.3698C53.9313 26.7945 52.6346 24.6186 52.1922 22.08C51.8385 19.3965 52.3962 16.7773 54.0148 14.596C54.28 14.2733 54.5598 13.971 54.8516 13.6722C54.9073 13.61 54.963 13.5478 55.0204 13.4838C58.2991 9.95151 64.4882 10.005 68.1345 12.8812ZM57.799 16.5951C56.9104 17.7568 56.4694 19.0347 56.4843 20.4909C56.485 20.5878 56.4857 20.6848 56.4865 20.7847C56.5187 22.2983 57.0644 23.6388 58.1055 24.7576C59.1703 25.7586 60.4686 26.318 61.9404 26.3569C63.4861 26.2969 64.8676 25.6091 65.9265 24.4996C67.1445 23.075 67.4047 21.3959 67.3094 19.5844C67.154 18.2389 66.5112 17.1017 65.543 16.1664C65.4558 16.0769 65.4558 16.0769 65.3668 15.9856C64.4734 15.1277 63.1595 14.711 61.9346 14.6479C60.3435 14.7047 58.8417 15.4039 57.799 16.5951Z" fill="#FBBC04"/>
<path d="M114.614 12.5796C114.681 12.6353 114.748 12.691 114.816 12.7484C114.884 12.8023 114.952 12.8561 115.022 12.9115C116.541 14.1702 117.532 16.0865 118.163 17.9216C118.163 18.0131 118.163 18.1046 118.163 18.1988C118.073 18.2353 117.984 18.2719 117.891 18.3095C115.663 19.2157 113.438 20.1281 111.215 21.0454C110.452 21.3601 109.69 21.6744 108.927 21.9886C108.689 22.0865 108.452 22.1844 108.214 22.2824C107.255 22.6779 106.294 23.0718 105.334 23.4644C105.925 24.6518 106.748 25.4816 108.006 25.964C109.459 26.4227 110.933 26.314 112.318 25.6815C113.223 25.2041 113.994 24.5169 114.537 23.6491C114.969 23.797 115.321 24.0268 115.699 24.2763C115.797 24.3405 115.797 24.3405 115.897 24.406C116.104 24.5421 116.312 24.6787 116.519 24.8154C116.66 24.9081 116.801 25.0007 116.943 25.0933C117.288 25.3197 117.633 25.5466 117.977 25.7738C117.33 27.4643 115.414 28.731 113.811 29.4517C111.397 30.4881 108.529 30.4945 106.089 29.5415C103.699 28.545 101.951 26.7677 100.9 24.412C99.9056 21.959 99.8821 19.0184 100.848 16.5475C101.889 14.1647 103.561 12.3911 106.013 11.392C108.905 10.3672 112.176 10.6002 114.614 12.5796ZM105.984 16.1665C105.047 17.1247 104.486 18.4612 104.479 19.7981C104.485 19.9105 104.491 20.0229 104.497 20.1387C105.556 19.7541 106.597 19.3361 107.635 18.8974C107.943 18.7672 108.252 18.6373 108.561 18.5073C108.64 18.4744 108.718 18.4415 108.798 18.4075C109.359 18.1717 109.922 17.9393 110.485 17.7084C110.562 17.6766 110.64 17.6447 110.719 17.6119C111.325 17.363 111.325 17.363 111.621 17.2425C111.827 17.1587 112.033 17.0744 112.238 16.9899C112.299 16.9653 112.36 16.9406 112.423 16.9152C112.676 16.8109 112.854 16.7303 113.05 16.536C112.511 15.576 111.782 15.0657 110.726 14.7548C108.91 14.323 107.333 14.9699 105.984 16.1665Z" fill="#EA4234"/>
<path d="M94.2703 1.29346C95.6509 1.29346 97.0315 1.29346 98.4539 1.29346C98.4539 10.6219 98.4539 19.9503 98.4539 29.5614C97.0733 29.5614 95.6927 29.5614 94.2703 29.5614C94.2703 20.233 94.2703 10.9045 94.2703 1.29346Z" fill="#34A853"/>
</svg>
