<svg width="24" height="24" viewBox="0 0 24 24" fill="none" xmlns="http://www.w3.org/2000/svg">
<g clip-path="url(#clip0_91_291)">
<path d="M22.8764 14.7008L20.6116 9.89489V9.81512C20.6116 4.35179 16.1829 0 10.7903 0C5.3988 0 0.975159 4.35844 0.975159 9.81511C0.975159 12.6828 2.22116 15.399 4.39332 17.2677C6.18514 18.809 7.21281 20.9582 7.21281 23.1647V23.6206C7.21281 23.8301 7.38273 24 7.59217 24H17.2905C17.4999 24 17.6698 23.8301 17.6698 23.6206V19.6362H18.4196C19.4602 19.6362 20.3066 18.7898 20.3066 17.7493V16.5541H21.7521C22.7226 16.5541 23.3187 15.508 22.8764 14.7008ZM21.7521 15.7954H19.9272C19.7178 15.7954 19.5478 15.9653 19.5478 16.1748V17.7493C19.5478 18.3714 19.0418 18.8774 18.4196 18.8774H17.2905C17.081 18.8774 16.9111 19.0474 16.9111 19.2568V23.2413H7.97153V23.1647C7.97153 20.7369 6.84778 18.3781 4.88827 16.6927C2.88355 14.9683 1.73388 12.4615 1.73388 9.81511C1.73388 4.78063 5.81567 0.75871 10.7903 0.75871C15.7507 0.75871 19.8529 4.76004 19.8529 9.81511V9.97985C19.8529 10.0357 19.8652 10.091 19.8892 10.1416L22.2004 15.0444C22.3873 15.387 22.1325 15.7954 21.7521 15.7954Z" fill="white"/>
<path d="M12.8306 10.3388V4.14286C12.8306 2.80474 11.7419 1.71606 10.4038 1.71606C9.06564 1.71606 7.97696 2.80473 7.97696 4.14286V10.3388C6.7853 11.2096 6.15402 12.6436 6.32147 14.1309C6.5319 16.0039 8.04438 17.5204 9.91795 17.7367C12.4126 18.0225 14.513 16.0769 14.513 13.6539C14.513 12.3361 13.8879 11.1118 12.8306 10.3388ZM10.0049 16.983C8.47882 16.8069 7.2469 15.5717 7.07525 14.0459C6.93225 12.7747 7.50301 11.5519 8.56452 10.8545C8.67146 10.7843 8.73567 10.665 8.73567 10.5373V4.14286C8.73567 3.22311 9.48401 2.47477 10.4038 2.47477C11.3235 2.47477 12.0718 3.22311 12.0718 4.14286V10.5373C12.0718 10.665 12.1361 10.7843 12.243 10.8545C13.1892 11.4761 13.7543 12.5228 13.7543 13.6539C13.7543 15.6023 12.0711 17.2218 10.0049 16.983Z" fill="white"/>
<path d="M13.957 4.10075H14.6797C14.8891 4.10075 15.059 3.93083 15.059 3.7214C15.059 3.51196 14.8891 3.34204 14.6797 3.34204H13.957C13.7476 3.34204 13.5777 3.51196 13.5777 3.7214C13.5777 3.93083 13.7476 4.10075 13.957 4.10075Z" fill="white"/>
<path d="M15.123 5.05933H13.957C13.7476 5.05933 13.5777 5.22925 13.5777 5.43868C13.5777 5.64812 13.7476 5.81804 13.957 5.81804H15.123C15.3324 5.81804 15.5024 5.64812 15.5024 5.43868C15.5024 5.22925 15.3324 5.05933 15.123 5.05933Z" fill="white"/>
<path d="M13.957 7.53532H14.6797C14.8891 7.53532 15.059 7.3654 15.059 7.15597C15.059 6.94653 14.8891 6.77661 14.6797 6.77661H13.957C13.7476 6.77661 13.5777 6.94653 13.5777 7.15597C13.5777 7.3654 13.7476 7.53532 13.957 7.53532Z" fill="white"/>
<path d="M15.123 8.4939H13.957C13.7476 8.4939 13.5777 8.66382 13.5777 8.87325C13.5777 9.08269 13.7476 9.25261 13.957 9.25261H15.123C15.3324 9.25261 15.5024 9.08269 15.5024 8.87325C15.5024 8.66382 15.3324 8.4939 15.123 8.4939Z" fill="white"/>
<path d="M10.7856 11.7001V6.91305C10.7856 6.70361 10.6156 6.53369 10.4062 6.53369C10.1968 6.53369 10.0269 6.70361 10.0269 6.91305V11.7001C9.1094 11.8779 8.41385 12.6854 8.41385 13.654C8.41385 14.7526 9.30766 15.6462 10.4062 15.6462C11.5048 15.6462 12.3986 14.7526 12.3986 13.654C12.3986 12.6854 11.703 11.8779 10.7856 11.7001ZM10.4062 14.8874C9.72604 14.8874 9.17256 14.3342 9.17256 13.654C9.17256 12.9739 9.72604 12.4204 10.4062 12.4204C11.0864 12.4204 11.6399 12.9739 11.6399 13.654C11.6399 14.3342 11.0864 14.8874 10.4062 14.8874Z" fill="white"/>
</g>
<defs>
<clipPath id="clip0_91_291">
<rect width="24" height="24" fill="white"/>
</clipPath>
</defs>
</svg>
