<svg width="30" height="30" viewBox="0 0 30 30" fill="none" xmlns="http://www.w3.org/2000/svg">
<g clip-path="url(#clip0_91_238)">
<path d="M15.0024 30C15.8797 30 16.5934 29.2863 16.5934 28.409V26.3388H18.0344C18.8302 26.3388 19.4778 25.6912 19.4778 24.8951V24.1731H21.6587C24.1057 24.1731 26.0961 22.1824 26.0961 19.7357V4.44332C26.0961 1.99339 24.1057 0 21.6587 0H8.34722C5.89729 0 3.9039 1.99339 3.9039 4.44332V19.7357C3.9039 22.1824 5.89729 24.1731 8.34722 24.1731H10.5263V24.8951C10.5263 25.6912 11.1739 26.3388 11.9703 26.3388H13.4114V28.409C13.4114 29.2863 14.125 30 15.0024 30ZM15.6791 28.409C15.6791 28.7822 15.3756 29.0857 15.0024 29.0857C14.6292 29.0857 14.3256 28.7822 14.3256 28.409V26.3397H15.6791L15.6791 28.409ZM8.34722 23.2588C6.40144 23.2588 4.81816 21.6782 4.81816 19.7357V4.44332C4.81816 2.49724 6.40144 0.914256 8.34722 0.914256H21.6587C23.6015 0.914256 25.1818 2.49724 25.1818 4.44332V19.7357C25.1818 21.6782 23.6015 23.2588 21.6587 23.2588H19.4778V22.5389C19.4778 21.7428 18.8302 21.0952 18.0344 21.0952H18.0326H11.9703H11.9679C11.2048 21.0952 10.5263 21.7249 10.5263 22.5389V23.2588L8.34722 23.2588ZM11.4406 24.8951C11.4407 24.8325 11.4437 22.4086 11.4436 22.5395C11.4436 22.2351 11.7039 22.0095 11.9703 22.0095H18.0326C18.3249 22.0095 18.563 22.2473 18.563 22.5395C18.563 22.6021 18.5636 25.026 18.5636 24.8951C18.5636 25.187 18.3261 25.4245 18.0344 25.4245H11.9703C11.6781 25.4245 11.4406 25.187 11.4406 24.8951Z" fill="white"/>
<path d="M22.6545 16.2311V6.0763C22.6545 4.66652 21.5076 3.51953 20.0981 3.51953H9.90671C8.49663 3.51953 7.34964 4.66652 7.34964 6.0763V16.2311C7.34964 17.6408 8.49663 18.7878 9.90671 18.7878H20.0981C21.5076 18.7878 22.6545 17.6408 22.6545 16.2311ZM8.2639 16.2311V6.0763C8.2639 5.17067 9.00078 4.43379 9.90671 4.43379H20.0981C21.0034 4.43379 21.7403 5.17067 21.7403 6.0763V16.2311C21.7403 17.1367 21.0034 17.8736 20.0981 17.8736H9.90671C9.00078 17.8736 8.2639 17.1367 8.2639 16.2311Z" fill="white"/>
<path d="M14.0875 7.44292C12.9917 8.85835 11.6852 10.7976 11.6852 11.9973C11.6852 13.8261 13.1733 15.3141 15.0024 15.3141C16.8315 15.3141 18.3195 13.8261 18.3195 11.9973C18.3195 10.7976 17.013 8.85836 15.9172 7.44263C15.4591 6.85146 14.5553 6.83776 14.0875 7.44292ZM15.0024 14.3999C13.6774 14.3999 12.5995 13.3219 12.5995 11.9973C12.5995 11.2839 13.4262 9.79077 14.8101 8.00243C14.9093 7.87519 15.0964 7.87644 15.1946 8.00243C16.5785 9.79076 17.4053 11.2839 17.4053 11.9973C17.4053 13.3219 16.3273 14.3999 15.0024 14.3999Z" fill="white"/>
</g>
<defs>
<clipPath id="clip0_91_238">
<rect width="30" height="30" fill="white"/>
</clipPath>
</defs>
</svg>
