<svg width="30" height="30" viewBox="0 0 30 30" fill="none" xmlns="http://www.w3.org/2000/svg">
<g clip-path="url(#clip0_165_390)">
<path d="M28.5952 18.376L25.7643 12.3686V12.2689C25.7643 5.43974 20.2284 0 13.4876 0C6.7483 0 1.21875 5.44805 1.21875 12.2689C1.21875 15.8535 2.77625 19.2488 5.49146 21.5846C7.73123 23.5113 9.01582 26.1978 9.01582 28.9559V29.5258C9.01582 29.7876 9.22822 30 9.49001 30H21.6129C21.8747 30 22.0871 29.7876 22.0871 29.5258V24.5452H23.0244C24.325 24.5452 25.383 23.4872 25.383 22.1866V20.6927H27.1899C28.4031 20.6927 29.1482 19.385 28.5952 18.376ZM27.1899 19.7443H24.9088C24.647 19.7443 24.4346 19.9567 24.4346 20.2185V22.1866C24.4346 22.9642 23.802 23.5968 23.0244 23.5968H21.6129C21.3511 23.5968 21.1387 23.8092 21.1387 24.071V29.0516H9.96421V28.9559C9.96421 25.9212 8.55953 22.9726 6.11014 20.8659C3.60424 18.7104 2.16715 15.5768 2.16715 12.2689C2.16715 5.97579 7.26939 0.948388 13.4877 0.948388C19.6882 0.948388 24.8159 5.95004 24.8159 12.2689V12.4748C24.8159 12.5446 24.8313 12.6137 24.8613 12.677L27.7503 18.8055C27.9839 19.2338 27.6655 19.7443 27.1899 19.7443Z" fill="white"/>
<path d="M16.0368 12.9268V5.18193C16.0368 3.50928 14.676 2.14844 13.0033 2.14844C11.3307 2.14844 9.96981 3.50928 9.96981 5.18193V12.9268C8.48023 14.0154 7.69114 15.8078 7.90045 17.6669C8.16348 20.0083 10.0541 21.9038 12.3961 22.1743C15.5144 22.5315 18.1398 20.0994 18.1398 17.0708C18.1398 15.4235 17.3584 13.8931 16.0368 12.9268ZM12.5047 21.232C10.5971 21.0119 9.05723 19.468 8.84267 17.5607C8.66392 15.9717 9.37738 14.4433 10.7043 13.5714C10.8379 13.4838 10.9182 13.3346 10.9182 13.175V5.18193C10.9182 4.03225 11.8536 3.09683 13.0033 3.09683C14.153 3.09683 15.0884 4.03225 15.0884 5.18193V13.175C15.0884 13.3346 15.1687 13.4838 15.3024 13.5714C16.4851 14.3485 17.1914 15.6569 17.1914 17.0708C17.1914 19.5063 15.0874 21.5306 12.5047 21.232Z" fill="white"/>
<path d="M17.4429 5.12808H18.3463C18.6081 5.12808 18.8205 4.91568 18.8205 4.65388C18.8205 4.39209 18.6081 4.17969 18.3463 4.17969H17.4429C17.1812 4.17969 16.9688 4.39209 16.9688 4.65388C16.9687 4.91567 17.1811 5.12808 17.4429 5.12808Z" fill="white"/>
<path d="M18.9004 6.32031H17.4429C17.1811 6.32031 16.9688 6.53271 16.9688 6.79451C16.9688 7.0563 17.1811 7.2687 17.4429 7.2687H18.9004C19.1622 7.2687 19.3746 7.0563 19.3746 6.79451C19.3746 6.53271 19.1622 6.32031 18.9004 6.32031Z" fill="white"/>
<path d="M17.4429 9.41714H18.3463C18.6081 9.41714 18.8205 9.20474 18.8205 8.94294C18.8205 8.68115 18.6081 8.46875 18.3463 8.46875H17.4429C17.1812 8.46875 16.9688 8.68115 16.9688 8.94294C16.9687 9.20474 17.1811 9.41714 17.4429 9.41714Z" fill="white"/>
<path d="M18.9004 10.6172H17.4429C17.1811 10.6172 16.9688 10.8296 16.9688 11.0914C16.9688 11.3532 17.1811 11.5656 17.4429 11.5656H18.9004C19.1622 11.5656 19.3746 11.3532 19.3746 11.0914C19.3746 10.8296 19.1622 10.6172 18.9004 10.6172Z" fill="white"/>
<path d="M13.4803 14.622V8.63826C13.4803 8.37646 13.2679 8.16406 13.0061 8.16406C12.7443 8.16406 12.5319 8.37646 12.5319 8.63826V14.622C11.3851 14.8443 10.5156 15.8537 10.5156 17.0645C10.5156 18.4377 11.6329 19.5546 13.0061 19.5546C14.3793 19.5546 15.4965 18.4377 15.4965 17.0645C15.4965 15.8537 14.6271 14.8443 13.4803 14.622ZM13.0061 18.6063C12.1559 18.6063 11.464 17.9147 11.464 17.0645C11.464 16.2143 12.1559 15.5224 13.0061 15.5224C13.8563 15.5224 14.5481 16.2143 14.5481 17.0645C14.5481 17.9147 13.8563 18.6063 13.0061 18.6063Z" fill="white"/>
</g>
<defs>
<clipPath id="clip0_165_390">
<rect width="30" height="30" fill="white"/>
</clipPath>
</defs>
</svg>
