<svg width="30" height="30" viewBox="0 0 30 30" fill="none" xmlns="http://www.w3.org/2000/svg">
<g clip-path="url(#clip0_91_244)">
<path d="M27.5428 29.8527C27.7285 29.6609 27.7235 29.3546 27.5315 29.1689L21.6566 23.4813C23.4603 22.8765 24.7649 21.1739 24.7649 19.1694V17.7358H25.9675C26.7684 17.7358 27.42 17.0842 27.42 16.283V12.9089C27.42 12.108 26.7684 11.4564 25.9675 11.4564H24.7649V10.6445H25.1641C26.0279 10.6445 26.7312 9.94155 26.7312 9.07741C26.7312 8.21327 26.0279 7.51031 25.1641 7.51031H24.5392L22.9624 5.15179C22.5179 4.48629 21.7743 4.08901 20.9741 4.08901H17.0085C17.2089 3.44673 17.3368 2.78808 17.3368 2.34058C17.3368 1.04988 16.2898 0 15.0028 0C13.7121 0 12.6626 1.04988 12.6626 2.34057C12.6626 2.78866 12.7901 3.44719 12.9902 4.08901H9.02657C8.22633 4.08901 7.48276 4.48629 7.03889 5.15147L5.46152 7.51031H4.83651C3.97269 7.51031 3.26941 8.21327 3.26941 9.07741C3.26941 9.94155 3.97269 10.6445 4.83651 10.6445H5.23569V11.4564H4.03627C3.23478 11.4564 2.58313 12.108 2.58313 12.9089V16.283C2.58313 17.0842 3.23478 17.7358 4.03627 17.7358H5.23569V19.1694C5.23569 21.1737 6.5402 22.8762 8.3436 23.4812L2.46854 29.1689C2.27651 29.3547 2.27147 29.661 2.45721 29.8527C2.64537 30.0471 2.95131 30.0473 3.14097 29.864L9.50283 23.705C9.59692 23.7108 9.69034 23.7193 9.78588 23.7193H20.2148C20.3101 23.7193 20.4033 23.7108 20.4972 23.705L26.859 29.864C27.049 30.0476 27.355 30.0467 27.5428 29.8527ZM15.0028 0.967081C15.7565 0.967081 16.3697 1.58316 16.3697 2.34057C16.3697 2.69567 16.2381 3.3936 15.9913 4.08774H14.0074C13.7613 3.39423 13.6297 2.69631 13.6297 2.34057C13.6296 1.58316 14.2454 0.967081 15.0028 0.967081ZM25.9675 12.4235C26.2351 12.4235 26.4529 12.6413 26.4529 12.9089V16.283C26.4529 16.5509 26.2351 16.7687 25.9675 16.7687H24.7649V12.4235H25.9675ZM7.8429 5.68884C8.10734 5.29251 8.54995 5.05609 9.02657 5.05609H20.9741C21.4507 5.05609 21.8933 5.29251 22.1584 5.68916L23.3762 7.51031H6.62441L7.8429 5.68884ZM4.23649 9.07741C4.23649 8.74655 4.50597 8.47739 4.83651 8.47739C26.7531 8.47757 17.7492 8.47763 25.1641 8.47739C25.4947 8.47739 25.7641 8.74655 25.7641 9.07741C25.7641 9.40827 25.4947 9.67743 25.1641 9.67743C-13.1473 9.67681 27.0798 9.67734 4.83651 9.67743C4.50596 9.67743 4.23649 9.40827 4.23649 9.07741ZM4.03627 16.7687C3.76806 16.7687 3.55021 16.5509 3.55021 16.283V12.9089C3.55021 12.6413 3.76806 12.4235 4.03627 12.4235H5.23569V16.7687H4.03627ZM9.78588 22.7522C7.81016 22.7522 6.20277 21.1452 6.20277 19.1694C6.20344 19.2383 6.20548 15.3933 6.20277 10.6445H23.7979C23.7978 10.5794 23.7967 12.4874 23.7979 19.1694C23.7979 21.1452 22.1905 22.7522 20.2148 22.7522H9.78588Z" fill="white"/>
<path d="M9.9458 30H20.0548C20.1896 30 20.318 29.9437 20.4099 29.8448C20.5012 29.746 20.5472 29.6134 20.5371 29.479C20.4546 28.4194 19.0342 26.6165 18.7503 26.2658C18.5664 26.0385 18.1824 26.0385 17.9985 26.2658C17.8138 26.4939 17.1526 27.3361 16.6874 28.1888C16.2222 27.3361 15.5609 26.4939 15.3762 26.2658C15.1924 26.0385 14.8083 26.0385 14.6244 26.2658C14.4398 26.4939 13.7785 27.3359 13.3131 28.1885C12.8479 27.3359 12.1867 26.4938 12.0021 26.2658C11.8183 26.0385 11.4342 26.0385 11.2504 26.2658C10.9664 26.6165 9.54601 28.4194 9.46352 29.479C9.45345 29.6134 9.49941 29.746 9.59071 29.8448C9.68262 29.9437 9.81106 30 9.9458 30ZM18.3744 27.3632C18.7698 27.9012 19.1847 28.5419 19.4082 29.0329H17.3412C17.5647 28.5422 17.9796 27.9012 18.3744 27.3632ZM15.0003 27.3632C15.3951 27.9015 15.81 28.5422 16.0335 29.0329H13.9665C14.19 28.5422 14.6055 27.9015 15.0003 27.3632ZM11.6262 27.3632C12.021 27.9015 12.4359 28.5422 12.6594 29.0329H10.5924C10.8159 28.5422 11.2315 27.9015 11.6262 27.3632Z" fill="white"/>
<path d="M19.7192 11.9994H10.2808C9.32815 11.9994 8.5531 12.7744 8.5531 13.7274V18.9298C8.5531 19.8828 9.32815 20.6578 10.2808 20.6578H19.7192C20.6725 20.6578 21.4475 19.8828 21.4475 18.9298V13.7274C21.4475 12.7744 20.6725 11.9994 19.7192 11.9994ZM20.4804 18.9298C20.4804 19.3495 20.1392 19.6907 19.7192 19.6907H10.2808C9.86144 19.6907 9.52019 19.3495 9.52019 18.9298V13.7274C9.52019 13.3077 9.86144 12.9665 10.2808 12.9665H19.7192C20.1392 12.9665 20.4804 13.3077 20.4804 13.7274L20.4804 18.9298Z" fill="white"/>
</g>
<defs>
<clipPath id="clip0_91_244">
<rect width="30" height="30" fill="white"/>
</clipPath>
</defs>
</svg>
