<svg width="51" height="51" viewBox="0 0 51 51" fill="none" xmlns="http://www.w3.org/2000/svg">
<path d="M49.8818 14.6871C49.8769 14.8156 49.867 14.9441 49.8571 15.0726C49.7335 16.6591 49.269 18.0825 48.7105 19.3972C47.5737 22.0315 45.9625 24.2605 44.2277 26.3115C40.7137 30.3989 36.5276 33.7053 32.0597 36.4977C27.5621 39.2407 22.7285 41.4994 17.5044 42.8091C16.4369 43.0661 15.3545 43.2935 14.2523 43.4615V39.0381C14.2523 38.9541 14.2474 38.875 14.2375 38.7959C14.1535 38.0101 13.6494 37.3478 12.9525 37.0414C12.6856 36.9228 12.3841 36.8585 12.0728 36.8585H2.29677C1.24405 36.8585 0.369251 36.1122 0.166614 35.1238C0.132018 34.9804 0.117188 34.8272 0.117188 34.674V16.5306C0.117188 15.3247 1.09083 14.351 2.29677 14.351H12.0728C13.2787 14.351 14.2523 13.3724 14.2523 12.1714V2.39052C14.2523 1.18952 15.2309 0.210938 16.4369 0.210938H34.5803C35.7862 0.210938 36.7598 1.18952 36.7598 2.39052V12.1714C36.7598 13.3724 37.7384 14.351 38.9394 14.351H48.7204C49.1503 14.351 49.5457 14.4746 49.8818 14.6871Z" fill="#4753BF"/>
<path d="M17.2206 39.0415C17.2206 38.8423 17.2092 38.651 17.186 38.4573C16.9829 36.6449 15.8209 35.0653 14.1489 34.3304C13.5133 34.0482 12.7927 33.8965 12.0756 33.8965H3.08594V17.3198H12.0756C14.9125 17.3198 17.2206 15.0117 17.2206 12.1748V3.17969H33.7973V12.1748C33.7973 15.0117 36.1053 17.3198 38.9422 17.3198H46.3454C46.2406 17.6138 46.1205 17.9193 45.9841 18.241C45.1276 20.2259 43.8866 22.1302 41.9665 24.4002C38.9521 27.9058 35.1935 31.0477 30.4908 33.9864C25.9414 36.761 21.5867 38.6787 17.2206 39.8248V39.0415Z" fill="white"/>
<path d="M50.8976 19.2344V34.6743C50.8976 35.8802 49.9239 36.8588 48.718 36.8588H38.9371C37.7361 36.8588 36.7575 37.8325 36.7575 39.0384V48.8144C36.7575 50.0203 35.7839 50.9989 34.5779 50.9989H16.4345C15.2286 50.9989 14.25 50.0203 14.25 48.8144V45.4536C15.4115 45.2905 16.6421 45.0533 17.9815 44.7271C22.9831 43.4766 27.9255 41.3366 33.1051 38.1735C38.2402 34.9659 42.3671 31.5063 45.7328 27.587C47.9816 24.9329 49.4594 22.6446 50.5269 20.1734C50.6653 19.8522 50.7889 19.5403 50.8976 19.2344Z" fill="#506CD7"/>
<path d="M49.8856 14.6891C49.8807 14.8176 49.8708 14.9461 49.8609 15.0746C49.7374 16.6611 49.2728 18.0845 48.7143 19.3992C47.5776 22.0335 45.9664 24.2625 44.2316 26.3135C40.7176 30.4009 36.5314 33.7073 32.0635 36.4997C27.566 39.2428 22.7323 41.5014 17.5082 42.8111C16.4407 43.0681 15.3583 43.2955 14.2562 43.4635C13.6038 43.5624 12.9465 43.6415 12.2792 43.6859C11.3105 43.765 10.3221 43.7798 9.31382 43.7205C7.88548 43.6316 6.40771 43.4092 4.92995 42.8062C3.46701 42.2329 1.96947 41.1505 1.06007 39.6035C0.84755 39.2279 0.669636 38.8375 0.53125 38.4322C1.06997 38.6942 1.67293 38.8375 2.30061 38.8375H6.15071C7.0947 39.1983 8.25616 39.3713 9.47198 39.3663C10.3913 39.3614 11.3303 39.2872 12.2792 39.1538C12.9316 39.0648 13.584 38.9413 14.2414 38.7979C14.9333 38.6546 15.6203 38.4767 16.3073 38.279C18.5956 37.6266 20.8592 36.7666 23.0536 35.7436C25.2529 34.7353 27.3979 33.5739 29.4688 32.2938C31.5446 31.0187 33.5413 29.62 35.4342 28.1076C37.3321 26.6051 39.1113 24.9692 40.7225 23.2147C42.3337 21.47 43.767 19.5722 44.7604 17.5903C45.3189 16.503 45.6896 15.3662 45.7785 14.353C45.8527 13.6117 45.7736 12.9346 45.5166 12.3761C45.4919 12.3217 45.4672 12.2723 45.4375 12.2179C45.0619 11.5606 44.4243 10.9725 43.4952 10.582C42.5907 10.1767 41.4886 9.95433 40.3469 9.85055C39.8181 9.80606 39.2843 9.78629 38.7406 9.78629V6.71215C39.309 6.65778 39.8823 6.62318 40.4655 6.61824C41.8543 6.60341 43.2975 6.7418 44.7654 7.24098C46.2184 7.71545 47.7506 8.6792 48.7341 10.1817C49.1987 10.8983 49.51 11.694 49.6929 12.4947C49.856 13.2361 49.9153 13.9824 49.8856 14.6891Z" fill="#0B1030"/>
</svg>
