<svg width="183" height="51" viewBox="0 0 183 51" fill="none" xmlns="http://www.w3.org/2000/svg">
<path d="M49.8846 14.688C49.8797 14.8165 49.8698 14.945 49.8599 15.0735C49.7364 16.66 49.2718 18.0834 48.7133 19.398C47.5765 22.0323 45.9653 24.2613 44.2306 26.3124C40.7165 30.3997 36.5304 33.7062 32.0625 36.4986C27.5649 39.2416 22.7313 41.5003 17.5072 42.81C16.4397 43.067 15.3573 43.2943 14.2551 43.4624V39.039C14.2551 38.9549 14.2502 38.8759 14.2403 38.7968C14.1563 38.011 13.6522 37.3487 12.9553 37.0423C12.6884 36.9236 12.3869 36.8594 12.0756 36.8594H2.29958C1.24685 36.8594 0.372058 36.1131 0.169422 35.1246C0.134825 34.9813 0.119995 34.8281 0.119995 34.6749V16.5315C0.119995 15.3255 1.09364 14.3519 2.29958 14.3519H12.0756C13.2815 14.3519 14.2551 13.3733 14.2551 12.1723V2.39137C14.2551 1.19038 15.2337 0.211792 16.4397 0.211792H34.5831C35.789 0.211792 36.7627 1.19038 36.7627 2.39137V12.1723C36.7627 13.3733 37.7412 14.3519 38.9422 14.3519H48.7232C49.1531 14.3519 49.5485 14.4754 49.8846 14.688Z" fill="#4753BF"/>
<path d="M17.2205 39.0394C17.2205 38.8403 17.2092 38.649 17.1859 38.4552C16.9828 36.6429 15.8209 35.0633 14.1489 34.3284C13.5133 34.0462 12.7927 33.8944 12.0755 33.8944H3.08588V17.3178H12.0755C14.9124 17.3178 17.2205 15.0097 17.2205 12.1728V3.17767H33.7972V12.1728C33.7972 15.0097 36.1053 17.3178 38.9422 17.3178H46.3454C46.2406 17.6118 46.1205 17.9173 45.9841 18.239C45.1276 20.2239 43.8865 22.1282 41.9664 24.3982C38.9521 27.9038 35.1934 31.0457 30.4908 33.9844C25.9413 36.759 21.5866 38.6767 17.2205 39.8228V39.0394Z" fill="white"/>
<path d="M50.9028 19.2355V34.6754C50.9028 35.8813 49.9291 36.8599 48.7232 36.8599H38.9423C37.7413 36.8599 36.7627 37.8336 36.7627 39.0395V48.8155C36.7627 50.0214 35.789 51 34.5831 51H16.4397C15.2338 51 14.2552 50.0214 14.2552 48.8155V45.4547C15.4166 45.2916 16.6473 45.0544 17.9867 44.7282C22.9883 43.4777 27.9307 41.3377 33.1103 38.1746C38.2454 34.967 42.3723 31.5074 45.738 27.5881C47.9868 24.934 49.4646 22.6457 50.5321 20.1745C50.6705 19.8533 50.794 19.5414 50.9028 19.2355Z" fill="#506CD7"/>
<path d="M49.8846 14.688C49.8797 14.8165 49.8698 14.945 49.8599 15.0735C49.7363 16.66 49.2718 18.0834 48.7133 19.398C47.5765 22.0323 45.9653 24.2613 44.2305 26.3124C40.7165 30.3997 36.5304 33.7062 32.0625 36.4986C27.5649 39.2416 22.7313 41.5003 17.5072 42.81C16.4397 43.067 15.3573 43.2943 14.2551 43.4624C13.6027 43.5612 12.9454 43.6403 12.2782 43.6848C11.3095 43.7639 10.321 43.7787 9.31278 43.7194C7.88444 43.6304 6.40667 43.408 4.92891 42.805C3.46597 42.2317 1.96843 41.1493 1.05903 39.6024C0.846512 39.2268 0.668598 38.8363 0.530212 38.4311C1.06893 38.693 1.67189 38.8363 2.29957 38.8363H6.14967C7.09366 39.1971 8.25512 39.3701 9.47094 39.3652C10.3902 39.3602 11.3293 39.2861 12.2782 39.1526C12.9306 39.0637 13.583 38.9401 14.2403 38.7968C14.9322 38.6535 15.6192 38.4755 16.3062 38.2778C18.5945 37.6254 20.8581 36.7655 23.0525 35.7424C25.2519 34.7342 27.3969 33.5727 29.4677 32.2926C31.5435 31.0175 33.5402 29.6188 35.4332 28.1065C37.331 26.604 39.1103 24.9681 40.7215 23.2135C42.3327 21.4689 43.766 19.571 44.7594 17.5891C45.3179 16.5018 45.6885 15.3651 45.7775 14.3519C45.8516 13.6105 45.7726 12.9334 45.5156 12.3749C45.4909 12.3206 45.4661 12.2711 45.4365 12.2168C45.0609 11.5594 44.4233 10.9713 43.4941 10.5809C42.5897 10.1756 41.4875 9.95317 40.3459 9.84939C39.817 9.8049 39.2833 9.78513 38.7396 9.78513V6.71099C39.308 6.65662 39.8813 6.62202 40.4645 6.61708C41.8533 6.60225 43.2965 6.74064 44.7643 7.23982C46.2174 7.71429 47.7495 8.67805 48.733 10.1805C49.1976 10.8972 49.509 11.6929 49.6918 12.4935C49.8549 13.2349 49.9143 13.9812 49.8846 14.688Z" fill="#0B1030"/>
<path d="M68.6799 35V17.72H74.1879C74.3319 17.72 74.6159 17.724 75.0399 17.732C75.4719 17.74 75.8879 17.768 76.2879 17.816C77.6559 17.992 78.8119 18.48 79.7559 19.28C80.7079 20.072 81.4279 21.084 81.9159 22.316C82.4039 23.548 82.6479 24.896 82.6479 26.36C82.6479 27.824 82.4039 29.172 81.9159 30.404C81.4279 31.636 80.7079 32.652 79.7559 33.452C78.8119 34.244 77.6559 34.728 76.2879 34.904C75.8959 34.952 75.4839 34.98 75.0519 34.988C74.6199 34.996 74.3319 35 74.1879 35H68.6799ZM71.6199 32.276H74.1879C74.4279 32.276 74.7319 32.268 75.0999 32.252C75.4759 32.236 75.8079 32.2 76.0959 32.144C76.9119 31.992 77.5759 31.628 78.0879 31.052C78.5999 30.476 78.9759 29.776 79.2159 28.952C79.4639 28.128 79.5879 27.264 79.5879 26.36C79.5879 25.424 79.4639 24.544 79.2159 23.72C78.9679 22.896 78.5839 22.204 78.0639 21.644C77.5519 21.084 76.8959 20.728 76.0959 20.576C75.8079 20.512 75.4759 20.476 75.0999 20.468C74.7319 20.452 74.4279 20.444 74.1879 20.444H71.6199V32.276ZM85.7246 20.072V17.42H88.6166V20.072H85.7246ZM85.7246 35V22.04H88.6166V35H85.7246ZM97.2152 35.36C95.6152 35.36 94.3152 35 93.3152 34.28C92.3152 33.56 91.7072 32.548 91.4912 31.244L94.4432 30.788C94.5952 31.428 94.9312 31.932 95.4512 32.3C95.9712 32.668 96.6272 32.852 97.4192 32.852C98.1152 32.852 98.6512 32.716 99.0272 32.444C99.4112 32.164 99.6032 31.784 99.6032 31.304C99.6032 31.008 99.5312 30.772 99.3872 30.596C99.2512 30.412 98.9472 30.236 98.4752 30.068C98.0032 29.9 97.2792 29.688 96.3032 29.432C95.2152 29.144 94.3512 28.836 93.7112 28.508C93.0712 28.172 92.6112 27.776 92.3312 27.32C92.0512 26.864 91.9112 26.312 91.9112 25.664C91.9112 24.856 92.1232 24.152 92.5472 23.552C92.9712 22.952 93.5632 22.492 94.3232 22.172C95.0832 21.844 95.9792 21.68 97.0112 21.68C98.0192 21.68 98.9112 21.836 99.6872 22.148C100.471 22.46 101.103 22.904 101.583 23.48C102.063 24.056 102.359 24.732 102.471 25.508L99.5192 26.036C99.4472 25.484 99.1952 25.048 98.7632 24.728C98.3392 24.408 97.7712 24.228 97.0592 24.188C96.3792 24.148 95.8312 24.252 95.4152 24.5C94.9992 24.74 94.7912 25.08 94.7912 25.52C94.7912 25.768 94.8752 25.98 95.0432 26.156C95.2112 26.332 95.5472 26.508 96.0512 26.684C96.5632 26.86 97.3232 27.076 98.3312 27.332C99.3632 27.596 100.187 27.9 100.803 28.244C101.427 28.58 101.875 28.984 102.147 29.456C102.427 29.928 102.567 30.5 102.567 31.172C102.567 32.476 102.091 33.5 101.139 34.244C100.195 34.988 98.8872 35.36 97.2152 35.36ZM111.424 35.36C110.16 35.36 109.1 35.06 108.244 34.46C107.388 33.86 106.744 33.044 106.312 32.012C105.88 30.972 105.664 29.808 105.664 28.52C105.664 27.216 105.88 26.048 106.312 25.016C106.744 23.984 107.376 23.172 108.208 22.58C109.048 21.98 110.084 21.68 111.316 21.68C112.54 21.68 113.6 21.98 114.496 22.58C115.4 23.172 116.1 23.984 116.596 25.016C117.092 26.04 117.34 27.208 117.34 28.52C117.34 29.816 117.096 30.98 116.608 32.012C116.12 33.044 115.432 33.86 114.544 34.46C113.656 35.06 112.616 35.36 111.424 35.36ZM105.172 40.76V22.04H107.728V31.136H108.088V40.76H105.172ZM110.98 32.768C111.732 32.768 112.352 32.58 112.84 32.204C113.328 31.828 113.688 31.32 113.92 30.68C114.16 30.032 114.28 29.312 114.28 28.52C114.28 27.736 114.16 27.024 113.92 26.384C113.68 25.736 113.308 25.224 112.804 24.848C112.3 24.464 111.66 24.272 110.884 24.272C110.148 24.272 109.548 24.452 109.084 24.812C108.62 25.164 108.276 25.66 108.052 26.3C107.836 26.932 107.728 27.672 107.728 28.52C107.728 29.36 107.836 30.1 108.052 30.74C108.276 31.38 108.624 31.88 109.096 32.24C109.576 32.592 110.204 32.768 110.98 32.768ZM128.949 35V28.76C128.949 28.352 128.921 27.9 128.865 27.404C128.809 26.908 128.677 26.432 128.469 25.976C128.269 25.512 127.965 25.132 127.557 24.836C127.157 24.54 126.613 24.392 125.925 24.392C125.557 24.392 125.193 24.452 124.833 24.572C124.473 24.692 124.145 24.9 123.849 25.196C123.561 25.484 123.329 25.884 123.153 26.396C122.977 26.9 122.889 27.548 122.889 28.34L121.173 27.608C121.173 26.504 121.385 25.504 121.809 24.608C122.241 23.712 122.873 23 123.705 22.472C124.537 21.936 125.561 21.668 126.777 21.668C127.737 21.668 128.529 21.828 129.153 22.148C129.777 22.468 130.273 22.876 130.641 23.372C131.009 23.868 131.281 24.396 131.457 24.956C131.633 25.516 131.745 26.048 131.793 26.552C131.849 27.048 131.877 27.452 131.877 27.764V35H128.949ZM119.961 35V22.04H122.541V26.06H122.889V35H119.961ZM140.012 35.36C138.412 35.36 137.112 35 136.112 34.28C135.112 33.56 134.504 32.548 134.288 31.244L137.24 30.788C137.392 31.428 137.728 31.932 138.248 32.3C138.768 32.668 139.424 32.852 140.216 32.852C140.912 32.852 141.448 32.716 141.824 32.444C142.208 32.164 142.4 31.784 142.4 31.304C142.4 31.008 142.328 30.772 142.184 30.596C142.048 30.412 141.744 30.236 141.272 30.068C140.8 29.9 140.076 29.688 139.1 29.432C138.012 29.144 137.148 28.836 136.508 28.508C135.868 28.172 135.408 27.776 135.128 27.32C134.848 26.864 134.708 26.312 134.708 25.664C134.708 24.856 134.92 24.152 135.344 23.552C135.768 22.952 136.36 22.492 137.12 22.172C137.88 21.844 138.776 21.68 139.808 21.68C140.816 21.68 141.708 21.836 142.484 22.148C143.268 22.46 143.9 22.904 144.38 23.48C144.86 24.056 145.156 24.732 145.268 25.508L142.316 26.036C142.244 25.484 141.992 25.048 141.56 24.728C141.136 24.408 140.568 24.228 139.856 24.188C139.176 24.148 138.628 24.252 138.212 24.5C137.796 24.74 137.588 25.08 137.588 25.52C137.588 25.768 137.672 25.98 137.84 26.156C138.008 26.332 138.344 26.508 138.848 26.684C139.36 26.86 140.12 27.076 141.128 27.332C142.16 27.596 142.984 27.9 143.6 28.244C144.224 28.58 144.672 28.984 144.944 29.456C145.224 29.928 145.364 30.5 145.364 31.172C145.364 32.476 144.888 33.5 143.936 34.244C142.992 34.988 141.684 35.36 140.012 35.36ZM151.616 35.36C150.68 35.36 149.888 35.184 149.24 34.832C148.592 34.472 148.1 33.996 147.764 33.404C147.436 32.812 147.272 32.16 147.272 31.448C147.272 30.824 147.376 30.264 147.584 29.768C147.792 29.264 148.112 28.832 148.544 28.472C148.976 28.104 149.536 27.804 150.224 27.572C150.744 27.404 151.352 27.252 152.048 27.116C152.752 26.98 153.512 26.856 154.328 26.744C155.152 26.624 156.012 26.496 156.908 26.36L155.876 26.948C155.884 26.052 155.684 25.392 155.276 24.968C154.868 24.544 154.18 24.332 153.212 24.332C152.628 24.332 152.064 24.468 151.52 24.74C150.976 25.012 150.596 25.48 150.38 26.144L147.74 25.316C148.06 24.22 148.668 23.34 149.564 22.676C150.468 22.012 151.684 21.68 153.212 21.68C154.364 21.68 155.376 21.868 156.248 22.244C157.128 22.62 157.78 23.236 158.204 24.092C158.436 24.548 158.576 25.016 158.624 25.496C158.672 25.968 158.696 26.484 158.696 27.044V35H156.164V32.192L156.584 32.648C156 33.584 155.316 34.272 154.532 34.712C153.756 35.144 152.784 35.36 151.616 35.36ZM152.192 33.056C152.848 33.056 153.408 32.94 153.872 32.708C154.336 32.476 154.704 32.192 154.976 31.856C155.256 31.52 155.444 31.204 155.54 30.908C155.692 30.54 155.776 30.12 155.792 29.648C155.816 29.168 155.828 28.78 155.828 28.484L156.716 28.748C155.844 28.884 155.096 29.004 154.472 29.108C153.848 29.212 153.312 29.312 152.864 29.408C152.416 29.496 152.02 29.596 151.676 29.708C151.34 29.828 151.056 29.968 150.824 30.128C150.592 30.288 150.412 30.472 150.284 30.68C150.164 30.888 150.104 31.132 150.104 31.412C150.104 31.732 150.184 32.016 150.344 32.264C150.504 32.504 150.736 32.696 151.04 32.84C151.352 32.984 151.736 33.056 152.192 33.056ZM161.821 35V22.04H164.377V25.196L164.065 24.788C164.225 24.356 164.437 23.964 164.701 23.612C164.973 23.252 165.297 22.956 165.673 22.724C165.993 22.508 166.345 22.34 166.729 22.22C167.121 22.092 167.521 22.016 167.929 21.992C168.337 21.96 168.733 21.976 169.117 22.04V24.74C168.733 24.628 168.289 24.592 167.785 24.632C167.289 24.672 166.841 24.812 166.441 25.052C166.041 25.268 165.713 25.544 165.457 25.88C165.209 26.216 165.025 26.6 164.905 27.032C164.785 27.456 164.725 27.916 164.725 28.412V35H161.821ZM172.712 40.76L175.208 33.908L175.256 35.924L169.604 22.04H172.616L176.624 32.312H175.856L179.756 22.04H182.648L175.424 40.76H172.712Z" fill="#0B1030"/>
</svg>
