<!DOCTYPE svg PUBLIC "-//W3C//DTD SVG 1.1//EN" "http://www.w3.org/Graphics/SVG/1.1/DTD/svg11.dtd">
<!-- Uploaded to: SVG Repo, www.svgrepo.com, Transformed by: SVG Repo Mixer Tools -->
<svg height="800px" width="800px" version="1.1" id="Capa_1" xmlns="http://www.w3.org/2000/svg" xmlns:xlink="http://www.w3.org/1999/xlink" viewBox="0 0 48.401 48.401" xml:space="preserve" fill=" #0B1030" stroke=" #0B1030">
<g id="SVGRepo_bgCarrier" stroke-width="0"/>
<g id="SVGRepo_tracerCarrier" stroke-linecap="round" stroke-linejoin="round"/>
<g id="SVGRepo_iconCarrier"> <g> <g> <path style="fill:#030104;" d="M16.36,18.515l-3.17,3.17c-0.586,0.588-0.979,1.354-0.979,2.208v1.422c0,0.553,0.448,1,1,1h4.838 c0.552,0,1-0.422,1-0.942c0-0.522-0.448-0.944-1.001-0.944h-2.629c-0.552,0-1-0.12-1-0.267c0-0.149,0-0.268,0-0.268 c0-0.32,0.124-0.623,0.338-0.819l3.17-3.169c0.587-0.588,0.961-1.354,0.961-2.208v-1.532c0-1.548-1.46-2.813-3.259-2.813 c-1.798,0-3.258,1.264-3.258,2.813v0.623c0,0.345,0.447,0.624,1,0.624h0.208c0.552,0,1-0.279,1-0.624c0-0.344,0-0.623,0-0.623 c0-0.498,0.481-0.926,1.05-0.926c0.588,0,1.051,0.428,1.051,0.926v1.532C16.68,18.017,16.556,18.302,16.36,18.515z"/> <path style="fill:#030104;" d="M27.134,13.494h-0.207c-0.553,0-1.231,0.384-1.516,0.858l-4.064,6.779 c-0.283,0.474-0.514,1.281-0.514,1.802c0,0.52,0.447,0.943,1,0.943h3.091c0.554,0,1,0.447,1,1v0.439c0,0.553,0.447,1,1,1h0.209 c0.553,0,1-0.446,1-1v-0.439c0-0.553,0.158-1,0.354-1c0.198,0,0.356-0.422,0.356-0.943c0-0.522-0.158-0.945-0.355-0.945 c-0.195,0-0.355-0.447-0.355-1v-6.494C28.134,13.941,27.688,13.494,27.134,13.494z M25.925,20.988c0,0.553-0.446,1-1,0.999h-0.688 c-0.552,0-0.771-0.385-0.49-0.86l1.669-2.82c0.281-0.474,0.51-0.413,0.51,0.14L25.925,20.988L25.925,20.988z"/> <path style="fill:#030104;" d="M31.424,11.762c-0.381,0-0.689,0.447-0.689,1v6.635c0,0.553,0.309,1,0.689,0.999 c0.381,0,0.69-0.447,0.69-1v-3.401c0-0.324,0.312-0.576,0.685-0.576c0.371,0,0.684,0.252,0.684,0.576v3.401 c0,0.553,0.309,1,0.689,1c0.379,0,0.688-0.447,0.688-1v-3.401c0-0.935-0.923-1.691-2.062-1.691c-0.123,0-0.24,0.015-0.352,0.04 c-0.191,0.044-0.333-0.331-0.333-0.884v-0.698C32.114,12.209,31.804,11.762,31.424,11.762z"/> <path style="fill:#030104;" d="M47.463,25.801l-1.977-0.617c0.195-1.897,0.16-3.814-0.129-5.721 C43.487,7.105,31.913-1.427,19.553,0.444C7.197,2.315-1.335,13.891,0.536,26.249c0.214,1.408,0.554,2.769,1.006,4.069 c0.365,1.043,1.186,1.748,1.734,1.617c0.547-0.131,0.598-1.045,0.225-2.084c-0.447-1.244-0.78-2.549-0.986-3.904 C0.808,14.682,8.587,4.128,19.854,2.423c11.267-1.706,21.819,6.073,23.526,17.34c0.241,1.603,0.297,3.216,0.164,4.815 c0,0-0.826-0.258-1.846-0.576c-1.021-0.318-1.648,0.299-1.406,1.375l1.309,5.826c0.242,1.076,1.098,1.344,1.908,0.596l4.392-4.047 C48.713,27.003,48.515,26.13,47.463,25.801z"/> <path style="fill:#030104;" d="M46.551,41.784c0.054-0.286,0.027-0.589-0.102-0.881c-0.866-1.956-3.608-6.686-10.331-8.334 c-3.082-0.758-7.685-1.661-12.108-1.661l-0.453,0.003c-6.573,0.098-12.463,1.432-12.65,1.477 c-0.206,0.033-5.076,0.869-8.325,4.352l0.012,0.012c-0.562,0.469-1.082,1.321-1.314,1.738l-0.02-0.013 c-0.431,0.713-0.754,1.413-0.988,2.14c-0.094,0.293-0.09,0.59-0.014,0.867c-0.14,0.241-0.228,0.517-0.23,0.813L0,45.834 c-0.008,0.913,0.728,1.664,1.645,1.674l10.928,0.09h0.009c0.909,0,1.653-0.738,1.661-1.646l0.028-3.538 c0.002-0.277-0.071-0.535-0.19-0.767c0.053-0.076,0.116-0.15,0.157-0.228c0.152-0.291,0.882-1.258,3.875-1.442 c0.96-0.06,2.111-0.089,3.421-0.089c3.779,0,7.694,0.25,7.733,0.253l0.122,0.001c0.407,0,2.446,0.072,2.576,1.493 c0.015,0.163,0.057,0.314,0.109,0.46c-0.188,0.279-0.297,0.615-0.286,0.977l0.117,3.543c0.033,0.896,0.763,1.599,1.659,1.599 l11.745-0.386c0.912-0.034,1.63-0.802,1.6-1.712l-0.117-3.539C46.782,42.284,46.692,42.017,46.551,41.784z M12.244,45.595 L2.002,45.511l0.022-2.856l10.242,0.084L12.244,45.595z M29.405,38.144c-0.003,0-0.007,0-0.01,0 c-0.039-0.002-4.016-0.257-7.862-0.257c-1.351,0-2.544,0.031-3.544,0.093c-3.598,0.223-4.99,1.489-5.525,2.514 c-0.016,0.03-0.061,0.072-0.016,0.072L2.43,40.557c0.149-0.346,0.329-0.69,0.54-1.042c0.139-0.197,0.84-1.129,1.035-1.367 l0.042-0.044c2.774-2.975,7.145-3.736,7.248-3.756c0.059-0.014,5.929-1.344,12.292-1.438l0.424-0.003 c4.224,0,8.656,0.872,11.632,1.604c5.107,1.253,7.564,4.511,8.606,6.442l-10.327,0.229C33.553,38.948,31.289,38.144,29.405,38.144 z M33.892,46.202l-0.095-2.856l11.007-0.36l0.095,2.854L33.892,46.202z"/> </g> </g> </g>
</svg>